%TF.GenerationSoftware,Altium Limited,Altium Designer,23.8.1 (32)*%
G04 Layer_Physical_Order=2*
G04 Layer_Color=36540*
%FSLAX45Y45*%
%MOMM*%
%TF.SameCoordinates,47205040-CD91-4698-B5C6-F5A5CD4DDF21*%
%TF.FilePolarity,Positive*%
%TF.FileFunction,Copper,L2,Inr,Signal*%
%TF.Part,Single*%
G01*
G75*
%TA.AperFunction,ComponentPad*%
%ADD44C,2.25000*%
%ADD45R,2.10000X2.10000*%
%ADD46R,1.44600X1.44600*%
%ADD47C,1.44600*%
%ADD48C,1.99500*%
%ADD49C,1.29500*%
%ADD50C,2.40000*%
%ADD51R,2.40000X2.40000*%
%ADD52C,4.00000*%
%ADD53C,1.60000*%
%ADD54C,0.32500*%
%ADD55R,1.40800X1.40800*%
%ADD56C,3.25000*%
%ADD57C,1.40800*%
%ADD58C,1.80000*%
%TA.AperFunction,ViaPad*%
%ADD59C,0.50000*%
%ADD60C,0.90000*%
%ADD61C,0.60000*%
%ADD62C,0.70000*%
G36*
X12040000Y2540000D02*
X2540000D01*
Y10040000D01*
X12040000D01*
Y2540000D01*
D02*
G37*
%LPC*%
G36*
X5302862Y9775900D02*
X5288938D01*
X5276074Y9770572D01*
X5266228Y9760726D01*
X5260900Y9747862D01*
Y9733938D01*
X5266228Y9721074D01*
X5276074Y9711228D01*
X5288938Y9705900D01*
X5302862D01*
X5315726Y9711228D01*
X5325572Y9721074D01*
X5330900Y9733938D01*
Y9747862D01*
X5325572Y9760726D01*
X5315726Y9770572D01*
X5302862Y9775900D01*
D02*
G37*
G36*
X6649062Y9737800D02*
X6635138D01*
X6622274Y9732472D01*
X6612428Y9722626D01*
X6607100Y9709762D01*
Y9695838D01*
X6612428Y9682974D01*
X6622274Y9673128D01*
X6635138Y9667800D01*
X6649062D01*
X6661926Y9673128D01*
X6671772Y9682974D01*
X6677100Y9695838D01*
Y9709762D01*
X6671772Y9722626D01*
X6661926Y9732472D01*
X6649062Y9737800D01*
D02*
G37*
G36*
X6255362Y9725100D02*
X6241438D01*
X6228574Y9719772D01*
X6218728Y9709926D01*
X6213400Y9697062D01*
Y9683138D01*
X6218728Y9670274D01*
X6228574Y9660428D01*
X6241438Y9655100D01*
X6255362D01*
X6268226Y9660428D01*
X6278072Y9670274D01*
X6283400Y9683138D01*
Y9697062D01*
X6278072Y9709926D01*
X6268226Y9719772D01*
X6255362Y9725100D01*
D02*
G37*
G36*
X11310127Y9726500D02*
X11277873D01*
X11246717Y9718152D01*
X11218783Y9702025D01*
X11195976Y9679217D01*
X11179848Y9651283D01*
X11171500Y9620128D01*
Y9587873D01*
X11179848Y9556717D01*
X11195976Y9528783D01*
X11218783Y9505976D01*
X11246717Y9489848D01*
X11277873Y9481500D01*
X11310127D01*
X11341283Y9489848D01*
X11369217Y9505976D01*
X11392024Y9528783D01*
X11408152Y9556717D01*
X11416500Y9587873D01*
Y9620128D01*
X11408152Y9651283D01*
X11392024Y9679217D01*
X11369217Y9702025D01*
X11341283Y9718152D01*
X11310127Y9726500D01*
D02*
G37*
G36*
X10802127D02*
X10769873D01*
X10738717Y9718152D01*
X10710783Y9702025D01*
X10687976Y9679217D01*
X10671848Y9651283D01*
X10663500Y9620128D01*
Y9587873D01*
X10671848Y9556717D01*
X10687976Y9528783D01*
X10710783Y9505976D01*
X10738717Y9489848D01*
X10769873Y9481500D01*
X10802127D01*
X10833283Y9489848D01*
X10861217Y9505976D01*
X10884024Y9528783D01*
X10900152Y9556717D01*
X10908500Y9587873D01*
Y9620128D01*
X10900152Y9651283D01*
X10884024Y9679217D01*
X10861217Y9702025D01*
X10833283Y9718152D01*
X10802127Y9726500D01*
D02*
G37*
G36*
X4274162Y9521900D02*
X4260238D01*
X4247374Y9516572D01*
X4237528Y9506726D01*
X4232200Y9493862D01*
Y9479938D01*
X4237528Y9467074D01*
X4247374Y9457228D01*
X4260238Y9451900D01*
X4274162D01*
X4287026Y9457228D01*
X4296872Y9467074D01*
X4302200Y9479938D01*
Y9493862D01*
X4296872Y9506726D01*
X4287026Y9516572D01*
X4274162Y9521900D01*
D02*
G37*
G36*
X3588362Y9471100D02*
X3574438D01*
X3561574Y9465772D01*
X3551728Y9455926D01*
X3546400Y9443062D01*
Y9429138D01*
X3551728Y9416274D01*
X3561574Y9406428D01*
X3574438Y9401100D01*
X3588362D01*
X3601226Y9406428D01*
X3611072Y9416274D01*
X3616400Y9429138D01*
Y9443062D01*
X3611072Y9455926D01*
X3601226Y9465772D01*
X3588362Y9471100D01*
D02*
G37*
G36*
X10687662Y9445700D02*
X10673738D01*
X10660874Y9440372D01*
X10651028Y9430526D01*
X10645700Y9417662D01*
Y9403738D01*
X10651028Y9390874D01*
X10660874Y9381028D01*
X10673738Y9375700D01*
X10687662D01*
X10700526Y9381028D01*
X10710372Y9390874D01*
X10715700Y9403738D01*
Y9417662D01*
X10710372Y9430526D01*
X10700526Y9440372D01*
X10687662Y9445700D01*
D02*
G37*
G36*
X7030062Y9407600D02*
X7016138D01*
X7003274Y9402272D01*
X6993428Y9392426D01*
X6988100Y9379562D01*
Y9365638D01*
X6993428Y9352774D01*
X6994787Y9351416D01*
X6987593Y9340649D01*
X6979262Y9344100D01*
X6972979D01*
X6970742Y9346230D01*
X6965539Y9356800D01*
X6969200Y9365638D01*
Y9379562D01*
X6963872Y9392426D01*
X6954026Y9402272D01*
X6941162Y9407600D01*
X6927238D01*
X6914374Y9402272D01*
X6904528Y9392426D01*
X6899200Y9379562D01*
Y9365638D01*
X6902861Y9356800D01*
X6897658Y9346230D01*
X6895421Y9344100D01*
X6889138D01*
X6876274Y9338772D01*
X6866428Y9328926D01*
X6861100Y9316062D01*
Y9302138D01*
X6866428Y9289274D01*
X6876274Y9279428D01*
X6889138Y9274100D01*
X6903062D01*
X6915926Y9279428D01*
X6925772Y9289274D01*
X6927327Y9293029D01*
X6941073D01*
X6942628Y9289274D01*
X6952474Y9279428D01*
X6965338Y9274100D01*
X6979262D01*
X6987593Y9277551D01*
X6994787Y9266784D01*
X6993428Y9265426D01*
X6988100Y9252562D01*
Y9238638D01*
X6993428Y9225774D01*
X7003274Y9215928D01*
X7016138Y9210600D01*
X7030062D01*
X7042926Y9215928D01*
X7052772Y9225774D01*
X7058100Y9238638D01*
Y9252562D01*
X7052772Y9265426D01*
X7042926Y9275272D01*
X7030062Y9280600D01*
X7016138D01*
X7007807Y9277149D01*
X7000613Y9287916D01*
X7001972Y9289274D01*
X7007300Y9302138D01*
Y9316062D01*
X7001972Y9328926D01*
X7000613Y9330284D01*
X7007807Y9341051D01*
X7016138Y9337600D01*
X7030062D01*
X7042926Y9342928D01*
X7052772Y9352774D01*
X7058100Y9365638D01*
Y9379562D01*
X7052772Y9392426D01*
X7042926Y9402272D01*
X7030062Y9407600D01*
D02*
G37*
G36*
X7588862D02*
X7574938D01*
X7562074Y9402272D01*
X7552228Y9392426D01*
X7546900Y9379562D01*
Y9365638D01*
X7552228Y9352774D01*
X7562074Y9342928D01*
X7574938Y9337600D01*
X7588862D01*
X7601726Y9342928D01*
X7611572Y9352774D01*
X7616900Y9365638D01*
Y9379562D01*
X7611572Y9392426D01*
X7601726Y9402272D01*
X7588862Y9407600D01*
D02*
G37*
G36*
X7411062D02*
X7397138D01*
X7384274Y9402272D01*
X7374428Y9392426D01*
X7369100Y9379562D01*
Y9365638D01*
X7374428Y9352774D01*
X7384274Y9342928D01*
X7397138Y9337600D01*
X7411062D01*
X7423926Y9342928D01*
X7433772Y9352774D01*
X7439100Y9365638D01*
Y9379562D01*
X7433772Y9392426D01*
X7423926Y9402272D01*
X7411062Y9407600D01*
D02*
G37*
G36*
X7233262D02*
X7219338D01*
X7206474Y9402272D01*
X7196628Y9392426D01*
X7191300Y9379562D01*
Y9365638D01*
X7196628Y9352774D01*
X7206474Y9342928D01*
X7219338Y9337600D01*
X7233262D01*
X7246126Y9342928D01*
X7255972Y9352774D01*
X7261300Y9365638D01*
Y9379562D01*
X7255972Y9392426D01*
X7246126Y9402272D01*
X7233262Y9407600D01*
D02*
G37*
G36*
X10535262Y9382200D02*
X10521338D01*
X10508474Y9376872D01*
X10498628Y9367026D01*
X10493300Y9354162D01*
Y9340238D01*
X10498628Y9327374D01*
X10508474Y9317528D01*
X10521338Y9312200D01*
X10535262D01*
X10548126Y9317528D01*
X10557972Y9327374D01*
X10563300Y9340238D01*
Y9354162D01*
X10557972Y9367026D01*
X10548126Y9376872D01*
X10535262Y9382200D01*
D02*
G37*
G36*
X10687662Y9331400D02*
X10673738D01*
X10660874Y9326072D01*
X10651028Y9316226D01*
X10645700Y9303362D01*
Y9289438D01*
X10651028Y9276574D01*
X10660874Y9266728D01*
X10673738Y9261400D01*
X10687662D01*
X10700526Y9266728D01*
X10710372Y9276574D01*
X10715700Y9289438D01*
Y9303362D01*
X10710372Y9316226D01*
X10700526Y9326072D01*
X10687662Y9331400D01*
D02*
G37*
G36*
X7741262Y9318700D02*
X7727338D01*
X7714474Y9313372D01*
X7704628Y9303526D01*
X7699300Y9290662D01*
Y9276738D01*
X7704628Y9263874D01*
X7714474Y9254028D01*
X7727338Y9248700D01*
X7741262D01*
X7754126Y9254028D01*
X7763972Y9263874D01*
X7769300Y9276738D01*
Y9290662D01*
X7763972Y9303526D01*
X7754126Y9313372D01*
X7741262Y9318700D01*
D02*
G37*
G36*
X11155000Y9465000D02*
X10925000D01*
Y9235000D01*
X11155000D01*
Y9465000D01*
D02*
G37*
G36*
X7461862Y9280600D02*
X7447938D01*
X7435074Y9275272D01*
X7425228Y9265426D01*
X7419900Y9252562D01*
Y9238638D01*
X7425228Y9225774D01*
X7435074Y9215928D01*
X7447938Y9210600D01*
X7461862D01*
X7474726Y9215928D01*
X7484572Y9225774D01*
X7489900Y9238638D01*
Y9252562D01*
X7484572Y9265426D01*
X7474726Y9275272D01*
X7461862Y9280600D01*
D02*
G37*
G36*
X7271362D02*
X7257438D01*
X7244574Y9275272D01*
X7234728Y9265426D01*
X7229400Y9252562D01*
Y9238638D01*
X7234728Y9225774D01*
X7244574Y9215928D01*
X7257438Y9210600D01*
X7271362D01*
X7284226Y9215928D01*
X7294072Y9225774D01*
X7299400Y9238638D01*
Y9252562D01*
X7294072Y9265426D01*
X7284226Y9275272D01*
X7271362Y9280600D01*
D02*
G37*
G36*
X10433662Y9267900D02*
X10419738D01*
X10406874Y9262572D01*
X10397028Y9252726D01*
X10391700Y9239862D01*
Y9225938D01*
X10397028Y9213074D01*
X10406874Y9203228D01*
X10419738Y9197900D01*
X10433662D01*
X10446526Y9203228D01*
X10456372Y9213074D01*
X10461700Y9225938D01*
Y9239862D01*
X10456372Y9252726D01*
X10446526Y9262572D01*
X10433662Y9267900D01*
D02*
G37*
G36*
X7601562Y9255200D02*
X7587638D01*
X7574774Y9249872D01*
X7564928Y9240026D01*
X7559600Y9227162D01*
Y9213238D01*
X7564928Y9200374D01*
X7574774Y9190528D01*
X7587638Y9185200D01*
X7601562D01*
X7614426Y9190528D01*
X7624272Y9200374D01*
X7629600Y9213238D01*
Y9227162D01*
X7624272Y9240026D01*
X7614426Y9249872D01*
X7601562Y9255200D01*
D02*
G37*
G36*
X6839562Y9229800D02*
X6825638D01*
X6812774Y9224472D01*
X6802928Y9214626D01*
X6797600Y9201762D01*
Y9187838D01*
X6802928Y9174974D01*
X6812774Y9165128D01*
X6825638Y9159800D01*
X6839562D01*
X6852426Y9165128D01*
X6862272Y9174974D01*
X6867600Y9187838D01*
Y9201762D01*
X6862272Y9214626D01*
X6852426Y9224472D01*
X6839562Y9229800D01*
D02*
G37*
G36*
X7931762Y9217100D02*
X7917838D01*
X7904974Y9211772D01*
X7895128Y9201926D01*
X7889800Y9189062D01*
Y9175138D01*
X7895128Y9162274D01*
X7904974Y9152428D01*
X7917838Y9147100D01*
X7931762D01*
X7944626Y9152428D01*
X7954472Y9162274D01*
X7959800Y9175138D01*
Y9189062D01*
X7954472Y9201926D01*
X7944626Y9211772D01*
X7931762Y9217100D01*
D02*
G37*
G36*
X10497162Y9179000D02*
X10483238D01*
X10470374Y9173672D01*
X10460528Y9163826D01*
X10455200Y9150962D01*
Y9137038D01*
X10460528Y9124174D01*
X10470374Y9114328D01*
X10483238Y9109000D01*
X10497162D01*
X10510026Y9114328D01*
X10519872Y9124174D01*
X10525200Y9137038D01*
Y9150962D01*
X10519872Y9163826D01*
X10510026Y9173672D01*
X10497162Y9179000D01*
D02*
G37*
G36*
X3829662D02*
X3815738D01*
X3802874Y9173672D01*
X3793028Y9163826D01*
X3787700Y9150962D01*
Y9137038D01*
X3793028Y9124174D01*
X3802874Y9114328D01*
X3815738Y9109000D01*
X3829662D01*
X3842526Y9114328D01*
X3852372Y9124174D01*
X3857700Y9137038D01*
Y9150962D01*
X3852372Y9163826D01*
X3842526Y9173672D01*
X3829662Y9179000D01*
D02*
G37*
G36*
X10293962Y9128200D02*
X10280038D01*
X10267174Y9122872D01*
X10257328Y9113026D01*
X10252000Y9100162D01*
Y9086238D01*
X10257328Y9073374D01*
X10267174Y9063528D01*
X10280038Y9058200D01*
X10293962D01*
X10306826Y9063528D01*
X10316672Y9073374D01*
X10322000Y9086238D01*
Y9100162D01*
X10316672Y9113026D01*
X10306826Y9122872D01*
X10293962Y9128200D01*
D02*
G37*
G36*
X8020662D02*
X8006738D01*
X7993874Y9122872D01*
X7984028Y9113026D01*
X7978700Y9100162D01*
Y9086238D01*
X7984028Y9073374D01*
X7993874Y9063528D01*
X8006738Y9058200D01*
X8020662D01*
X8033526Y9063528D01*
X8043372Y9073374D01*
X8048700Y9086238D01*
Y9100162D01*
X8043372Y9113026D01*
X8033526Y9122872D01*
X8020662Y9128200D01*
D02*
G37*
G36*
X3039554Y9132600D02*
X3022646D01*
X3007025Y9126130D01*
X2995070Y9114174D01*
X2988600Y9098554D01*
Y9081646D01*
X2995070Y9066026D01*
X3007025Y9054070D01*
X3022646Y9047600D01*
X3039554D01*
X3055174Y9054070D01*
X3067130Y9066026D01*
X3073600Y9081646D01*
Y9098554D01*
X3067130Y9114174D01*
X3055174Y9126130D01*
X3039554Y9132600D01*
D02*
G37*
G36*
X9760562Y9102800D02*
X9746638D01*
X9733774Y9097472D01*
X9723928Y9087626D01*
X9718600Y9074762D01*
Y9060838D01*
X9723928Y9047974D01*
X9733774Y9038128D01*
X9746638Y9032800D01*
X9760562D01*
X9773426Y9038128D01*
X9783272Y9047974D01*
X9788600Y9060838D01*
Y9074762D01*
X9783272Y9087626D01*
X9773426Y9097472D01*
X9760562Y9102800D01*
D02*
G37*
G36*
X9595462D02*
X9581538D01*
X9568674Y9097472D01*
X9558828Y9087626D01*
X9553500Y9074762D01*
Y9060838D01*
X9558828Y9047974D01*
X9568674Y9038128D01*
X9581538Y9032800D01*
X9595462D01*
X9608326Y9038128D01*
X9618172Y9047974D01*
X9623500Y9060838D01*
Y9074762D01*
X9618172Y9087626D01*
X9608326Y9097472D01*
X9595462Y9102800D01*
D02*
G37*
G36*
X9443062D02*
X9429138D01*
X9416274Y9097472D01*
X9406428Y9087626D01*
X9401100Y9074762D01*
Y9060838D01*
X9406428Y9047974D01*
X9416274Y9038128D01*
X9429138Y9032800D01*
X9443062D01*
X9455926Y9038128D01*
X9465772Y9047974D01*
X9471100Y9060838D01*
Y9074762D01*
X9465772Y9087626D01*
X9455926Y9097472D01*
X9443062Y9102800D01*
D02*
G37*
G36*
X9252562D02*
X9238638D01*
X9225774Y9097472D01*
X9215928Y9087626D01*
X9210600Y9074762D01*
Y9060838D01*
X9215928Y9047974D01*
X9225774Y9038128D01*
X9238638Y9032800D01*
X9252562D01*
X9265426Y9038128D01*
X9275272Y9047974D01*
X9280600Y9060838D01*
Y9074762D01*
X9275272Y9087626D01*
X9265426Y9097472D01*
X9252562Y9102800D01*
D02*
G37*
G36*
X9100162D02*
X9086238D01*
X9073374Y9097472D01*
X9063528Y9087626D01*
X9058200Y9074762D01*
Y9060838D01*
X9063528Y9047974D01*
X9073374Y9038128D01*
X9086238Y9032800D01*
X9100162D01*
X9113026Y9038128D01*
X9122872Y9047974D01*
X9128200Y9060838D01*
Y9074762D01*
X9122872Y9087626D01*
X9113026Y9097472D01*
X9100162Y9102800D01*
D02*
G37*
G36*
X8922362D02*
X8908438D01*
X8895574Y9097472D01*
X8885728Y9087626D01*
X8880400Y9074762D01*
Y9060838D01*
X8885728Y9047974D01*
X8895574Y9038128D01*
X8908438Y9032800D01*
X8922362D01*
X8935226Y9038128D01*
X8945072Y9047974D01*
X8950400Y9060838D01*
Y9074762D01*
X8945072Y9087626D01*
X8935226Y9097472D01*
X8922362Y9102800D01*
D02*
G37*
G36*
X8769962D02*
X8756038D01*
X8743174Y9097472D01*
X8733328Y9087626D01*
X8728000Y9074762D01*
Y9060838D01*
X8733328Y9047974D01*
X8743174Y9038128D01*
X8756038Y9032800D01*
X8769962D01*
X8782826Y9038128D01*
X8792672Y9047974D01*
X8798000Y9060838D01*
Y9074762D01*
X8792672Y9087626D01*
X8782826Y9097472D01*
X8769962Y9102800D01*
D02*
G37*
G36*
X8617562D02*
X8603638D01*
X8590774Y9097472D01*
X8580928Y9087626D01*
X8575600Y9074762D01*
Y9060838D01*
X8580928Y9047974D01*
X8590774Y9038128D01*
X8603638Y9032800D01*
X8617562D01*
X8630426Y9038128D01*
X8640272Y9047974D01*
X8645600Y9060838D01*
Y9074762D01*
X8640272Y9087626D01*
X8630426Y9097472D01*
X8617562Y9102800D01*
D02*
G37*
G36*
X8439762D02*
X8425838D01*
X8412974Y9097472D01*
X8403128Y9087626D01*
X8397800Y9074762D01*
Y9060838D01*
X8403128Y9047974D01*
X8412974Y9038128D01*
X8425838Y9032800D01*
X8439762D01*
X8452626Y9038128D01*
X8462472Y9047974D01*
X8467800Y9060838D01*
Y9074762D01*
X8462472Y9087626D01*
X8452626Y9097472D01*
X8439762Y9102800D01*
D02*
G37*
G36*
X8261962D02*
X8248038D01*
X8235174Y9097472D01*
X8225328Y9087626D01*
X8220000Y9074762D01*
Y9060838D01*
X8225328Y9047974D01*
X8235174Y9038128D01*
X8248038Y9032800D01*
X8261962D01*
X8274826Y9038128D01*
X8284672Y9047974D01*
X8290000Y9060838D01*
Y9074762D01*
X8284672Y9087626D01*
X8274826Y9097472D01*
X8261962Y9102800D01*
D02*
G37*
G36*
X10001862Y9090100D02*
X9987938D01*
X9975074Y9084772D01*
X9965228Y9074926D01*
X9959900Y9062062D01*
Y9048138D01*
X9965228Y9035274D01*
X9975074Y9025428D01*
X9987938Y9020100D01*
X10001862D01*
X10014726Y9025428D01*
X10024572Y9035274D01*
X10029900Y9048138D01*
Y9062062D01*
X10024572Y9074926D01*
X10014726Y9084772D01*
X10001862Y9090100D01*
D02*
G37*
G36*
X7919062Y9064700D02*
X7905138D01*
X7892274Y9059372D01*
X7882428Y9049526D01*
X7877100Y9036662D01*
Y9022738D01*
X7882428Y9009874D01*
X7892274Y9000028D01*
X7905138Y8994700D01*
X7919062D01*
X7931926Y9000028D01*
X7941772Y9009874D01*
X7947100Y9022738D01*
Y9036662D01*
X7941772Y9049526D01*
X7931926Y9059372D01*
X7919062Y9064700D01*
D02*
G37*
G36*
X7703162D02*
X7689238D01*
X7676374Y9059372D01*
X7666528Y9049526D01*
X7661200Y9036662D01*
Y9022738D01*
X7666528Y9009874D01*
X7676374Y9000028D01*
X7689238Y8994700D01*
X7703162D01*
X7716026Y9000028D01*
X7725872Y9009874D01*
X7731200Y9022738D01*
Y9036662D01*
X7725872Y9049526D01*
X7716026Y9059372D01*
X7703162Y9064700D01*
D02*
G37*
G36*
X11310127Y9218500D02*
X11277873D01*
X11246717Y9210152D01*
X11218783Y9194025D01*
X11195976Y9171217D01*
X11179848Y9143283D01*
X11171500Y9112128D01*
Y9079873D01*
X11179848Y9048717D01*
X11195976Y9020783D01*
X11218783Y8997976D01*
X11246717Y8981848D01*
X11277873Y8973500D01*
X11310127D01*
X11341283Y8981848D01*
X11369217Y8997976D01*
X11392024Y9020783D01*
X11408152Y9048717D01*
X11416500Y9079873D01*
Y9112128D01*
X11408152Y9143283D01*
X11392024Y9171217D01*
X11369217Y9194025D01*
X11341283Y9210152D01*
X11310127Y9218500D01*
D02*
G37*
G36*
X10802127D02*
X10769873D01*
X10738717Y9210152D01*
X10710783Y9194025D01*
X10687976Y9171217D01*
X10671848Y9143283D01*
X10663500Y9112128D01*
Y9079873D01*
X10671848Y9048717D01*
X10687976Y9020783D01*
X10710783Y8997976D01*
X10738717Y8981848D01*
X10769873Y8973500D01*
X10802127D01*
X10833283Y8981848D01*
X10861217Y8997976D01*
X10884024Y9020783D01*
X10900152Y9048717D01*
X10908500Y9079873D01*
Y9112128D01*
X10900152Y9143283D01*
X10884024Y9171217D01*
X10861217Y9194025D01*
X10833283Y9210152D01*
X10802127Y9218500D01*
D02*
G37*
G36*
X10332062Y9013900D02*
X10318138D01*
X10305274Y9008572D01*
X10295428Y8998726D01*
X10290100Y8985862D01*
Y8971938D01*
X10295428Y8959074D01*
X10305274Y8949228D01*
X10318138Y8943900D01*
X10332062D01*
X10344926Y8949228D01*
X10354772Y8959074D01*
X10360100Y8971938D01*
Y8985862D01*
X10354772Y8998726D01*
X10344926Y9008572D01*
X10332062Y9013900D01*
D02*
G37*
G36*
X10128862Y8988500D02*
X10114938D01*
X10102074Y8983172D01*
X10092228Y8973326D01*
X10086900Y8960462D01*
Y8946538D01*
X10092228Y8933674D01*
X10102074Y8923828D01*
X10114938Y8918500D01*
X10128862D01*
X10141726Y8923828D01*
X10151572Y8933674D01*
X10156900Y8946538D01*
Y8960462D01*
X10151572Y8973326D01*
X10141726Y8983172D01*
X10128862Y8988500D01*
D02*
G37*
G36*
X8007962D02*
X7994038D01*
X7981174Y8983172D01*
X7971328Y8973326D01*
X7966000Y8960462D01*
Y8946538D01*
X7971328Y8933674D01*
X7981174Y8923828D01*
X7994038Y8918500D01*
X8007962D01*
X8020826Y8923828D01*
X8030672Y8933674D01*
X8036000Y8946538D01*
Y8960462D01*
X8030672Y8973326D01*
X8020826Y8983172D01*
X8007962Y8988500D01*
D02*
G37*
G36*
X8198462Y8975800D02*
X8184538D01*
X8171674Y8970472D01*
X8161828Y8960626D01*
X8156500Y8947762D01*
Y8933838D01*
X8161828Y8920974D01*
X8171674Y8911128D01*
X8184538Y8905800D01*
X8198462D01*
X8211326Y8911128D01*
X8221172Y8920974D01*
X8226500Y8933838D01*
Y8947762D01*
X8221172Y8960626D01*
X8211326Y8970472D01*
X8198462Y8975800D01*
D02*
G37*
G36*
X8338162Y8925000D02*
X8324238D01*
X8311374Y8919672D01*
X8301528Y8909826D01*
X8296200Y8896962D01*
Y8883038D01*
X8301528Y8870174D01*
X8311374Y8860328D01*
X8324238Y8855000D01*
X8338162D01*
X8351026Y8860328D01*
X8360872Y8870174D01*
X8366200Y8883038D01*
Y8896962D01*
X8360872Y8909826D01*
X8351026Y8919672D01*
X8338162Y8925000D01*
D02*
G37*
G36*
X9925662Y8912300D02*
X9911738D01*
X9898874Y8906972D01*
X9889028Y8897126D01*
X9883700Y8884262D01*
Y8870338D01*
X9889028Y8857474D01*
X9898874Y8847628D01*
X9911738Y8842300D01*
X9925662D01*
X9938526Y8847628D01*
X9948372Y8857474D01*
X9953700Y8870338D01*
Y8884262D01*
X9948372Y8897126D01*
X9938526Y8906972D01*
X9925662Y8912300D01*
D02*
G37*
G36*
X9735162D02*
X9721238D01*
X9708374Y8906972D01*
X9698528Y8897126D01*
X9693200Y8884262D01*
Y8870338D01*
X9698528Y8857474D01*
X9708374Y8847628D01*
X9721238Y8842300D01*
X9735162D01*
X9748026Y8847628D01*
X9757872Y8857474D01*
X9763200Y8870338D01*
Y8884262D01*
X9757872Y8897126D01*
X9748026Y8906972D01*
X9735162Y8912300D01*
D02*
G37*
G36*
X9582762D02*
X9568838D01*
X9555974Y8906972D01*
X9546128Y8897126D01*
X9540800Y8884262D01*
Y8870338D01*
X9546128Y8857474D01*
X9555974Y8847628D01*
X9568838Y8842300D01*
X9582762D01*
X9595626Y8847628D01*
X9605472Y8857474D01*
X9610800Y8870338D01*
Y8884262D01*
X9605472Y8897126D01*
X9595626Y8906972D01*
X9582762Y8912300D01*
D02*
G37*
G36*
X9430362D02*
X9416438D01*
X9403574Y8906972D01*
X9393728Y8897126D01*
X9388400Y8884262D01*
Y8870338D01*
X9393728Y8857474D01*
X9403574Y8847628D01*
X9416438Y8842300D01*
X9430362D01*
X9443226Y8847628D01*
X9453072Y8857474D01*
X9458400Y8870338D01*
Y8884262D01*
X9453072Y8897126D01*
X9443226Y8906972D01*
X9430362Y8912300D01*
D02*
G37*
G36*
X9227162D02*
X9213238D01*
X9200374Y8906972D01*
X9190528Y8897126D01*
X9185200Y8884262D01*
Y8870338D01*
X9190528Y8857474D01*
X9200374Y8847628D01*
X9213238Y8842300D01*
X9227162D01*
X9240026Y8847628D01*
X9249872Y8857474D01*
X9255200Y8870338D01*
Y8884262D01*
X9249872Y8897126D01*
X9240026Y8906972D01*
X9227162Y8912300D01*
D02*
G37*
G36*
X8998562D02*
X8984638D01*
X8971774Y8906972D01*
X8961928Y8897126D01*
X8956600Y8884262D01*
Y8870338D01*
X8961928Y8857474D01*
X8971774Y8847628D01*
X8984638Y8842300D01*
X8998562D01*
X9011426Y8847628D01*
X9021272Y8857474D01*
X9026600Y8870338D01*
Y8884262D01*
X9021272Y8897126D01*
X9011426Y8906972D01*
X8998562Y8912300D01*
D02*
G37*
G36*
X8769962D02*
X8756038D01*
X8743174Y8906972D01*
X8733328Y8897126D01*
X8728000Y8884262D01*
Y8870338D01*
X8733328Y8857474D01*
X8743174Y8847628D01*
X8756038Y8842300D01*
X8769962D01*
X8782826Y8847628D01*
X8792672Y8857474D01*
X8798000Y8870338D01*
Y8884262D01*
X8792672Y8897126D01*
X8782826Y8906972D01*
X8769962Y8912300D01*
D02*
G37*
G36*
X8566762D02*
X8552838D01*
X8539974Y8906972D01*
X8530128Y8897126D01*
X8524800Y8884262D01*
Y8870338D01*
X8530128Y8857474D01*
X8539974Y8847628D01*
X8552838Y8842300D01*
X8566762D01*
X8579626Y8847628D01*
X8589472Y8857474D01*
X8594800Y8870338D01*
Y8884262D01*
X8589472Y8897126D01*
X8579626Y8906972D01*
X8566762Y8912300D01*
D02*
G37*
G36*
X7665062Y8823400D02*
X7651138D01*
X7638274Y8818072D01*
X7628428Y8808226D01*
X7623100Y8795362D01*
Y8781438D01*
X7628428Y8768574D01*
X7638274Y8758728D01*
X7651138Y8753400D01*
X7665062D01*
X7677926Y8758728D01*
X7687772Y8768574D01*
X7693100Y8781438D01*
Y8795362D01*
X7687772Y8808226D01*
X7677926Y8818072D01*
X7665062Y8823400D01*
D02*
G37*
G36*
X2931940Y8856100D02*
X2910060D01*
X2889845Y8847727D01*
X2874373Y8832255D01*
X2866000Y8812040D01*
Y8790160D01*
X2874373Y8769945D01*
X2889845Y8754473D01*
X2910060Y8746100D01*
X2931940D01*
X2952155Y8754473D01*
X2967627Y8769945D01*
X2976000Y8790160D01*
Y8812040D01*
X2967627Y8832255D01*
X2952155Y8847727D01*
X2931940Y8856100D01*
D02*
G37*
G36*
X3651862Y8785300D02*
X3637938D01*
X3625074Y8779972D01*
X3615228Y8770126D01*
X3609900Y8757262D01*
Y8743338D01*
X3615228Y8730474D01*
X3625074Y8720628D01*
X3637938Y8715300D01*
X3651862D01*
X3664726Y8720628D01*
X3674572Y8730474D01*
X3679900Y8743338D01*
Y8757262D01*
X3674572Y8770126D01*
X3664726Y8779972D01*
X3651862Y8785300D01*
D02*
G37*
G36*
X7741262D02*
X7727338D01*
X7714474Y8779972D01*
X7704628Y8770126D01*
X7699300Y8757262D01*
Y8743338D01*
X7702961Y8734500D01*
X7697758Y8723930D01*
X7695521Y8721800D01*
X7689238D01*
X7676374Y8716472D01*
X7666528Y8706626D01*
X7664973Y8702871D01*
X7651227D01*
X7649672Y8706626D01*
X7639826Y8716472D01*
X7626962Y8721800D01*
X7613038D01*
X7600174Y8716472D01*
X7590328Y8706626D01*
X7585000Y8693762D01*
Y8679838D01*
X7590328Y8666974D01*
X7600174Y8657128D01*
X7613038Y8651800D01*
X7619321D01*
X7621558Y8649670D01*
X7626761Y8639100D01*
X7623100Y8630262D01*
Y8616338D01*
X7628428Y8603474D01*
X7638274Y8593628D01*
X7651138Y8588300D01*
X7665062D01*
X7677926Y8593628D01*
X7687772Y8603474D01*
X7693100Y8616338D01*
Y8630262D01*
X7689439Y8639100D01*
X7694642Y8649670D01*
X7696879Y8651800D01*
X7703162D01*
X7711493Y8655251D01*
X7718687Y8644484D01*
X7717328Y8643126D01*
X7712000Y8630262D01*
Y8616338D01*
X7717328Y8603474D01*
X7727174Y8593628D01*
X7740038Y8588300D01*
X7753962D01*
X7766826Y8593628D01*
X7776672Y8603474D01*
X7782000Y8616338D01*
Y8630262D01*
X7776672Y8643126D01*
X7766826Y8652972D01*
X7753962Y8658300D01*
X7740038D01*
X7731707Y8654849D01*
X7724513Y8665616D01*
X7725872Y8666974D01*
X7731200Y8679838D01*
Y8693762D01*
X7727539Y8702600D01*
X7732742Y8713170D01*
X7734979Y8715300D01*
X7741262D01*
X7754126Y8720628D01*
X7763972Y8730474D01*
X7769300Y8743338D01*
Y8757262D01*
X7763972Y8770126D01*
X7754126Y8779972D01*
X7741262Y8785300D01*
D02*
G37*
G36*
X9404962Y8772600D02*
X9391038D01*
X9378174Y8767272D01*
X9368328Y8757426D01*
X9363000Y8744562D01*
Y8730638D01*
X9368328Y8717774D01*
X9378174Y8707928D01*
X9391038Y8702600D01*
X9404962D01*
X9417826Y8707928D01*
X9427672Y8717774D01*
X9433000Y8730638D01*
Y8744562D01*
X9427672Y8757426D01*
X9417826Y8767272D01*
X9404962Y8772600D01*
D02*
G37*
G36*
X9138262D02*
X9124338D01*
X9111474Y8767272D01*
X9101628Y8757426D01*
X9096300Y8744562D01*
Y8730638D01*
X9101628Y8717774D01*
X9111474Y8707928D01*
X9124338Y8702600D01*
X9138262D01*
X9151126Y8707928D01*
X9160972Y8717774D01*
X9166300Y8730638D01*
Y8744562D01*
X9160972Y8757426D01*
X9151126Y8767272D01*
X9138262Y8772600D01*
D02*
G37*
G36*
X8947762D02*
X8933838D01*
X8920974Y8767272D01*
X8911128Y8757426D01*
X8905800Y8744562D01*
Y8730638D01*
X8911128Y8717774D01*
X8920974Y8707928D01*
X8933838Y8702600D01*
X8947762D01*
X8960626Y8707928D01*
X8970472Y8717774D01*
X8975800Y8730638D01*
Y8744562D01*
X8970472Y8757426D01*
X8960626Y8767272D01*
X8947762Y8772600D01*
D02*
G37*
G36*
X8604862D02*
X8590938D01*
X8578074Y8767272D01*
X8568228Y8757426D01*
X8562900Y8744562D01*
Y8730638D01*
X8568228Y8717774D01*
X8578074Y8707928D01*
X8590938Y8702600D01*
X8604862D01*
X8617726Y8707928D01*
X8627572Y8717774D01*
X8632900Y8730638D01*
Y8744562D01*
X8627572Y8757426D01*
X8617726Y8767272D01*
X8604862Y8772600D01*
D02*
G37*
G36*
X8376262D02*
X8362338D01*
X8349474Y8767272D01*
X8339628Y8757426D01*
X8334300Y8744562D01*
Y8730638D01*
X8339628Y8717774D01*
X8349474Y8707928D01*
X8362338Y8702600D01*
X8376262D01*
X8389126Y8707928D01*
X8398972Y8717774D01*
X8404300Y8730638D01*
Y8744562D01*
X8398972Y8757426D01*
X8389126Y8767272D01*
X8376262Y8772600D01*
D02*
G37*
G36*
X8185762D02*
X8171838D01*
X8158974Y8767272D01*
X8149128Y8757426D01*
X8143800Y8744562D01*
Y8730638D01*
X8149128Y8717774D01*
X8158974Y8707928D01*
X8171838Y8702600D01*
X8185762D01*
X8198626Y8707928D01*
X8208472Y8717774D01*
X8213800Y8730638D01*
Y8744562D01*
X8208472Y8757426D01*
X8198626Y8767272D01*
X8185762Y8772600D01*
D02*
G37*
G36*
X7969862D02*
X7955938D01*
X7943074Y8767272D01*
X7933228Y8757426D01*
X7927900Y8744562D01*
Y8730638D01*
X7933228Y8717774D01*
X7943074Y8707928D01*
X7955938Y8702600D01*
X7969862D01*
X7982726Y8707928D01*
X7992572Y8717774D01*
X7997900Y8730638D01*
Y8744562D01*
X7992572Y8757426D01*
X7982726Y8767272D01*
X7969862Y8772600D01*
D02*
G37*
G36*
X3516140Y8805300D02*
X3494260D01*
X3474045Y8796927D01*
X3458573Y8781455D01*
X3450200Y8761240D01*
Y8739360D01*
X3458573Y8719145D01*
X3474045Y8703673D01*
X3494260Y8695300D01*
X3516140D01*
X3536355Y8703673D01*
X3551827Y8719145D01*
X3560200Y8739360D01*
Y8761240D01*
X3551827Y8781455D01*
X3536355Y8796927D01*
X3516140Y8805300D01*
D02*
G37*
G36*
X9620862Y8759900D02*
X9606938D01*
X9594074Y8754572D01*
X9584228Y8744726D01*
X9578900Y8731862D01*
Y8717938D01*
X9584228Y8705074D01*
X9594074Y8695228D01*
X9606938Y8689900D01*
X9620862D01*
X9633726Y8695228D01*
X9643572Y8705074D01*
X9648900Y8717938D01*
Y8731862D01*
X9643572Y8744726D01*
X9633726Y8754572D01*
X9620862Y8759900D01*
D02*
G37*
G36*
X4274162D02*
X4260238D01*
X4247374Y8754572D01*
X4237528Y8744726D01*
X4232200Y8731862D01*
Y8717938D01*
X4237528Y8705074D01*
X4247374Y8695228D01*
X4260238Y8689900D01*
X4274162D01*
X4287026Y8695228D01*
X4296872Y8705074D01*
X4302200Y8717938D01*
Y8731862D01*
X4296872Y8744726D01*
X4287026Y8754572D01*
X4274162Y8759900D01*
D02*
G37*
G36*
X6661762Y8658300D02*
X6647838D01*
X6634974Y8652972D01*
X6625128Y8643126D01*
X6619800Y8630262D01*
Y8616338D01*
X6625128Y8603474D01*
X6634974Y8593628D01*
X6647838Y8588300D01*
X6661762D01*
X6674626Y8593628D01*
X6684472Y8603474D01*
X6689800Y8616338D01*
Y8630262D01*
X6684472Y8643126D01*
X6674626Y8652972D01*
X6661762Y8658300D01*
D02*
G37*
G36*
X9430362Y8645600D02*
X9416438D01*
X9403574Y8640272D01*
X9393728Y8630426D01*
X9388400Y8617562D01*
Y8603638D01*
X9393728Y8590774D01*
X9403574Y8580928D01*
X9416438Y8575600D01*
X9430362D01*
X9443226Y8580928D01*
X9453072Y8590774D01*
X9458400Y8603638D01*
Y8617562D01*
X9453072Y8630426D01*
X9443226Y8640272D01*
X9430362Y8645600D01*
D02*
G37*
G36*
X9277962D02*
X9264038D01*
X9251174Y8640272D01*
X9241328Y8630426D01*
X9236000Y8617562D01*
Y8603638D01*
X9241328Y8590774D01*
X9251174Y8580928D01*
X9264038Y8575600D01*
X9277962D01*
X9290826Y8580928D01*
X9300672Y8590774D01*
X9306000Y8603638D01*
Y8617562D01*
X9300672Y8630426D01*
X9290826Y8640272D01*
X9277962Y8645600D01*
D02*
G37*
G36*
X9036662D02*
X9022738D01*
X9009874Y8640272D01*
X9000028Y8630426D01*
X8994700Y8617562D01*
Y8603638D01*
X9000028Y8590774D01*
X9009874Y8580928D01*
X9022738Y8575600D01*
X9036662D01*
X9049526Y8580928D01*
X9059372Y8590774D01*
X9064700Y8603638D01*
Y8617562D01*
X9059372Y8630426D01*
X9049526Y8640272D01*
X9036662Y8645600D01*
D02*
G37*
G36*
X8833462D02*
X8819538D01*
X8806674Y8640272D01*
X8796828Y8630426D01*
X8791500Y8617562D01*
Y8603638D01*
X8796828Y8590774D01*
X8806674Y8580928D01*
X8819538Y8575600D01*
X8833462D01*
X8846326Y8580928D01*
X8856172Y8590774D01*
X8861500Y8603638D01*
Y8617562D01*
X8856172Y8630426D01*
X8846326Y8640272D01*
X8833462Y8645600D01*
D02*
G37*
G36*
X8515962D02*
X8502038D01*
X8489174Y8640272D01*
X8479328Y8630426D01*
X8474000Y8617562D01*
Y8603638D01*
X8479328Y8590774D01*
X8489174Y8580928D01*
X8502038Y8575600D01*
X8515962D01*
X8528826Y8580928D01*
X8538672Y8590774D01*
X8544000Y8603638D01*
Y8617562D01*
X8538672Y8630426D01*
X8528826Y8640272D01*
X8515962Y8645600D01*
D02*
G37*
G36*
X8388962D02*
X8375038D01*
X8362174Y8640272D01*
X8352328Y8630426D01*
X8347000Y8617562D01*
Y8603638D01*
X8352328Y8590774D01*
X8362174Y8580928D01*
X8375038Y8575600D01*
X8388962D01*
X8401826Y8580928D01*
X8411672Y8590774D01*
X8417000Y8603638D01*
Y8617562D01*
X8411672Y8630426D01*
X8401826Y8640272D01*
X8388962Y8645600D01*
D02*
G37*
G36*
X8185762D02*
X8171838D01*
X8158974Y8640272D01*
X8149128Y8630426D01*
X8143800Y8617562D01*
Y8603638D01*
X8149128Y8590774D01*
X8158974Y8580928D01*
X8171838Y8575600D01*
X8185762D01*
X8198626Y8580928D01*
X8208472Y8590774D01*
X8213800Y8603638D01*
Y8617562D01*
X8208472Y8630426D01*
X8198626Y8640272D01*
X8185762Y8645600D01*
D02*
G37*
G36*
X7969862D02*
X7955938D01*
X7943074Y8640272D01*
X7933228Y8630426D01*
X7927900Y8617562D01*
Y8603638D01*
X7933228Y8590774D01*
X7943074Y8580928D01*
X7955938Y8575600D01*
X7969862D01*
X7982726Y8580928D01*
X7992572Y8590774D01*
X7997900Y8603638D01*
Y8617562D01*
X7992572Y8630426D01*
X7982726Y8640272D01*
X7969862Y8645600D01*
D02*
G37*
G36*
X9760562Y8632900D02*
X9746638D01*
X9733774Y8627572D01*
X9723928Y8617726D01*
X9718600Y8604862D01*
Y8590938D01*
X9723928Y8578074D01*
X9733774Y8568228D01*
X9746638Y8562900D01*
X9760562D01*
X9773426Y8568228D01*
X9783272Y8578074D01*
X9788600Y8590938D01*
Y8604862D01*
X9783272Y8617726D01*
X9773426Y8627572D01*
X9760562Y8632900D01*
D02*
G37*
G36*
X9595462Y8620200D02*
X9581538D01*
X9568674Y8614872D01*
X9558828Y8605026D01*
X9553500Y8592162D01*
Y8578238D01*
X9558828Y8565374D01*
X9568674Y8555528D01*
X9581538Y8550200D01*
X9595462D01*
X9608326Y8555528D01*
X9618172Y8565374D01*
X9623500Y8578238D01*
Y8592162D01*
X9618172Y8605026D01*
X9608326Y8614872D01*
X9595462Y8620200D01*
D02*
G37*
G36*
X3385162Y8607500D02*
X3371238D01*
X3358374Y8602172D01*
X3348528Y8592326D01*
X3343200Y8579462D01*
Y8565538D01*
X3348528Y8552674D01*
X3358374Y8542828D01*
X3371238Y8537500D01*
X3385162D01*
X3398026Y8542828D01*
X3407872Y8552674D01*
X3413200Y8565538D01*
Y8579462D01*
X3407872Y8592326D01*
X3398026Y8602172D01*
X3385162Y8607500D01*
D02*
G37*
G36*
X5607662Y8569400D02*
X5593738D01*
X5580874Y8564072D01*
X5571028Y8554226D01*
X5565700Y8541362D01*
Y8527438D01*
X5571028Y8514574D01*
X5580874Y8504728D01*
X5593738Y8499400D01*
X5607662D01*
X5620526Y8504728D01*
X5630372Y8514574D01*
X5635700Y8527438D01*
Y8541362D01*
X5630372Y8554226D01*
X5620526Y8564072D01*
X5607662Y8569400D01*
D02*
G37*
G36*
X11310127Y8726500D02*
X11277873D01*
X11246717Y8718152D01*
X11218783Y8702025D01*
X11195976Y8679217D01*
X11179848Y8651283D01*
X11171500Y8620128D01*
Y8587873D01*
X11179848Y8556717D01*
X11195976Y8528783D01*
X11218783Y8505976D01*
X11246717Y8489848D01*
X11277873Y8481500D01*
X11310127D01*
X11341283Y8489848D01*
X11369217Y8505976D01*
X11392024Y8528783D01*
X11408152Y8556717D01*
X11416500Y8587873D01*
Y8620128D01*
X11408152Y8651283D01*
X11392024Y8679217D01*
X11369217Y8702025D01*
X11341283Y8718152D01*
X11310127Y8726500D01*
D02*
G37*
G36*
X10802127D02*
X10769873D01*
X10738717Y8718152D01*
X10710783Y8702025D01*
X10687976Y8679217D01*
X10671848Y8651283D01*
X10663500Y8620128D01*
Y8587873D01*
X10671848Y8556717D01*
X10687976Y8528783D01*
X10710783Y8505976D01*
X10738717Y8489848D01*
X10769873Y8481500D01*
X10802127D01*
X10833283Y8489848D01*
X10861217Y8505976D01*
X10884024Y8528783D01*
X10900152Y8556717D01*
X10908500Y8587873D01*
Y8620128D01*
X10900152Y8651283D01*
X10884024Y8679217D01*
X10861217Y8702025D01*
X10833283Y8718152D01*
X10802127Y8726500D01*
D02*
G37*
G36*
X3039554Y8554600D02*
X3022646D01*
X3007025Y8548130D01*
X2995070Y8536174D01*
X2988600Y8520554D01*
Y8503646D01*
X2995070Y8488026D01*
X3007025Y8476070D01*
X3022646Y8469600D01*
X3039554D01*
X3055174Y8476070D01*
X3067130Y8488026D01*
X3073600Y8503646D01*
Y8520554D01*
X3067130Y8536174D01*
X3055174Y8548130D01*
X3039554Y8554600D01*
D02*
G37*
G36*
X3753462Y8518600D02*
X3739538D01*
X3726674Y8513272D01*
X3716828Y8503426D01*
X3711500Y8490562D01*
Y8476638D01*
X3716828Y8463774D01*
X3726674Y8453928D01*
X3739538Y8448600D01*
X3753462D01*
X3766326Y8453928D01*
X3776172Y8463774D01*
X3781500Y8476638D01*
Y8490562D01*
X3776172Y8503426D01*
X3766326Y8513272D01*
X3753462Y8518600D01*
D02*
G37*
G36*
X3385162D02*
X3371238D01*
X3358374Y8513272D01*
X3348528Y8503426D01*
X3343200Y8490562D01*
Y8476638D01*
X3348528Y8463774D01*
X3358374Y8453928D01*
X3371238Y8448600D01*
X3385162D01*
X3398026Y8453928D01*
X3407872Y8463774D01*
X3413200Y8476638D01*
Y8490562D01*
X3407872Y8503426D01*
X3398026Y8513272D01*
X3385162Y8518600D01*
D02*
G37*
G36*
X9887562Y8505900D02*
X9873638D01*
X9860774Y8500572D01*
X9850928Y8490726D01*
X9845600Y8477862D01*
Y8463938D01*
X9850928Y8451074D01*
X9860774Y8441228D01*
X9873638Y8435900D01*
X9887562D01*
X9900426Y8441228D01*
X9910272Y8451074D01*
X9915600Y8463938D01*
Y8477862D01*
X9910272Y8490726D01*
X9900426Y8500572D01*
X9887562Y8505900D01*
D02*
G37*
G36*
X9722462Y8493200D02*
X9708538D01*
X9695674Y8487872D01*
X9685828Y8478026D01*
X9680500Y8465162D01*
Y8451238D01*
X9685828Y8438374D01*
X9695674Y8428528D01*
X9708538Y8423200D01*
X9722462D01*
X9735326Y8428528D01*
X9745172Y8438374D01*
X9750500Y8451238D01*
Y8465162D01*
X9745172Y8478026D01*
X9735326Y8487872D01*
X9722462Y8493200D01*
D02*
G37*
G36*
X10319362Y8455100D02*
X10305438D01*
X10292574Y8449772D01*
X10282728Y8439926D01*
X10277400Y8427062D01*
Y8413138D01*
X10282728Y8400274D01*
X10292574Y8390428D01*
X10305438Y8385100D01*
X10319362D01*
X10332226Y8390428D01*
X10342072Y8400274D01*
X10347400Y8413138D01*
Y8427062D01*
X10342072Y8439926D01*
X10332226Y8449772D01*
X10319362Y8455100D01*
D02*
G37*
G36*
X10166962D02*
X10153038D01*
X10140174Y8449772D01*
X10130328Y8439926D01*
X10125000Y8427062D01*
Y8413138D01*
X10130328Y8400274D01*
X10140174Y8390428D01*
X10153038Y8385100D01*
X10166962D01*
X10179826Y8390428D01*
X10189672Y8400274D01*
X10195000Y8413138D01*
Y8427062D01*
X10189672Y8439926D01*
X10179826Y8449772D01*
X10166962Y8455100D01*
D02*
G37*
G36*
X10027262D02*
X10013338D01*
X10000474Y8449772D01*
X9990628Y8439926D01*
X9985300Y8427062D01*
Y8413138D01*
X9990628Y8400274D01*
X10000474Y8390428D01*
X10013338Y8385100D01*
X10027262D01*
X10040126Y8390428D01*
X10049972Y8400274D01*
X10055300Y8413138D01*
Y8427062D01*
X10049972Y8439926D01*
X10040126Y8449772D01*
X10027262Y8455100D01*
D02*
G37*
G36*
X10674962Y8442400D02*
X10661038D01*
X10648174Y8437072D01*
X10638328Y8427226D01*
X10633000Y8414362D01*
Y8400438D01*
X10638328Y8387574D01*
X10648174Y8377728D01*
X10661038Y8372400D01*
X10674962D01*
X10687826Y8377728D01*
X10697672Y8387574D01*
X10703000Y8400438D01*
Y8414362D01*
X10697672Y8427226D01*
X10687826Y8437072D01*
X10674962Y8442400D01*
D02*
G37*
G36*
X10535262D02*
X10521338D01*
X10508474Y8437072D01*
X10498628Y8427226D01*
X10493300Y8414362D01*
Y8400438D01*
X10498628Y8387574D01*
X10508474Y8377728D01*
X10521338Y8372400D01*
X10535262D01*
X10548126Y8377728D01*
X10557972Y8387574D01*
X10563300Y8400438D01*
Y8414362D01*
X10557972Y8427226D01*
X10548126Y8437072D01*
X10535262Y8442400D01*
D02*
G37*
G36*
X3778862Y8429700D02*
X3764938D01*
X3752074Y8424372D01*
X3742228Y8414526D01*
X3736900Y8401662D01*
Y8387738D01*
X3742228Y8374874D01*
X3752074Y8365028D01*
X3764938Y8359700D01*
X3778862D01*
X3791726Y8365028D01*
X3801572Y8374874D01*
X3806900Y8387738D01*
Y8401662D01*
X3801572Y8414526D01*
X3791726Y8424372D01*
X3778862Y8429700D01*
D02*
G37*
G36*
X9874862Y8340800D02*
X9860938D01*
X9848074Y8335472D01*
X9838228Y8325626D01*
X9832900Y8312762D01*
Y8298838D01*
X9838228Y8285974D01*
X9848074Y8276128D01*
X9860938Y8270800D01*
X9874862D01*
X9887726Y8276128D01*
X9897572Y8285974D01*
X9902900Y8298838D01*
Y8312762D01*
X9897572Y8325626D01*
X9887726Y8335472D01*
X9874862Y8340800D01*
D02*
G37*
G36*
X4236062D02*
X4222138D01*
X4209274Y8335472D01*
X4199428Y8325626D01*
X4194100Y8312762D01*
Y8298838D01*
X4199428Y8285974D01*
X4209274Y8276128D01*
X4222138Y8270800D01*
X4236062D01*
X4248926Y8276128D01*
X4258772Y8285974D01*
X4264100Y8298838D01*
Y8312762D01*
X4258772Y8325626D01*
X4248926Y8335472D01*
X4236062Y8340800D01*
D02*
G37*
G36*
X10687662Y8328100D02*
X10673738D01*
X10660874Y8322772D01*
X10651028Y8312926D01*
X10645700Y8300062D01*
Y8286138D01*
X10651028Y8273274D01*
X10660874Y8263428D01*
X10673738Y8258100D01*
X10687662D01*
X10700526Y8263428D01*
X10710372Y8273274D01*
X10715700Y8286138D01*
Y8300062D01*
X10710372Y8312926D01*
X10700526Y8322772D01*
X10687662Y8328100D01*
D02*
G37*
G36*
X10535262D02*
X10521338D01*
X10508474Y8322772D01*
X10498628Y8312926D01*
X10493300Y8300062D01*
Y8286138D01*
X10498628Y8273274D01*
X10508474Y8263428D01*
X10521338Y8258100D01*
X10535262D01*
X10548126Y8263428D01*
X10557972Y8273274D01*
X10563300Y8286138D01*
Y8300062D01*
X10557972Y8312926D01*
X10548126Y8322772D01*
X10535262Y8328100D01*
D02*
G37*
G36*
X10319362D02*
X10305438D01*
X10292574Y8322772D01*
X10282728Y8312926D01*
X10277400Y8300062D01*
Y8286138D01*
X10282728Y8273274D01*
X10292574Y8263428D01*
X10305438Y8258100D01*
X10319362D01*
X10332226Y8263428D01*
X10342072Y8273274D01*
X10347400Y8286138D01*
Y8300062D01*
X10342072Y8312926D01*
X10332226Y8322772D01*
X10319362Y8328100D01*
D02*
G37*
G36*
X10090762D02*
X10076838D01*
X10063974Y8322772D01*
X10054128Y8312926D01*
X10048800Y8300062D01*
Y8286138D01*
X10054128Y8273274D01*
X10063974Y8263428D01*
X10076838Y8258100D01*
X10090762D01*
X10103626Y8263428D01*
X10113472Y8273274D01*
X10118800Y8286138D01*
Y8300062D01*
X10113472Y8312926D01*
X10103626Y8322772D01*
X10090762Y8328100D01*
D02*
G37*
G36*
X11155000Y8465000D02*
X10925000D01*
Y8235000D01*
X11155000D01*
Y8465000D01*
D02*
G37*
G36*
X9265262Y8277300D02*
X9251338D01*
X9238474Y8271972D01*
X9228628Y8262126D01*
X9223300Y8249262D01*
Y8235338D01*
X9228628Y8222474D01*
X9238474Y8212628D01*
X9251338Y8207300D01*
X9265262D01*
X9278126Y8212628D01*
X9287972Y8222474D01*
X9293300Y8235338D01*
Y8249262D01*
X9287972Y8262126D01*
X9278126Y8271972D01*
X9265262Y8277300D01*
D02*
G37*
G36*
X8033362Y8264600D02*
X8019438D01*
X8006574Y8259272D01*
X7996728Y8249426D01*
X7991400Y8236562D01*
Y8222638D01*
X7996728Y8209774D01*
X8006574Y8199928D01*
X8019438Y8194600D01*
X8033362D01*
X8046226Y8199928D01*
X8056072Y8209774D01*
X8061400Y8222638D01*
Y8236562D01*
X8056072Y8249426D01*
X8046226Y8259272D01*
X8033362Y8264600D01*
D02*
G37*
G36*
X5963262Y8226500D02*
X5949338D01*
X5936474Y8221172D01*
X5926628Y8211326D01*
X5921300Y8198462D01*
Y8184538D01*
X5926628Y8171674D01*
X5936474Y8161828D01*
X5949338Y8156500D01*
X5963262D01*
X5976126Y8161828D01*
X5985972Y8171674D01*
X5991300Y8184538D01*
Y8198462D01*
X5985972Y8211326D01*
X5976126Y8221172D01*
X5963262Y8226500D01*
D02*
G37*
G36*
X4096362Y8201100D02*
X4082438D01*
X4069574Y8195772D01*
X4059728Y8185926D01*
X4054400Y8173062D01*
Y8159138D01*
X4059728Y8146274D01*
X4069574Y8136428D01*
X4082438Y8131100D01*
X4096362D01*
X4109226Y8136428D01*
X4119072Y8146274D01*
X4124400Y8159138D01*
Y8173062D01*
X4119072Y8185926D01*
X4109226Y8195772D01*
X4096362Y8201100D01*
D02*
G37*
G36*
X3829662Y8124900D02*
X3815738D01*
X3802874Y8119572D01*
X3793028Y8109726D01*
X3787700Y8096862D01*
Y8082938D01*
X3793028Y8070074D01*
X3802874Y8060228D01*
X3815738Y8054900D01*
X3829662D01*
X3842526Y8060228D01*
X3852372Y8070074D01*
X3857700Y8082938D01*
Y8096862D01*
X3852372Y8109726D01*
X3842526Y8119572D01*
X3829662Y8124900D01*
D02*
G37*
G36*
X8554062Y8112200D02*
X8540138D01*
X8527274Y8106872D01*
X8517428Y8097026D01*
X8512100Y8084162D01*
Y8070238D01*
X8517428Y8057374D01*
X8527274Y8047528D01*
X8540138Y8042200D01*
X8554062D01*
X8566926Y8047528D01*
X8576772Y8057374D01*
X8582100Y8070238D01*
Y8084162D01*
X8576772Y8097026D01*
X8566926Y8106872D01*
X8554062Y8112200D01*
D02*
G37*
G36*
X3740762Y8099500D02*
X3726838D01*
X3713974Y8094172D01*
X3704128Y8084326D01*
X3698800Y8071462D01*
Y8057538D01*
X3704128Y8044674D01*
X3713974Y8034828D01*
X3726838Y8029500D01*
X3740762D01*
X3753626Y8034828D01*
X3763472Y8044674D01*
X3768800Y8057538D01*
Y8071462D01*
X3763472Y8084326D01*
X3753626Y8094172D01*
X3740762Y8099500D01*
D02*
G37*
G36*
X7157062Y8074100D02*
X7143138D01*
X7130274Y8068772D01*
X7120428Y8058926D01*
X7115100Y8046062D01*
Y8032138D01*
X7120428Y8019274D01*
X7130274Y8009428D01*
X7143138Y8004100D01*
X7157062D01*
X7169926Y8009428D01*
X7179772Y8019274D01*
X7185100Y8032138D01*
Y8046062D01*
X7179772Y8058926D01*
X7169926Y8068772D01*
X7157062Y8074100D01*
D02*
G37*
G36*
X4515462Y8061400D02*
X4501538D01*
X4488674Y8056072D01*
X4478828Y8046226D01*
X4473500Y8033362D01*
Y8019438D01*
X4478828Y8006574D01*
X4488674Y7996728D01*
X4501538Y7991400D01*
X4515462D01*
X4528326Y7996728D01*
X4538172Y8006574D01*
X4543500Y8019438D01*
Y8033362D01*
X4538172Y8046226D01*
X4528326Y8056072D01*
X4515462Y8061400D01*
D02*
G37*
G36*
X3194662D02*
X3180738D01*
X3167874Y8056072D01*
X3158028Y8046226D01*
X3152700Y8033362D01*
Y8019438D01*
X3158028Y8006574D01*
X3167874Y7996728D01*
X3180738Y7991400D01*
X3194662D01*
X3207526Y7996728D01*
X3217372Y8006574D01*
X3222700Y8019438D01*
Y8033362D01*
X3217372Y8046226D01*
X3207526Y8056072D01*
X3194662Y8061400D01*
D02*
G37*
G36*
X9126557Y8066400D02*
X9110643D01*
X9095942Y8060310D01*
X9084690Y8049058D01*
X9078600Y8034357D01*
Y8018443D01*
X9084690Y8003742D01*
X9095942Y7992490D01*
X9110643Y7986400D01*
X9126557D01*
X9141258Y7992490D01*
X9152510Y8003742D01*
X9158600Y8018443D01*
Y8034357D01*
X9152510Y8049058D01*
X9141258Y8060310D01*
X9126557Y8066400D01*
D02*
G37*
G36*
X9011262Y8048700D02*
X8997338D01*
X8984474Y8043372D01*
X8974628Y8033526D01*
X8969300Y8020662D01*
Y8006738D01*
X8974628Y7993874D01*
X8984474Y7984028D01*
X8997338Y7978700D01*
X9011262D01*
X9024126Y7984028D01*
X9033972Y7993874D01*
X9039300Y8006738D01*
Y8020662D01*
X9033972Y8033526D01*
X9024126Y8043372D01*
X9011262Y8048700D01*
D02*
G37*
G36*
X11310127Y8218500D02*
X11277873D01*
X11246717Y8210152D01*
X11218783Y8194025D01*
X11195976Y8171217D01*
X11179848Y8143283D01*
X11171500Y8112128D01*
Y8079873D01*
X11179848Y8048717D01*
X11195976Y8020783D01*
X11218783Y7997976D01*
X11246717Y7981848D01*
X11277873Y7973500D01*
X11310127D01*
X11341283Y7981848D01*
X11369217Y7997976D01*
X11392024Y8020783D01*
X11408152Y8048717D01*
X11416500Y8079873D01*
Y8112128D01*
X11408152Y8143283D01*
X11392024Y8171217D01*
X11369217Y8194025D01*
X11341283Y8210152D01*
X11310127Y8218500D01*
D02*
G37*
G36*
X10802127D02*
X10769873D01*
X10738717Y8210152D01*
X10710783Y8194025D01*
X10687976Y8171217D01*
X10671848Y8143283D01*
X10663500Y8112128D01*
Y8079873D01*
X10671848Y8048717D01*
X10687976Y8020783D01*
X10710783Y7997976D01*
X10738717Y7981848D01*
X10769873Y7973500D01*
X10802127D01*
X10833283Y7981848D01*
X10861217Y7997976D01*
X10884024Y8020783D01*
X10900152Y8048717D01*
X10908500Y8079873D01*
Y8112128D01*
X10900152Y8143283D01*
X10884024Y8171217D01*
X10861217Y8194025D01*
X10833283Y8210152D01*
X10802127Y8218500D01*
D02*
G37*
G36*
X10039962Y8023300D02*
X10026038D01*
X10013174Y8017972D01*
X10003328Y8008126D01*
X9998000Y7995262D01*
Y7981338D01*
X10003328Y7968474D01*
X10013174Y7958628D01*
X10026038Y7953300D01*
X10039962D01*
X10052826Y7958628D01*
X10062672Y7968474D01*
X10068000Y7981338D01*
Y7995262D01*
X10062672Y8008126D01*
X10052826Y8017972D01*
X10039962Y8023300D01*
D02*
G37*
G36*
X8917262Y7980100D02*
X8903338D01*
X8890474Y7974771D01*
X8880628Y7964926D01*
X8875300Y7952062D01*
Y7938138D01*
X8880628Y7925274D01*
X8890474Y7915428D01*
X8903338Y7910100D01*
X8917262D01*
X8930126Y7915428D01*
X8939971Y7925274D01*
X8945300Y7938138D01*
Y7952062D01*
X8939971Y7964926D01*
X8930126Y7974771D01*
X8917262Y7980100D01*
D02*
G37*
G36*
X3664562Y7959800D02*
X3650638D01*
X3637774Y7954472D01*
X3627928Y7944626D01*
X3622600Y7931762D01*
Y7917838D01*
X3627928Y7904974D01*
X3637774Y7895128D01*
X3650638Y7889800D01*
X3664562D01*
X3677426Y7895128D01*
X3687272Y7904974D01*
X3692600Y7917838D01*
Y7931762D01*
X3687272Y7944626D01*
X3677426Y7954472D01*
X3664562Y7959800D01*
D02*
G37*
G36*
X4197962Y7858200D02*
X4184038D01*
X4171174Y7852872D01*
X4161328Y7843026D01*
X4159773Y7839271D01*
X4146027D01*
X4144472Y7843026D01*
X4134626Y7852872D01*
X4121762Y7858200D01*
X4107838D01*
X4094974Y7852872D01*
X4085128Y7843026D01*
X4083573Y7839271D01*
X4069827D01*
X4068272Y7843026D01*
X4058426Y7852872D01*
X4045562Y7858200D01*
X4031638D01*
X4018774Y7852872D01*
X4008928Y7843026D01*
X4007373Y7839271D01*
X3993627D01*
X3992072Y7843026D01*
X3982226Y7852872D01*
X3969362Y7858200D01*
X3955438D01*
X3942574Y7852872D01*
X3932728Y7843026D01*
X3931173Y7839271D01*
X3917427D01*
X3915872Y7843026D01*
X3906026Y7852872D01*
X3893162Y7858200D01*
X3879238D01*
X3866374Y7852872D01*
X3856528Y7843026D01*
X3851200Y7830162D01*
Y7816238D01*
X3856528Y7803374D01*
X3866374Y7793528D01*
X3870129Y7791973D01*
Y7778227D01*
X3866374Y7776672D01*
X3856528Y7766826D01*
X3851200Y7753962D01*
Y7740038D01*
X3856528Y7727174D01*
X3866374Y7717328D01*
X3870129Y7715773D01*
Y7702027D01*
X3866374Y7700472D01*
X3856528Y7690626D01*
X3851200Y7677762D01*
Y7663838D01*
X3856528Y7650974D01*
X3866374Y7641128D01*
X3870129Y7639573D01*
Y7625827D01*
X3866374Y7624272D01*
X3856528Y7614426D01*
X3851200Y7601562D01*
Y7587638D01*
X3856528Y7574774D01*
X3866374Y7564928D01*
X3870129Y7563373D01*
Y7549627D01*
X3866374Y7548072D01*
X3856528Y7538226D01*
X3851200Y7525362D01*
Y7511438D01*
X3856528Y7498574D01*
X3866374Y7488728D01*
X3879238Y7483400D01*
X3893162D01*
X3906026Y7488728D01*
X3915872Y7498574D01*
X3917427Y7502329D01*
X3931173D01*
X3932728Y7498574D01*
X3942574Y7488728D01*
X3955438Y7483400D01*
X3969362D01*
X3982226Y7488728D01*
X3992072Y7498574D01*
X3993627Y7502329D01*
X4007373D01*
X4008928Y7498574D01*
X4018774Y7488728D01*
X4031638Y7483400D01*
X4045562D01*
X4058426Y7488728D01*
X4068272Y7498574D01*
X4069827Y7502329D01*
X4083573D01*
X4085128Y7498574D01*
X4094974Y7488728D01*
X4107838Y7483400D01*
X4121762D01*
X4134626Y7488728D01*
X4144472Y7498574D01*
X4146027Y7502329D01*
X4159773D01*
X4161328Y7498574D01*
X4171174Y7488728D01*
X4184038Y7483400D01*
X4197962D01*
X4210826Y7488728D01*
X4220672Y7498574D01*
X4226000Y7511438D01*
Y7525362D01*
X4220672Y7538226D01*
X4210826Y7548072D01*
X4207071Y7549627D01*
Y7563373D01*
X4210826Y7564928D01*
X4220672Y7574774D01*
X4226000Y7587638D01*
Y7601562D01*
X4220672Y7614426D01*
X4210826Y7624272D01*
X4207071Y7625827D01*
Y7639573D01*
X4210826Y7641128D01*
X4220672Y7650974D01*
X4226000Y7663838D01*
Y7677762D01*
X4220672Y7690626D01*
X4210826Y7700472D01*
X4207071Y7702027D01*
Y7715773D01*
X4210826Y7717328D01*
X4220672Y7727174D01*
X4226000Y7740038D01*
Y7753962D01*
X4220672Y7766826D01*
X4210826Y7776672D01*
X4207071Y7778227D01*
Y7791973D01*
X4210826Y7793528D01*
X4220672Y7803374D01*
X4226000Y7816238D01*
Y7830162D01*
X4220672Y7843026D01*
X4210826Y7852872D01*
X4197962Y7858200D01*
D02*
G37*
G36*
X10395562Y7896300D02*
X10381638D01*
X10368774Y7890972D01*
X10358928Y7881126D01*
X10353600Y7868262D01*
Y7854338D01*
X10358928Y7841474D01*
X10368774Y7831628D01*
X10381638Y7826300D01*
X10395562D01*
X10408426Y7831628D01*
X10418272Y7841474D01*
X10423600Y7854338D01*
Y7868262D01*
X10418272Y7881126D01*
X10408426Y7890972D01*
X10395562Y7896300D01*
D02*
G37*
G36*
X9658962D02*
X9645038D01*
X9632174Y7890972D01*
X9622328Y7881126D01*
X9617000Y7868262D01*
Y7854338D01*
X9622328Y7841474D01*
X9632174Y7831628D01*
X9645038Y7826300D01*
X9658962D01*
X9671826Y7831628D01*
X9681672Y7841474D01*
X9687000Y7854338D01*
Y7868262D01*
X9681672Y7881126D01*
X9671826Y7890972D01*
X9658962Y7896300D01*
D02*
G37*
G36*
X4540862D02*
X4526938D01*
X4514074Y7890972D01*
X4504228Y7881126D01*
X4498900Y7868262D01*
Y7854338D01*
X4504228Y7841474D01*
X4514074Y7831628D01*
X4526938Y7826300D01*
X4540862D01*
X4553726Y7831628D01*
X4563572Y7841474D01*
X4568900Y7854338D01*
Y7868262D01*
X4563572Y7881126D01*
X4553726Y7890972D01*
X4540862Y7896300D01*
D02*
G37*
G36*
X10039962Y7832800D02*
X10026038D01*
X10013174Y7827472D01*
X10003328Y7817626D01*
X9998000Y7804762D01*
Y7790838D01*
X10003328Y7777974D01*
X10013174Y7768128D01*
X10026038Y7762800D01*
X10039962D01*
X10052826Y7768128D01*
X10062672Y7777974D01*
X10068000Y7790838D01*
Y7804762D01*
X10062672Y7817626D01*
X10052826Y7827472D01*
X10039962Y7832800D01*
D02*
G37*
G36*
X7157062Y7820100D02*
X7143138D01*
X7130274Y7814772D01*
X7120428Y7804926D01*
X7115100Y7792062D01*
Y7778138D01*
X7120428Y7765274D01*
X7130274Y7755428D01*
X7143138Y7750100D01*
X7157062D01*
X7169926Y7755428D01*
X7179772Y7765274D01*
X7185100Y7778138D01*
Y7792062D01*
X7179772Y7804926D01*
X7169926Y7814772D01*
X7157062Y7820100D01*
D02*
G37*
G36*
X5671162Y7769300D02*
X5657238D01*
X5644374Y7763972D01*
X5634528Y7754126D01*
X5629200Y7741262D01*
Y7727338D01*
X5634528Y7714474D01*
X5644374Y7704628D01*
X5657238Y7699300D01*
X5671162D01*
X5684026Y7704628D01*
X5693872Y7714474D01*
X5699200Y7727338D01*
Y7741262D01*
X5693872Y7754126D01*
X5684026Y7763972D01*
X5671162Y7769300D01*
D02*
G37*
G36*
X8973162Y7756600D02*
X8959238D01*
X8946374Y7751272D01*
X8936528Y7741426D01*
X8931200Y7728562D01*
Y7714638D01*
X8936528Y7701774D01*
X8946374Y7691928D01*
X8959238Y7686600D01*
X8973162D01*
X8986026Y7691928D01*
X8995872Y7701774D01*
X9001200Y7714638D01*
Y7728562D01*
X8995872Y7741426D01*
X8986026Y7751272D01*
X8973162Y7756600D01*
D02*
G37*
G36*
X6610962Y7743900D02*
X6597038D01*
X6584174Y7738572D01*
X6574328Y7728726D01*
X6569000Y7715862D01*
Y7701938D01*
X6574328Y7689074D01*
X6584174Y7679228D01*
X6597038Y7673900D01*
X6610962D01*
X6623826Y7679228D01*
X6633672Y7689074D01*
X6639000Y7701938D01*
Y7715862D01*
X6633672Y7728726D01*
X6623826Y7738572D01*
X6610962Y7743900D01*
D02*
G37*
G36*
X3423262Y7718500D02*
X3409338D01*
X3396474Y7713172D01*
X3386628Y7703326D01*
X3381300Y7690462D01*
Y7676538D01*
X3386628Y7663674D01*
X3396474Y7653828D01*
X3409338Y7648500D01*
X3423262D01*
X3436126Y7653828D01*
X3445972Y7663674D01*
X3451300Y7676538D01*
Y7690462D01*
X3445972Y7703326D01*
X3436126Y7713172D01*
X3423262Y7718500D01*
D02*
G37*
G36*
X9037657Y7647300D02*
X9021743D01*
X9007042Y7641210D01*
X8995790Y7629958D01*
X8989700Y7615257D01*
Y7599343D01*
X8995790Y7584642D01*
X9007042Y7573390D01*
X9021743Y7567300D01*
X9037657D01*
X9052358Y7573390D01*
X9063610Y7584642D01*
X9069700Y7599343D01*
Y7615257D01*
X9063610Y7629958D01*
X9052358Y7641210D01*
X9037657Y7647300D01*
D02*
G37*
G36*
X5163162Y7604200D02*
X5149238D01*
X5136374Y7598872D01*
X5126528Y7589026D01*
X5121200Y7576162D01*
Y7562238D01*
X5126528Y7549374D01*
X5136374Y7539528D01*
X5149238Y7534200D01*
X5163162D01*
X5176026Y7539528D01*
X5185872Y7549374D01*
X5191200Y7562238D01*
Y7576162D01*
X5185872Y7589026D01*
X5176026Y7598872D01*
X5163162Y7604200D01*
D02*
G37*
G36*
X7059440Y7548000D02*
X7037560D01*
X7017345Y7539627D01*
X7001873Y7524155D01*
X6993500Y7503940D01*
Y7482060D01*
X7001873Y7461845D01*
X7017345Y7446373D01*
X7037560Y7438000D01*
X7059440D01*
X7079655Y7446373D01*
X7095127Y7461845D01*
X7103500Y7482060D01*
Y7503940D01*
X7095127Y7524155D01*
X7079655Y7539627D01*
X7059440Y7548000D01*
D02*
G37*
G36*
X3639162Y7451800D02*
X3625238D01*
X3612374Y7446472D01*
X3602528Y7436626D01*
X3597200Y7423762D01*
Y7409838D01*
X3602528Y7396974D01*
X3612374Y7387128D01*
X3625238Y7381800D01*
X3639162D01*
X3652026Y7387128D01*
X3661872Y7396974D01*
X3667200Y7409838D01*
Y7423762D01*
X3661872Y7436626D01*
X3652026Y7446472D01*
X3639162Y7451800D01*
D02*
G37*
G36*
X9201762Y7388300D02*
X9187838D01*
X9174974Y7382972D01*
X9165128Y7373126D01*
X9159800Y7360262D01*
Y7346338D01*
X9165128Y7333474D01*
X9174974Y7323628D01*
X9187838Y7318300D01*
X9201762D01*
X9214626Y7323628D01*
X9224472Y7333474D01*
X9229800Y7346338D01*
Y7360262D01*
X9224472Y7373126D01*
X9214626Y7382972D01*
X9201762Y7388300D01*
D02*
G37*
G36*
X8084162Y7362900D02*
X8070238D01*
X8057374Y7357572D01*
X8047528Y7347726D01*
X8042200Y7334862D01*
Y7320938D01*
X8047528Y7308074D01*
X8057374Y7298228D01*
X8070238Y7292900D01*
X8084162D01*
X8097026Y7298228D01*
X8106872Y7308074D01*
X8112200Y7320938D01*
Y7334862D01*
X8106872Y7347726D01*
X8097026Y7357572D01*
X8084162Y7362900D01*
D02*
G37*
G36*
X4621040Y7395600D02*
X4599160D01*
X4578945Y7387227D01*
X4563473Y7371755D01*
X4555100Y7351540D01*
Y7329660D01*
X4563473Y7309445D01*
X4578945Y7293973D01*
X4599160Y7285600D01*
X4621040D01*
X4641255Y7293973D01*
X4656727Y7309445D01*
X4665100Y7329660D01*
Y7351540D01*
X4656727Y7371755D01*
X4641255Y7387227D01*
X4621040Y7395600D01*
D02*
G37*
G36*
X10725762Y7350200D02*
X10711838D01*
X10698974Y7344872D01*
X10689128Y7335026D01*
X10683800Y7322162D01*
Y7308238D01*
X10689128Y7295374D01*
X10698974Y7285528D01*
X10711838Y7280200D01*
X10725762D01*
X10738626Y7285528D01*
X10748472Y7295374D01*
X10753800Y7308238D01*
Y7322162D01*
X10748472Y7335026D01*
X10738626Y7344872D01*
X10725762Y7350200D01*
D02*
G37*
G36*
X4363062Y7337500D02*
X4349138D01*
X4336274Y7332172D01*
X4326428Y7322326D01*
X4321100Y7309462D01*
Y7295538D01*
X4326428Y7282674D01*
X4336274Y7272828D01*
X4349138Y7267500D01*
X4363062D01*
X4375926Y7272828D01*
X4385772Y7282674D01*
X4391100Y7295538D01*
Y7309462D01*
X4385772Y7322326D01*
X4375926Y7332172D01*
X4363062Y7337500D01*
D02*
G37*
G36*
X9735162Y7286700D02*
X9721238D01*
X9708374Y7281372D01*
X9698528Y7271526D01*
X9693200Y7258662D01*
Y7244738D01*
X9698528Y7231874D01*
X9708374Y7222028D01*
X9721238Y7216700D01*
X9735162D01*
X9748026Y7222028D01*
X9757872Y7231874D01*
X9763200Y7244738D01*
Y7258662D01*
X9757872Y7271526D01*
X9748026Y7281372D01*
X9735162Y7286700D01*
D02*
G37*
G36*
X9570062D02*
X9556138D01*
X9543274Y7281372D01*
X9533428Y7271526D01*
X9528100Y7258662D01*
Y7244738D01*
X9533428Y7231874D01*
X9543274Y7222028D01*
X9556138Y7216700D01*
X9570062D01*
X9582926Y7222028D01*
X9592772Y7231874D01*
X9598100Y7244738D01*
Y7258662D01*
X9592772Y7271526D01*
X9582926Y7281372D01*
X9570062Y7286700D01*
D02*
G37*
G36*
X5429862D02*
X5415938D01*
X5403074Y7281372D01*
X5393228Y7271526D01*
X5387900Y7258662D01*
Y7244738D01*
X5393228Y7231874D01*
X5403074Y7222028D01*
X5415938Y7216700D01*
X5429862D01*
X5442726Y7222028D01*
X5452572Y7231874D01*
X5457900Y7244738D01*
Y7258662D01*
X5452572Y7271526D01*
X5442726Y7281372D01*
X5429862Y7286700D01*
D02*
G37*
G36*
X4134462Y7235900D02*
X4120538D01*
X4107674Y7230572D01*
X4097828Y7220726D01*
X4092500Y7207862D01*
Y7201579D01*
X4090370Y7199343D01*
X4079800Y7194139D01*
X4070962Y7197800D01*
X4057038D01*
X4044174Y7192472D01*
X4034329Y7182626D01*
X4029000Y7169762D01*
Y7155838D01*
X4032451Y7147507D01*
X4021685Y7140313D01*
X4020326Y7141672D01*
X4007462Y7147000D01*
X3993538D01*
X3980674Y7141672D01*
X3970828Y7131826D01*
X3965500Y7118962D01*
Y7105038D01*
X3969161Y7096200D01*
X3963958Y7085630D01*
X3961721Y7083500D01*
X3955438D01*
X3942574Y7078172D01*
X3932728Y7068326D01*
X3927400Y7055462D01*
Y7041538D01*
X3932728Y7028674D01*
X3942574Y7018828D01*
X3955438Y7013500D01*
X3969362D01*
X3982226Y7018828D01*
X3992072Y7028674D01*
X3997400Y7041538D01*
Y7055462D01*
X3993739Y7064300D01*
X3998942Y7074870D01*
X4001179Y7077000D01*
X4007462D01*
X4020326Y7082328D01*
X4030172Y7092174D01*
X4035500Y7105038D01*
Y7118962D01*
X4032049Y7127293D01*
X4042816Y7134487D01*
X4044174Y7133128D01*
X4057038Y7127800D01*
X4070962D01*
X4083826Y7133128D01*
X4093672Y7142974D01*
X4099000Y7155838D01*
Y7162121D01*
X4101130Y7164357D01*
X4111700Y7169561D01*
X4120538Y7165900D01*
X4134462D01*
X4147326Y7171228D01*
X4157172Y7181074D01*
X4162500Y7193938D01*
Y7207862D01*
X4157172Y7220726D01*
X4147326Y7230572D01*
X4134462Y7235900D01*
D02*
G37*
G36*
X6966562Y7261300D02*
X6952638D01*
X6939774Y7255972D01*
X6929928Y7246126D01*
X6924600Y7233262D01*
Y7219338D01*
X6929928Y7206474D01*
X6939774Y7196628D01*
X6952638Y7191300D01*
X6966562D01*
X6979426Y7196628D01*
X6989272Y7206474D01*
X6994600Y7219338D01*
Y7233262D01*
X6989272Y7246126D01*
X6979426Y7255972D01*
X6966562Y7261300D01*
D02*
G37*
G36*
X6128362D02*
X6114438D01*
X6101574Y7255972D01*
X6091728Y7246126D01*
X6086400Y7233262D01*
Y7219338D01*
X6091728Y7206474D01*
X6101574Y7196628D01*
X6114438Y7191300D01*
X6128362D01*
X6141226Y7196628D01*
X6151072Y7206474D01*
X6156400Y7219338D01*
Y7233262D01*
X6151072Y7246126D01*
X6141226Y7255972D01*
X6128362Y7261300D01*
D02*
G37*
G36*
X3626462Y7235900D02*
X3612538D01*
X3599674Y7230572D01*
X3589828Y7220726D01*
X3584500Y7207862D01*
Y7193938D01*
X3589828Y7181074D01*
X3599674Y7171228D01*
X3612538Y7165900D01*
X3626462D01*
X3639326Y7171228D01*
X3649172Y7181074D01*
X3654500Y7193938D01*
Y7207862D01*
X3649172Y7220726D01*
X3639326Y7230572D01*
X3626462Y7235900D01*
D02*
G37*
G36*
X8706462Y7210500D02*
X8692538D01*
X8679674Y7205172D01*
X8669828Y7195326D01*
X8664500Y7182462D01*
Y7168538D01*
X8669828Y7155674D01*
X8679674Y7145828D01*
X8692538Y7140500D01*
X8706462D01*
X8719326Y7145828D01*
X8729172Y7155674D01*
X8734500Y7168538D01*
Y7182462D01*
X8729172Y7195326D01*
X8719326Y7205172D01*
X8706462Y7210500D01*
D02*
G37*
G36*
X5899762Y7058100D02*
X5885838D01*
X5872974Y7052772D01*
X5863128Y7042926D01*
X5857800Y7030062D01*
Y7016138D01*
X5863128Y7003274D01*
X5872974Y6993428D01*
X5885838Y6988100D01*
X5899762D01*
X5912626Y6993428D01*
X5922472Y7003274D01*
X5927800Y7016138D01*
Y7030062D01*
X5922472Y7042926D01*
X5912626Y7052772D01*
X5899762Y7058100D01*
D02*
G37*
G36*
X11742734Y7385000D02*
X11701466D01*
X11660991Y7376949D01*
X11622864Y7361156D01*
X11588552Y7338229D01*
X11559371Y7309048D01*
X11536444Y7274736D01*
X11520651Y7236609D01*
X11512600Y7196134D01*
Y7154866D01*
X11520651Y7114391D01*
X11536444Y7076264D01*
X11559371Y7041952D01*
X11588552Y7012771D01*
X11622864Y6989844D01*
X11660991Y6974051D01*
X11701466Y6966000D01*
X11742734D01*
X11783209Y6974051D01*
X11821336Y6989844D01*
X11855648Y7012771D01*
X11884829Y7041952D01*
X11907756Y7076264D01*
X11923549Y7114391D01*
X11931600Y7154866D01*
Y7196134D01*
X11923549Y7236609D01*
X11907756Y7274736D01*
X11884829Y7309048D01*
X11855648Y7338229D01*
X11821336Y7361156D01*
X11783209Y7376949D01*
X11742734Y7385000D01*
D02*
G37*
G36*
X10723215Y7178500D02*
X10688985D01*
X10655922Y7169641D01*
X10626278Y7152526D01*
X10602074Y7128322D01*
X10584959Y7098678D01*
X10576100Y7065615D01*
Y7031385D01*
X10584959Y6998322D01*
X10602074Y6968678D01*
X10626278Y6944474D01*
X10655922Y6927359D01*
X10688985Y6918500D01*
X10723215D01*
X10756278Y6927359D01*
X10785922Y6944474D01*
X10810126Y6968678D01*
X10827241Y6998322D01*
X10836100Y7031385D01*
Y7065615D01*
X10827241Y7098678D01*
X10810126Y7128322D01*
X10785922Y7152526D01*
X10756278Y7169641D01*
X10723215Y7178500D01*
D02*
G37*
G36*
X7004662Y6969200D02*
X6990738D01*
X6977874Y6963872D01*
X6968028Y6954026D01*
X6962700Y6941162D01*
Y6927238D01*
X6968028Y6914374D01*
X6977874Y6904528D01*
X6990738Y6899200D01*
X7004662D01*
X7017526Y6904528D01*
X7027372Y6914374D01*
X7032700Y6927238D01*
Y6941162D01*
X7027372Y6954026D01*
X7017526Y6963872D01*
X7004662Y6969200D01*
D02*
G37*
G36*
X10052662Y6880300D02*
X10038738D01*
X10025874Y6874972D01*
X10016028Y6865126D01*
X10010700Y6852262D01*
Y6838338D01*
X10016028Y6825474D01*
X10025874Y6815628D01*
X10038738Y6810300D01*
X10052662D01*
X10065526Y6815628D01*
X10075372Y6825474D01*
X10080700Y6838338D01*
Y6852262D01*
X10075372Y6865126D01*
X10065526Y6874972D01*
X10052662Y6880300D01*
D02*
G37*
G36*
X3181962D02*
X3168038D01*
X3155174Y6874972D01*
X3145328Y6865126D01*
X3140000Y6852262D01*
Y6838338D01*
X3145328Y6825474D01*
X3155174Y6815628D01*
X3168038Y6810300D01*
X3181962D01*
X3194826Y6815628D01*
X3204672Y6825474D01*
X3210000Y6838338D01*
Y6852262D01*
X3204672Y6865126D01*
X3194826Y6874972D01*
X3181962Y6880300D01*
D02*
G37*
G36*
X5167140Y6913000D02*
X5145260D01*
X5125045Y6904627D01*
X5109573Y6889155D01*
X5101200Y6868940D01*
Y6847060D01*
X5109573Y6826845D01*
X5125045Y6811373D01*
X5145260Y6803000D01*
X5167140D01*
X5187355Y6811373D01*
X5202827Y6826845D01*
X5211200Y6847060D01*
Y6868940D01*
X5202827Y6889155D01*
X5187355Y6904627D01*
X5167140Y6913000D01*
D02*
G37*
G36*
X6456190Y6906650D02*
X6434310D01*
X6414095Y6898277D01*
X6398623Y6882805D01*
X6390250Y6862590D01*
Y6840710D01*
X6398623Y6820495D01*
X6414095Y6805023D01*
X6434310Y6796650D01*
X6456190D01*
X6476405Y6805023D01*
X6491877Y6820495D01*
X6500250Y6840710D01*
Y6862590D01*
X6491877Y6882805D01*
X6476405Y6898277D01*
X6456190Y6906650D01*
D02*
G37*
G36*
X8414362Y6854900D02*
X8400438D01*
X8387574Y6849572D01*
X8377728Y6839726D01*
X8372400Y6826862D01*
Y6812938D01*
X8377728Y6800074D01*
X8387574Y6790228D01*
X8400438Y6784900D01*
X8414362D01*
X8427226Y6790228D01*
X8437072Y6800074D01*
X8442400Y6812938D01*
Y6826862D01*
X8437072Y6839726D01*
X8427226Y6849572D01*
X8414362Y6854900D01*
D02*
G37*
G36*
X6331562Y6816800D02*
X6317638D01*
X6304774Y6811472D01*
X6294928Y6801626D01*
X6289600Y6788762D01*
Y6774838D01*
X6294928Y6761974D01*
X6304774Y6752128D01*
X6317638Y6746800D01*
X6331562D01*
X6344426Y6752128D01*
X6354272Y6761974D01*
X6359600Y6774838D01*
Y6788762D01*
X6354272Y6801626D01*
X6344426Y6811472D01*
X6331562Y6816800D01*
D02*
G37*
G36*
X9557362Y6766000D02*
X9543438D01*
X9530574Y6760672D01*
X9520728Y6750826D01*
X9515400Y6737962D01*
Y6724038D01*
X9520728Y6711174D01*
X9530574Y6701328D01*
X9543438Y6696000D01*
X9557362D01*
X9570226Y6701328D01*
X9580072Y6711174D01*
X9585400Y6724038D01*
Y6737962D01*
X9580072Y6750826D01*
X9570226Y6760672D01*
X9557362Y6766000D01*
D02*
G37*
G36*
X7182462Y6740600D02*
X7168538D01*
X7155674Y6735272D01*
X7145828Y6725426D01*
X7140500Y6712562D01*
Y6698638D01*
X7145828Y6685774D01*
X7155674Y6675928D01*
X7168538Y6670600D01*
X7182462D01*
X7195326Y6675928D01*
X7205172Y6685774D01*
X7210500Y6698638D01*
Y6712562D01*
X7205172Y6725426D01*
X7195326Y6735272D01*
X7182462Y6740600D01*
D02*
G37*
G36*
X6712562Y6727900D02*
X6698638D01*
X6685774Y6722572D01*
X6675928Y6712726D01*
X6670600Y6699862D01*
Y6685938D01*
X6675928Y6673074D01*
X6685774Y6663228D01*
X6698638Y6657900D01*
X6712562D01*
X6725426Y6663228D01*
X6735272Y6673074D01*
X6740600Y6685938D01*
Y6699862D01*
X6735272Y6712726D01*
X6725426Y6722572D01*
X6712562Y6727900D01*
D02*
G37*
G36*
X6585562D02*
X6571638D01*
X6558774Y6722572D01*
X6548928Y6712726D01*
X6543600Y6699862D01*
Y6685938D01*
X6548928Y6673074D01*
X6558774Y6663228D01*
X6571638Y6657900D01*
X6585562D01*
X6598426Y6663228D01*
X6608272Y6673074D01*
X6613600Y6685938D01*
Y6699862D01*
X6608272Y6712726D01*
X6598426Y6722572D01*
X6585562Y6727900D01*
D02*
G37*
G36*
X10978465Y6934000D02*
X10941735D01*
X10906255Y6924493D01*
X10874445Y6906128D01*
X10848472Y6880155D01*
X10830107Y6848345D01*
X10820600Y6812865D01*
Y6776135D01*
X10830107Y6740655D01*
X10848472Y6708845D01*
X10874445Y6682872D01*
X10906255Y6664507D01*
X10941735Y6655000D01*
X10978465D01*
X11013945Y6664507D01*
X11045755Y6682872D01*
X11071728Y6708845D01*
X11090093Y6740655D01*
X11099600Y6776135D01*
Y6812865D01*
X11090093Y6848345D01*
X11071728Y6880155D01*
X11045755Y6906128D01*
X11013945Y6924493D01*
X10978465Y6934000D01*
D02*
G37*
G36*
X7944462Y6715200D02*
X7930538D01*
X7917674Y6709872D01*
X7907828Y6700026D01*
X7902500Y6687162D01*
Y6673238D01*
X7907828Y6660374D01*
X7917674Y6650528D01*
X7930538Y6645200D01*
X7944462D01*
X7957326Y6650528D01*
X7967172Y6660374D01*
X7972500Y6673238D01*
Y6687162D01*
X7967172Y6700026D01*
X7957326Y6709872D01*
X7944462Y6715200D01*
D02*
G37*
G36*
X4401162Y6562800D02*
X4387238D01*
X4374374Y6557472D01*
X4364528Y6547626D01*
X4359200Y6534762D01*
Y6520838D01*
X4364528Y6507974D01*
X4374374Y6498128D01*
X4387238Y6492800D01*
X4401162D01*
X4414026Y6498128D01*
X4423872Y6507974D01*
X4429200Y6520838D01*
Y6534762D01*
X4423872Y6547626D01*
X4414026Y6557472D01*
X4401162Y6562800D01*
D02*
G37*
G36*
X6077562Y6550100D02*
X6063638D01*
X6050774Y6544772D01*
X6040928Y6534926D01*
X6035600Y6522062D01*
Y6508138D01*
X6040928Y6495274D01*
X6050774Y6485428D01*
X6063638Y6480100D01*
X6077562D01*
X6090426Y6485428D01*
X6100272Y6495274D01*
X6105600Y6508138D01*
Y6522062D01*
X6100272Y6534926D01*
X6090426Y6544772D01*
X6077562Y6550100D01*
D02*
G37*
G36*
X3470683Y6867000D02*
X3429317D01*
X3388745Y6858929D01*
X3350528Y6843099D01*
X3316133Y6820117D01*
X3286882Y6790867D01*
X3263901Y6756472D01*
X3248070Y6718255D01*
X3240000Y6677683D01*
Y6636317D01*
X3248070Y6595745D01*
X3263901Y6557528D01*
X3286882Y6523133D01*
X3316133Y6493882D01*
X3350528Y6470900D01*
X3388745Y6455070D01*
X3429317Y6447000D01*
X3470683D01*
X3511255Y6455070D01*
X3549472Y6470900D01*
X3583867Y6493882D01*
X3613117Y6523133D01*
X3636099Y6557528D01*
X3651929Y6595745D01*
X3660000Y6636317D01*
Y6677683D01*
X3651929Y6718255D01*
X3636099Y6756472D01*
X3613117Y6790867D01*
X3583867Y6820117D01*
X3549472Y6843099D01*
X3511255Y6858929D01*
X3470683Y6867000D01*
D02*
G37*
G36*
X10836100Y6670500D02*
X10576100D01*
Y6410500D01*
X10836100D01*
Y6670500D01*
D02*
G37*
G36*
X8338162Y6448500D02*
X8324238D01*
X8311374Y6443172D01*
X8301528Y6433326D01*
X8296200Y6420462D01*
Y6406538D01*
X8301528Y6393674D01*
X8311374Y6383828D01*
X8324238Y6378500D01*
X8338162D01*
X8351026Y6383828D01*
X8360872Y6393674D01*
X8366200Y6406538D01*
Y6420462D01*
X8360872Y6433326D01*
X8351026Y6443172D01*
X8338162Y6448500D01*
D02*
G37*
G36*
X9747862Y6410400D02*
X9733938D01*
X9721074Y6405072D01*
X9711228Y6395226D01*
X9705900Y6382362D01*
Y6368438D01*
X9711228Y6355574D01*
X9721074Y6345728D01*
X9733938Y6340400D01*
X9747862D01*
X9760726Y6345728D01*
X9770572Y6355574D01*
X9775900Y6368438D01*
Y6382362D01*
X9770572Y6395226D01*
X9760726Y6405072D01*
X9747862Y6410400D01*
D02*
G37*
G36*
X4038683Y6867000D02*
X3997317D01*
X3956745Y6858929D01*
X3918528Y6843099D01*
X3884133Y6820117D01*
X3854882Y6790867D01*
X3831900Y6756472D01*
X3816070Y6718255D01*
X3808000Y6677683D01*
Y6636317D01*
X3816070Y6595745D01*
X3831900Y6557528D01*
X3854882Y6523133D01*
X3884133Y6493882D01*
X3918528Y6470900D01*
X3956745Y6455070D01*
X3966463Y6453137D01*
X3966846Y6451765D01*
X3958125Y6436510D01*
X3948261Y6433866D01*
X3927739Y6422018D01*
X3910982Y6405261D01*
X3899133Y6384739D01*
X3893000Y6361849D01*
Y6338151D01*
X3899133Y6315261D01*
X3910982Y6294739D01*
X3927739Y6277982D01*
X3948261Y6266134D01*
X3971151Y6260000D01*
X3994848D01*
X4017738Y6266134D01*
X4038261Y6277982D01*
X4055018Y6294739D01*
X4066866Y6315261D01*
X4073000Y6338151D01*
Y6361849D01*
X4066866Y6384739D01*
X4055018Y6405261D01*
X4038261Y6422018D01*
X4017738Y6433866D01*
X4016120Y6434300D01*
X4017793Y6447000D01*
X4038683D01*
X4079254Y6455070D01*
X4117472Y6470900D01*
X4151867Y6493882D01*
X4181117Y6523133D01*
X4204099Y6557528D01*
X4219929Y6595745D01*
X4228000Y6636317D01*
Y6677683D01*
X4219929Y6718255D01*
X4204099Y6756472D01*
X4181117Y6790867D01*
X4151867Y6820117D01*
X4117472Y6843099D01*
X4079254Y6858929D01*
X4038683Y6867000D01*
D02*
G37*
G36*
X3732849Y6440000D02*
X3709151D01*
X3686261Y6433866D01*
X3665739Y6422018D01*
X3648982Y6405261D01*
X3637133Y6384739D01*
X3631000Y6361849D01*
Y6338151D01*
X3637133Y6315261D01*
X3648982Y6294739D01*
X3665739Y6277982D01*
X3686261Y6266134D01*
X3709151Y6260000D01*
X3732849D01*
X3755738Y6266134D01*
X3776261Y6277982D01*
X3793018Y6294739D01*
X3804866Y6315261D01*
X3811000Y6338151D01*
Y6361849D01*
X3804866Y6384739D01*
X3793018Y6405261D01*
X3776261Y6422018D01*
X3755738Y6433866D01*
X3732849Y6440000D01*
D02*
G37*
G36*
X10090762Y6308800D02*
X10076838D01*
X10063974Y6303472D01*
X10054128Y6293626D01*
X10048800Y6280762D01*
Y6266838D01*
X10054128Y6253974D01*
X10063974Y6244128D01*
X10076838Y6238800D01*
X10090762D01*
X10103626Y6244128D01*
X10113472Y6253974D01*
X10118800Y6266838D01*
Y6280762D01*
X10113472Y6293626D01*
X10103626Y6303472D01*
X10090762Y6308800D01*
D02*
G37*
G36*
X9633562D02*
X9619638D01*
X9606774Y6303472D01*
X9596928Y6293626D01*
X9591600Y6280762D01*
Y6266838D01*
X9596928Y6253974D01*
X9606774Y6244128D01*
X9619638Y6238800D01*
X9633562D01*
X9646426Y6244128D01*
X9656272Y6253974D01*
X9661600Y6266838D01*
Y6280762D01*
X9656272Y6293626D01*
X9646426Y6303472D01*
X9633562Y6308800D01*
D02*
G37*
G36*
X11742734Y6623000D02*
X11701466D01*
X11660991Y6614949D01*
X11622864Y6599156D01*
X11588552Y6576229D01*
X11559371Y6547048D01*
X11536444Y6512736D01*
X11520651Y6474609D01*
X11512600Y6434134D01*
Y6392866D01*
X11520651Y6352391D01*
X11536444Y6314264D01*
X11559371Y6279952D01*
X11588552Y6250771D01*
X11622864Y6227844D01*
X11660991Y6212051D01*
X11701466Y6204000D01*
X11742734D01*
X11783209Y6212051D01*
X11821336Y6227844D01*
X11855648Y6250771D01*
X11884829Y6279952D01*
X11907756Y6314264D01*
X11923549Y6352391D01*
X11931600Y6392866D01*
Y6434134D01*
X11923549Y6474609D01*
X11907756Y6512736D01*
X11884829Y6547048D01*
X11855648Y6576229D01*
X11821336Y6599156D01*
X11783209Y6614949D01*
X11742734Y6623000D01*
D02*
G37*
G36*
X5302862Y6270700D02*
X5288938D01*
X5276074Y6265372D01*
X5266228Y6255526D01*
X5260900Y6242662D01*
Y6228738D01*
X5266228Y6215874D01*
X5276074Y6206028D01*
X5288938Y6200700D01*
X5302862D01*
X5315726Y6206028D01*
X5325572Y6215874D01*
X5330900Y6228738D01*
Y6242662D01*
X5325572Y6255526D01*
X5315726Y6265372D01*
X5302862Y6270700D01*
D02*
G37*
G36*
X9735162Y6245300D02*
X9721238D01*
X9708374Y6239972D01*
X9698528Y6230126D01*
X9693200Y6217262D01*
Y6203338D01*
X9698528Y6190474D01*
X9708374Y6180628D01*
X9721238Y6175300D01*
X9735162D01*
X9748026Y6180628D01*
X9757872Y6190474D01*
X9763200Y6203338D01*
Y6217262D01*
X9757872Y6230126D01*
X9748026Y6239972D01*
X9735162Y6245300D01*
D02*
G37*
G36*
X8896962D02*
X8883038D01*
X8870174Y6239972D01*
X8860328Y6230126D01*
X8855000Y6217262D01*
Y6203338D01*
X8860328Y6190474D01*
X8870174Y6180628D01*
X8883038Y6175300D01*
X8896962D01*
X8909826Y6180628D01*
X8919672Y6190474D01*
X8925000Y6203338D01*
Y6217262D01*
X8919672Y6230126D01*
X8909826Y6239972D01*
X8896962Y6245300D01*
D02*
G37*
G36*
X5137762Y6207200D02*
X5123838D01*
X5110974Y6201872D01*
X5101128Y6192026D01*
X5095800Y6179162D01*
Y6165238D01*
X5101128Y6152374D01*
X5110974Y6142528D01*
X5123838Y6137200D01*
X5137762D01*
X5150626Y6142528D01*
X5160472Y6152374D01*
X5165800Y6165238D01*
Y6179162D01*
X5160472Y6192026D01*
X5150626Y6201872D01*
X5137762Y6207200D01*
D02*
G37*
G36*
X10052662Y6194500D02*
X10038738D01*
X10025874Y6189172D01*
X10016028Y6179326D01*
X10010700Y6166462D01*
Y6152538D01*
X10016028Y6139674D01*
X10025874Y6129828D01*
X10038738Y6124500D01*
X10052662D01*
X10065526Y6129828D01*
X10075372Y6139674D01*
X10080700Y6152538D01*
Y6166462D01*
X10075372Y6179326D01*
X10065526Y6189172D01*
X10052662Y6194500D01*
D02*
G37*
G36*
X7741262Y6181800D02*
X7727338D01*
X7714474Y6176472D01*
X7704628Y6166626D01*
X7699300Y6153762D01*
Y6139838D01*
X7704628Y6126974D01*
X7714474Y6117128D01*
X7727338Y6111800D01*
X7741262D01*
X7754126Y6117128D01*
X7763972Y6126974D01*
X7769300Y6139838D01*
Y6153762D01*
X7763972Y6166626D01*
X7754126Y6176472D01*
X7741262Y6181800D01*
D02*
G37*
G36*
X7017362D02*
X7003438D01*
X6990574Y6176472D01*
X6980728Y6166626D01*
X6975400Y6153762D01*
Y6139838D01*
X6980728Y6126974D01*
X6990574Y6117128D01*
X7003438Y6111800D01*
X7017362D01*
X7030226Y6117128D01*
X7040072Y6126974D01*
X7045400Y6139838D01*
Y6153762D01*
X7040072Y6166626D01*
X7030226Y6176472D01*
X7017362Y6181800D01*
D02*
G37*
G36*
X9735162Y6143700D02*
X9721238D01*
X9708374Y6138372D01*
X9698528Y6128526D01*
X9693200Y6115662D01*
Y6101738D01*
X9698528Y6088874D01*
X9708374Y6079028D01*
X9721238Y6073700D01*
X9735162D01*
X9748026Y6079028D01*
X9757872Y6088874D01*
X9763200Y6101738D01*
Y6115662D01*
X9757872Y6128526D01*
X9748026Y6138372D01*
X9735162Y6143700D01*
D02*
G37*
G36*
X7220562D02*
X7206638D01*
X7193774Y6138372D01*
X7183928Y6128526D01*
X7178600Y6115662D01*
Y6101738D01*
X7183928Y6088874D01*
X7193774Y6079028D01*
X7206638Y6073700D01*
X7220562D01*
X7233426Y6079028D01*
X7243272Y6088874D01*
X7248600Y6101738D01*
Y6115662D01*
X7243272Y6128526D01*
X7233426Y6138372D01*
X7220562Y6143700D01*
D02*
G37*
G36*
X10954362Y6080200D02*
X10940438D01*
X10927574Y6074872D01*
X10917728Y6065026D01*
X10912400Y6052162D01*
Y6038238D01*
X10917728Y6025374D01*
X10927574Y6015528D01*
X10940438Y6010200D01*
X10954362D01*
X10967226Y6015528D01*
X10977072Y6025374D01*
X10982400Y6038238D01*
Y6052162D01*
X10977072Y6065026D01*
X10967226Y6074872D01*
X10954362Y6080200D01*
D02*
G37*
G36*
X3994848Y6190000D02*
X3971151D01*
X3948261Y6183866D01*
X3927739Y6172018D01*
X3910982Y6155261D01*
X3899133Y6134739D01*
X3893000Y6111849D01*
Y6088151D01*
X3899133Y6065261D01*
X3910982Y6044739D01*
X3927739Y6027982D01*
X3948261Y6016134D01*
X3971151Y6010000D01*
X3994848D01*
X4017738Y6016134D01*
X4038261Y6027982D01*
X4055018Y6044739D01*
X4066866Y6065261D01*
X4073000Y6088151D01*
Y6111849D01*
X4066866Y6134739D01*
X4055018Y6155261D01*
X4038261Y6172018D01*
X4017738Y6183866D01*
X3994848Y6190000D01*
D02*
G37*
G36*
X3732849D02*
X3709151D01*
X3686261Y6183866D01*
X3665739Y6172018D01*
X3648982Y6155261D01*
X3637133Y6134739D01*
X3631000Y6111849D01*
Y6088151D01*
X3637133Y6065261D01*
X3648982Y6044739D01*
X3665739Y6027982D01*
X3686261Y6016134D01*
X3709151Y6010000D01*
X3732849D01*
X3755738Y6016134D01*
X3776261Y6027982D01*
X3793018Y6044739D01*
X3804866Y6065261D01*
X3811000Y6088151D01*
Y6111849D01*
X3804866Y6134739D01*
X3793018Y6155261D01*
X3776261Y6172018D01*
X3755738Y6183866D01*
X3732849Y6190000D01*
D02*
G37*
G36*
X11665562Y6054800D02*
X11651638D01*
X11638774Y6049472D01*
X11628928Y6039626D01*
X11623600Y6026762D01*
Y6012838D01*
X11628928Y5999974D01*
X11638774Y5990128D01*
X11651638Y5984800D01*
X11665562D01*
X11678426Y5990128D01*
X11688272Y5999974D01*
X11693600Y6012838D01*
Y6026762D01*
X11688272Y6039626D01*
X11678426Y6049472D01*
X11665562Y6054800D01*
D02*
G37*
G36*
X11525862D02*
X11511938D01*
X11499074Y6049472D01*
X11489228Y6039626D01*
X11483900Y6026762D01*
Y6012838D01*
X11489228Y5999974D01*
X11499074Y5990128D01*
X11511938Y5984800D01*
X11525862D01*
X11538726Y5990128D01*
X11548572Y5999974D01*
X11553900Y6012838D01*
Y6026762D01*
X11548572Y6039626D01*
X11538726Y6049472D01*
X11525862Y6054800D01*
D02*
G37*
G36*
X7298751Y6026700D02*
X7280849D01*
X7264310Y6019849D01*
X7251651Y6007190D01*
X7244800Y5990651D01*
Y5972749D01*
X7251651Y5956210D01*
X7264310Y5943551D01*
X7280849Y5936700D01*
X7298751D01*
X7315290Y5943551D01*
X7327949Y5956210D01*
X7334800Y5972749D01*
Y5990651D01*
X7327949Y6007190D01*
X7315290Y6019849D01*
X7298751Y6026700D01*
D02*
G37*
G36*
X10116162Y5978600D02*
X10102238D01*
X10089374Y5973272D01*
X10079528Y5963426D01*
X10074200Y5950562D01*
Y5936638D01*
X10079528Y5923774D01*
X10089374Y5913928D01*
X10102238Y5908600D01*
X10116162D01*
X10129026Y5913928D01*
X10138872Y5923774D01*
X10144200Y5936638D01*
Y5950562D01*
X10138872Y5963426D01*
X10129026Y5973272D01*
X10116162Y5978600D01*
D02*
G37*
G36*
X4680562Y5953200D02*
X4666638D01*
X4653774Y5947872D01*
X4643928Y5938026D01*
X4638600Y5925162D01*
Y5911238D01*
X4643928Y5898374D01*
X4653774Y5888528D01*
X4666638Y5883200D01*
X4680562D01*
X4693426Y5888528D01*
X4703272Y5898374D01*
X4708600Y5911238D01*
Y5925162D01*
X4703272Y5938026D01*
X4693426Y5947872D01*
X4680562Y5953200D01*
D02*
G37*
G36*
X7436462Y5889700D02*
X7422538D01*
X7409674Y5884372D01*
X7399828Y5874526D01*
X7394500Y5861662D01*
Y5854191D01*
X7387259Y5851010D01*
X7381800Y5850297D01*
X7373126Y5858972D01*
X7360262Y5864300D01*
X7346338D01*
X7333474Y5858972D01*
X7323628Y5849126D01*
X7318300Y5836262D01*
Y5822338D01*
X7323628Y5809474D01*
X7333474Y5799628D01*
X7346338Y5794300D01*
X7360262D01*
X7373126Y5799628D01*
X7382972Y5809474D01*
X7388300Y5822338D01*
Y5829809D01*
X7395541Y5832990D01*
X7401000Y5833703D01*
X7409674Y5825028D01*
X7422538Y5819700D01*
X7436462D01*
X7449326Y5825028D01*
X7450684Y5826387D01*
X7461451Y5819193D01*
X7458000Y5810862D01*
Y5796938D01*
X7463328Y5784074D01*
X7472394Y5775009D01*
X7472650Y5771670D01*
X7470579Y5761557D01*
X7460474Y5757372D01*
X7450628Y5747526D01*
X7445300Y5734662D01*
Y5720738D01*
X7450628Y5707874D01*
X7460474Y5698028D01*
X7473338Y5692700D01*
X7487262D01*
X7500126Y5698028D01*
X7509972Y5707874D01*
X7515300Y5720738D01*
Y5734662D01*
X7509972Y5747526D01*
X7500906Y5756591D01*
X7500650Y5759930D01*
X7502721Y5770043D01*
X7512826Y5774228D01*
X7522672Y5784074D01*
X7528000Y5796938D01*
Y5810862D01*
X7522672Y5823726D01*
X7512826Y5833572D01*
X7499962Y5838900D01*
X7486038D01*
X7473174Y5833572D01*
X7471816Y5832213D01*
X7461049Y5839407D01*
X7464500Y5847738D01*
Y5861662D01*
X7459172Y5874526D01*
X7449326Y5884372D01*
X7436462Y5889700D01*
D02*
G37*
G36*
X11690962Y5902400D02*
X11677038D01*
X11664174Y5897072D01*
X11654328Y5887226D01*
X11649000Y5874362D01*
Y5860438D01*
X11654328Y5847574D01*
X11664174Y5837728D01*
X11677038Y5832400D01*
X11690962D01*
X11703826Y5837728D01*
X11713672Y5847574D01*
X11719000Y5860438D01*
Y5874362D01*
X11713672Y5887226D01*
X11703826Y5897072D01*
X11690962Y5902400D01*
D02*
G37*
G36*
X5163162D02*
X5149238D01*
X5136374Y5897072D01*
X5126528Y5887226D01*
X5121200Y5874362D01*
Y5860438D01*
X5126528Y5847574D01*
X5136374Y5837728D01*
X5149238Y5832400D01*
X5163162D01*
X5176026Y5837728D01*
X5185872Y5847574D01*
X5191200Y5860438D01*
Y5874362D01*
X5185872Y5887226D01*
X5176026Y5897072D01*
X5163162Y5902400D01*
D02*
G37*
G36*
X3994848Y5990000D02*
X3971151D01*
X3948261Y5983866D01*
X3927739Y5972018D01*
X3910982Y5955261D01*
X3899133Y5934738D01*
X3893000Y5911848D01*
Y5888151D01*
X3899133Y5865261D01*
X3910982Y5844739D01*
X3927739Y5827982D01*
X3948261Y5816133D01*
X3971151Y5810000D01*
X3994848D01*
X4017738Y5816133D01*
X4038261Y5827982D01*
X4055018Y5844739D01*
X4066866Y5865261D01*
X4073000Y5888151D01*
Y5911848D01*
X4066866Y5934738D01*
X4055018Y5955261D01*
X4038261Y5972018D01*
X4017738Y5983866D01*
X3994848Y5990000D01*
D02*
G37*
G36*
X3732849D02*
X3709151D01*
X3686261Y5983866D01*
X3665739Y5972018D01*
X3648982Y5955261D01*
X3637133Y5934738D01*
X3631000Y5911848D01*
Y5888151D01*
X3637133Y5865261D01*
X3648982Y5844739D01*
X3665739Y5827982D01*
X3686261Y5816133D01*
X3709151Y5810000D01*
X3732849D01*
X3755738Y5816133D01*
X3776261Y5827982D01*
X3793018Y5844739D01*
X3804866Y5865261D01*
X3811000Y5888151D01*
Y5911848D01*
X3804866Y5934738D01*
X3793018Y5955261D01*
X3776261Y5972018D01*
X3755738Y5983866D01*
X3732849Y5990000D01*
D02*
G37*
G36*
X4849640Y5897000D02*
X4827760D01*
X4807545Y5888627D01*
X4792073Y5873155D01*
X4783700Y5852940D01*
Y5831060D01*
X4792073Y5810845D01*
X4807545Y5795373D01*
X4827760Y5787000D01*
X4849640D01*
X4869855Y5795373D01*
X4885327Y5810845D01*
X4893700Y5831060D01*
Y5852940D01*
X4885327Y5873155D01*
X4869855Y5888627D01*
X4849640Y5897000D01*
D02*
G37*
G36*
X10128862Y5851600D02*
X10114938D01*
X10102074Y5846272D01*
X10092228Y5836426D01*
X10086900Y5823562D01*
Y5809638D01*
X10092228Y5796774D01*
X10102074Y5786928D01*
X10114938Y5781600D01*
X10128862D01*
X10141726Y5786928D01*
X10151572Y5796774D01*
X10156900Y5809638D01*
Y5823562D01*
X10151572Y5836426D01*
X10141726Y5846272D01*
X10128862Y5851600D01*
D02*
G37*
G36*
X5023462D02*
X5009538D01*
X4996674Y5846272D01*
X4986828Y5836426D01*
X4981500Y5823562D01*
Y5809638D01*
X4986828Y5796774D01*
X4996674Y5786928D01*
X5009538Y5781600D01*
X5023462D01*
X5036326Y5786928D01*
X5046172Y5796774D01*
X5051500Y5809638D01*
Y5823562D01*
X5046172Y5836426D01*
X5036326Y5846272D01*
X5023462Y5851600D01*
D02*
G37*
G36*
X8884262Y5800800D02*
X8870338D01*
X8857474Y5795472D01*
X8847628Y5785626D01*
X8842300Y5772762D01*
Y5758838D01*
X8847628Y5745974D01*
X8857474Y5736128D01*
X8870338Y5730800D01*
X8884262D01*
X8897126Y5736128D01*
X8906972Y5745974D01*
X8912300Y5758838D01*
Y5772762D01*
X8906972Y5785626D01*
X8897126Y5795472D01*
X8884262Y5800800D01*
D02*
G37*
G36*
X5429862Y5788100D02*
X5415938D01*
X5403074Y5782772D01*
X5393228Y5772926D01*
X5387900Y5760062D01*
Y5746138D01*
X5393228Y5733274D01*
X5403074Y5723428D01*
X5415938Y5718100D01*
X5429862D01*
X5442726Y5723428D01*
X5452572Y5733274D01*
X5457900Y5746138D01*
Y5760062D01*
X5452572Y5772926D01*
X5442726Y5782772D01*
X5429862Y5788100D01*
D02*
G37*
G36*
X5328262D02*
X5314338D01*
X5301474Y5782772D01*
X5291628Y5772926D01*
X5286300Y5760062D01*
Y5746138D01*
X5291628Y5733274D01*
X5301474Y5723428D01*
X5314338Y5718100D01*
X5328262D01*
X5341126Y5723428D01*
X5350972Y5733274D01*
X5356300Y5746138D01*
Y5760062D01*
X5350972Y5772926D01*
X5341126Y5782772D01*
X5328262Y5788100D01*
D02*
G37*
G36*
X10116162Y5737300D02*
X10102238D01*
X10089374Y5731972D01*
X10079528Y5722126D01*
X10074200Y5709262D01*
Y5695338D01*
X10079528Y5682474D01*
X10089374Y5672628D01*
X10102238Y5667300D01*
X10116162D01*
X10129026Y5672628D01*
X10138872Y5682474D01*
X10144200Y5695338D01*
Y5709262D01*
X10138872Y5722126D01*
X10129026Y5731972D01*
X10116162Y5737300D01*
D02*
G37*
G36*
X9087462Y5711900D02*
X9073538D01*
X9060674Y5706572D01*
X9050828Y5696726D01*
X9045500Y5683862D01*
Y5669938D01*
X9050828Y5657074D01*
X9060674Y5647228D01*
X9073538Y5641900D01*
X9087462D01*
X9100326Y5647228D01*
X9110172Y5657074D01*
X9115500Y5669938D01*
Y5683862D01*
X9110172Y5696726D01*
X9100326Y5706572D01*
X9087462Y5711900D01*
D02*
G37*
G36*
X5861662Y5699200D02*
X5847738D01*
X5834874Y5693872D01*
X5825028Y5684026D01*
X5819700Y5671162D01*
Y5657238D01*
X5825028Y5644374D01*
X5834874Y5634528D01*
X5847738Y5629200D01*
X5861662D01*
X5874526Y5634528D01*
X5884372Y5644374D01*
X5889700Y5657238D01*
Y5671162D01*
X5884372Y5684026D01*
X5874526Y5693872D01*
X5861662Y5699200D01*
D02*
G37*
G36*
X6587551Y5658400D02*
X6569649D01*
X6553110Y5651549D01*
X6540451Y5638890D01*
X6533600Y5622351D01*
Y5604449D01*
X6540451Y5587910D01*
X6553110Y5575251D01*
X6569649Y5568400D01*
X6587551D01*
X6604090Y5575251D01*
X6616749Y5587910D01*
X6623600Y5604449D01*
Y5622351D01*
X6616749Y5638890D01*
X6604090Y5651549D01*
X6587551Y5658400D01*
D02*
G37*
G36*
X3732849Y5740000D02*
X3709151D01*
X3686261Y5733866D01*
X3665739Y5722018D01*
X3648982Y5705261D01*
X3637133Y5684738D01*
X3631000Y5661848D01*
Y5638151D01*
X3637133Y5615261D01*
X3648982Y5594739D01*
X3665739Y5577982D01*
X3686261Y5566133D01*
X3709151Y5560000D01*
X3732849D01*
X3755738Y5566133D01*
X3776261Y5577982D01*
X3793018Y5594739D01*
X3804866Y5615261D01*
X3811000Y5638151D01*
Y5661848D01*
X3804866Y5684738D01*
X3793018Y5705261D01*
X3776261Y5722018D01*
X3755738Y5733866D01*
X3732849Y5740000D01*
D02*
G37*
G36*
X11694835Y5708400D02*
X11673165D01*
X11652233Y5702791D01*
X11633467Y5691956D01*
X11618144Y5676633D01*
X11607309Y5657867D01*
X11601700Y5636935D01*
Y5615265D01*
X11607309Y5594333D01*
X11618144Y5575567D01*
X11633467Y5560244D01*
X11652233Y5549409D01*
X11673165Y5543800D01*
X11694835D01*
X11715767Y5549409D01*
X11734533Y5560244D01*
X11749856Y5575567D01*
X11760691Y5594333D01*
X11766300Y5615265D01*
Y5636935D01*
X11760691Y5657867D01*
X11749856Y5676633D01*
X11734533Y5691956D01*
X11715767Y5702791D01*
X11694835Y5708400D01*
D02*
G37*
G36*
X10907835D02*
X10886165D01*
X10865234Y5702791D01*
X10846467Y5691956D01*
X10831144Y5676633D01*
X10820309Y5657867D01*
X10814700Y5636935D01*
Y5615265D01*
X10820309Y5594333D01*
X10831144Y5575567D01*
X10846467Y5560244D01*
X10865234Y5549409D01*
X10886165Y5543800D01*
X10907835D01*
X10928767Y5549409D01*
X10947533Y5560244D01*
X10962856Y5575567D01*
X10973691Y5594333D01*
X10979300Y5615265D01*
Y5636935D01*
X10973691Y5657867D01*
X10962856Y5676633D01*
X10947533Y5691956D01*
X10928767Y5702791D01*
X10907835Y5708400D01*
D02*
G37*
G36*
X5010762Y5559500D02*
X4996838D01*
X4983974Y5554172D01*
X4974128Y5544326D01*
X4968800Y5531462D01*
Y5525179D01*
X4966670Y5522942D01*
X4956100Y5517739D01*
X4947262Y5521400D01*
X4933338D01*
X4920474Y5516072D01*
X4910628Y5506226D01*
X4905300Y5493362D01*
Y5479438D01*
X4910628Y5466574D01*
X4920474Y5456728D01*
X4933338Y5451400D01*
X4947262D01*
X4960126Y5456728D01*
X4969972Y5466574D01*
X4975300Y5479438D01*
Y5485721D01*
X4977430Y5487958D01*
X4988000Y5493161D01*
X4996838Y5489500D01*
X5010762D01*
X5023626Y5494828D01*
X5033472Y5504674D01*
X5038800Y5517538D01*
Y5531462D01*
X5033472Y5544326D01*
X5023626Y5554172D01*
X5010762Y5559500D01*
D02*
G37*
G36*
X8033362Y5584900D02*
X8019438D01*
X8006574Y5579572D01*
X7996728Y5569726D01*
X7991400Y5556862D01*
Y5542938D01*
X7996728Y5530074D01*
X8006574Y5520228D01*
X8019438Y5514900D01*
X8033362D01*
X8046226Y5520228D01*
X8056072Y5530074D01*
X8061400Y5542938D01*
Y5556862D01*
X8056072Y5569726D01*
X8046226Y5579572D01*
X8033362Y5584900D01*
D02*
G37*
G36*
X7830162D02*
X7816238D01*
X7803374Y5579572D01*
X7793528Y5569726D01*
X7788200Y5556862D01*
Y5542938D01*
X7793528Y5530074D01*
X7803374Y5520228D01*
X7816238Y5514900D01*
X7830162D01*
X7843026Y5520228D01*
X7852872Y5530074D01*
X7858200Y5542938D01*
Y5556862D01*
X7852872Y5569726D01*
X7843026Y5579572D01*
X7830162Y5584900D01*
D02*
G37*
G36*
X5887062D02*
X5873138D01*
X5860274Y5579572D01*
X5850428Y5569726D01*
X5845100Y5556862D01*
Y5542938D01*
X5850428Y5530074D01*
X5860274Y5520228D01*
X5873138Y5514900D01*
X5887062D01*
X5899926Y5520228D01*
X5909772Y5530074D01*
X5915100Y5542938D01*
Y5556862D01*
X5909772Y5569726D01*
X5899926Y5579572D01*
X5887062Y5584900D01*
D02*
G37*
G36*
X9138262Y5635700D02*
X9124338D01*
X9111474Y5630372D01*
X9101628Y5620526D01*
X9096300Y5607662D01*
Y5593738D01*
X9101628Y5580874D01*
X9111474Y5571028D01*
X9124338Y5565700D01*
X9138262D01*
X9146593Y5569151D01*
X9153787Y5558384D01*
X9152428Y5557026D01*
X9147100Y5544162D01*
Y5530238D01*
X9152428Y5517374D01*
X9162274Y5507528D01*
X9175138Y5502200D01*
X9189062D01*
X9201926Y5507528D01*
X9211772Y5517374D01*
X9217100Y5530238D01*
Y5544162D01*
X9211772Y5557026D01*
X9201926Y5566872D01*
X9189062Y5572200D01*
X9175138D01*
X9166807Y5568749D01*
X9159613Y5579516D01*
X9160972Y5580874D01*
X9166300Y5593738D01*
Y5607662D01*
X9160972Y5620526D01*
X9151126Y5630372D01*
X9138262Y5635700D01*
D02*
G37*
G36*
X5556862Y5457900D02*
X5542938D01*
X5530074Y5452572D01*
X5520228Y5442726D01*
X5518673Y5438971D01*
X5504927D01*
X5503372Y5442726D01*
X5493526Y5452572D01*
X5480662Y5457900D01*
X5466738D01*
X5453874Y5452572D01*
X5444028Y5442726D01*
X5442473Y5438971D01*
X5428727D01*
X5427172Y5442726D01*
X5417326Y5452572D01*
X5404462Y5457900D01*
X5390538D01*
X5377674Y5452572D01*
X5367828Y5442726D01*
X5366273Y5438971D01*
X5352527D01*
X5350972Y5442726D01*
X5341126Y5452572D01*
X5328262Y5457900D01*
X5314338D01*
X5301474Y5452572D01*
X5291628Y5442726D01*
X5290073Y5438971D01*
X5276327D01*
X5274772Y5442726D01*
X5264926Y5452572D01*
X5252062Y5457900D01*
X5238138D01*
X5225274Y5452572D01*
X5215428Y5442726D01*
X5210100Y5429862D01*
Y5415938D01*
X5215428Y5403074D01*
X5225274Y5393228D01*
X5229029Y5391673D01*
Y5377927D01*
X5225274Y5376372D01*
X5215428Y5366526D01*
X5210100Y5353662D01*
Y5339738D01*
X5215428Y5326874D01*
X5225274Y5317028D01*
X5229029Y5315473D01*
Y5301727D01*
X5225274Y5300172D01*
X5215428Y5290326D01*
X5210100Y5277462D01*
Y5263538D01*
X5215428Y5250674D01*
X5225274Y5240828D01*
X5229029Y5239273D01*
Y5225527D01*
X5225274Y5223972D01*
X5215428Y5214126D01*
X5210100Y5201262D01*
Y5187338D01*
X5215428Y5174474D01*
X5225274Y5164628D01*
X5229029Y5163073D01*
Y5149327D01*
X5225274Y5147772D01*
X5215428Y5137926D01*
X5210100Y5125062D01*
Y5111138D01*
X5215428Y5098274D01*
X5225274Y5088428D01*
X5238138Y5083100D01*
X5252062D01*
X5264926Y5088428D01*
X5274772Y5098274D01*
X5276327Y5102029D01*
X5290073D01*
X5291628Y5098274D01*
X5301474Y5088428D01*
X5314338Y5083100D01*
X5328262D01*
X5341126Y5088428D01*
X5350972Y5098274D01*
X5352527Y5102029D01*
X5366273D01*
X5367828Y5098274D01*
X5377674Y5088428D01*
X5390538Y5083100D01*
X5404462D01*
X5417326Y5088428D01*
X5427172Y5098274D01*
X5428727Y5102029D01*
X5442473D01*
X5444028Y5098274D01*
X5453874Y5088428D01*
X5466738Y5083100D01*
X5480662D01*
X5493526Y5088428D01*
X5503372Y5098274D01*
X5504927Y5102029D01*
X5518673D01*
X5520228Y5098274D01*
X5530074Y5088428D01*
X5542938Y5083100D01*
X5556862D01*
X5569726Y5088428D01*
X5579572Y5098274D01*
X5584900Y5111138D01*
Y5125062D01*
X5579572Y5137926D01*
X5569726Y5147772D01*
X5565971Y5149327D01*
Y5163073D01*
X5569726Y5164628D01*
X5579572Y5174474D01*
X5584900Y5187338D01*
Y5201262D01*
X5579572Y5214126D01*
X5569726Y5223972D01*
X5565971Y5225527D01*
Y5239273D01*
X5569726Y5240828D01*
X5579572Y5250674D01*
X5584900Y5263538D01*
Y5277462D01*
X5579572Y5290326D01*
X5569726Y5300172D01*
X5565971Y5301727D01*
Y5315473D01*
X5569726Y5317028D01*
X5579572Y5326874D01*
X5584900Y5339738D01*
Y5353662D01*
X5579572Y5366526D01*
X5569726Y5376372D01*
X5565971Y5377927D01*
Y5391673D01*
X5569726Y5393228D01*
X5579572Y5403074D01*
X5584900Y5415938D01*
Y5429862D01*
X5579572Y5442726D01*
X5569726Y5452572D01*
X5556862Y5457900D01*
D02*
G37*
G36*
X4248762Y5584900D02*
X4234838D01*
X4221974Y5579572D01*
X4212128Y5569726D01*
X4206800Y5556862D01*
Y5542938D01*
X4212128Y5530074D01*
X4221974Y5520228D01*
X4234838Y5514900D01*
X4242309D01*
X4245490Y5507659D01*
X4246203Y5502200D01*
X4237528Y5493526D01*
X4232200Y5480662D01*
Y5466738D01*
X4237528Y5453874D01*
X4247374Y5444028D01*
X4260238Y5438700D01*
X4274162D01*
X4287026Y5444028D01*
X4296872Y5453874D01*
X4302200Y5466738D01*
Y5480662D01*
X4296872Y5493526D01*
X4287026Y5503372D01*
X4274162Y5508700D01*
X4266691D01*
X4263510Y5515941D01*
X4262797Y5521400D01*
X4271472Y5530074D01*
X4276800Y5542938D01*
Y5556862D01*
X4271472Y5569726D01*
X4261626Y5579572D01*
X4248762Y5584900D01*
D02*
G37*
G36*
X9239862Y5496000D02*
X9225938D01*
X9213074Y5490672D01*
X9203228Y5480826D01*
X9197900Y5467962D01*
Y5454038D01*
X9203228Y5441174D01*
X9213074Y5431328D01*
X9225938Y5426000D01*
X9239862D01*
X9252726Y5431328D01*
X9262572Y5441174D01*
X9267900Y5454038D01*
Y5467962D01*
X9262572Y5480826D01*
X9252726Y5490672D01*
X9239862Y5496000D01*
D02*
G37*
G36*
X4388462Y5419800D02*
X4374538D01*
X4361674Y5414472D01*
X4351828Y5404626D01*
X4346500Y5391762D01*
Y5377838D01*
X4351828Y5364974D01*
X4361674Y5355128D01*
X4374538Y5349800D01*
X4388462D01*
X4401326Y5355128D01*
X4411172Y5364974D01*
X4416500Y5377838D01*
Y5391762D01*
X4411172Y5404626D01*
X4401326Y5414472D01*
X4388462Y5419800D01*
D02*
G37*
G36*
X9684362Y5407100D02*
X9670438D01*
X9657574Y5401772D01*
X9647728Y5391926D01*
X9642400Y5379062D01*
Y5365138D01*
X9647728Y5352274D01*
X9657574Y5342428D01*
X9670438Y5337100D01*
X9684362D01*
X9697226Y5342428D01*
X9707072Y5352274D01*
X9712400Y5365138D01*
Y5379062D01*
X9707072Y5391926D01*
X9697226Y5401772D01*
X9684362Y5407100D01*
D02*
G37*
G36*
X9366862D02*
X9352938D01*
X9340074Y5401772D01*
X9330228Y5391926D01*
X9324900Y5379062D01*
Y5365138D01*
X9330228Y5352274D01*
X9340074Y5342428D01*
X9352938Y5337100D01*
X9366862D01*
X9379726Y5342428D01*
X9389572Y5352274D01*
X9394900Y5365138D01*
Y5379062D01*
X9389572Y5391926D01*
X9379726Y5401772D01*
X9366862Y5407100D01*
D02*
G37*
G36*
X6687162Y5597600D02*
X6673238D01*
X6660374Y5592272D01*
X6650528Y5582426D01*
X6645200Y5569562D01*
Y5555638D01*
X6650528Y5542774D01*
X6660374Y5532928D01*
X6664129Y5531373D01*
Y5517627D01*
X6660374Y5516072D01*
X6650528Y5506226D01*
X6645200Y5493362D01*
Y5479438D01*
X6650528Y5466574D01*
X6660374Y5456728D01*
X6664129Y5455173D01*
Y5441427D01*
X6660374Y5439872D01*
X6650528Y5430026D01*
X6645200Y5417162D01*
Y5403238D01*
X6650528Y5390374D01*
X6660374Y5380528D01*
X6673238Y5375200D01*
X6685914D01*
X6691290Y5370490D01*
X6696000Y5365114D01*
Y5352438D01*
X6701328Y5339574D01*
X6711174Y5329728D01*
X6724038Y5324400D01*
X6737962D01*
X6750826Y5329728D01*
X6760672Y5339574D01*
X6766000Y5352438D01*
Y5366362D01*
X6760672Y5379226D01*
X6750826Y5389072D01*
X6737962Y5394400D01*
X6725286D01*
X6719910Y5399110D01*
X6715200Y5404486D01*
Y5417162D01*
X6709872Y5430026D01*
X6700026Y5439872D01*
X6696271Y5441427D01*
Y5455173D01*
X6700026Y5456728D01*
X6709872Y5466574D01*
X6715200Y5479438D01*
Y5493362D01*
X6709872Y5506226D01*
X6700026Y5516072D01*
X6696271Y5517627D01*
Y5531373D01*
X6700026Y5532928D01*
X6709872Y5542774D01*
X6715200Y5555638D01*
Y5569562D01*
X6709872Y5582426D01*
X6700026Y5592272D01*
X6687162Y5597600D01*
D02*
G37*
G36*
X4959962Y5394400D02*
X4946038D01*
X4933174Y5389072D01*
X4923328Y5379226D01*
X4918000Y5366362D01*
Y5352438D01*
X4923328Y5339574D01*
X4933174Y5329728D01*
X4946038Y5324400D01*
X4959962D01*
X4972826Y5329728D01*
X4982672Y5339574D01*
X4988000Y5352438D01*
Y5366362D01*
X4982672Y5379226D01*
X4972826Y5389072D01*
X4959962Y5394400D01*
D02*
G37*
G36*
X11694835Y5454400D02*
X11673165D01*
X11652233Y5448791D01*
X11633467Y5437956D01*
X11618144Y5422633D01*
X11607309Y5403867D01*
X11601700Y5382935D01*
Y5361265D01*
X11607309Y5340333D01*
X11618144Y5321567D01*
X11633467Y5306244D01*
X11652233Y5295409D01*
X11673165Y5289800D01*
X11694835D01*
X11715767Y5295409D01*
X11734533Y5306244D01*
X11749856Y5321567D01*
X11760691Y5340333D01*
X11766300Y5361265D01*
Y5382935D01*
X11760691Y5403867D01*
X11749856Y5422633D01*
X11734533Y5437956D01*
X11715767Y5448791D01*
X11694835Y5454400D01*
D02*
G37*
G36*
X10907835D02*
X10886165D01*
X10865234Y5448791D01*
X10846467Y5437956D01*
X10831144Y5422633D01*
X10820309Y5403867D01*
X10814700Y5382935D01*
Y5361265D01*
X10820309Y5340333D01*
X10831144Y5321567D01*
X10846467Y5306244D01*
X10865234Y5295409D01*
X10886165Y5289800D01*
X10907835D01*
X10928767Y5295409D01*
X10947533Y5306244D01*
X10962856Y5321567D01*
X10973691Y5340333D01*
X10979300Y5361265D01*
Y5382935D01*
X10973691Y5403867D01*
X10962856Y5422633D01*
X10947533Y5437956D01*
X10928767Y5448791D01*
X10907835Y5454400D01*
D02*
G37*
G36*
X4324962Y5343600D02*
X4311038D01*
X4298174Y5338272D01*
X4288328Y5328426D01*
X4283000Y5315562D01*
Y5301638D01*
X4288328Y5288774D01*
X4298174Y5278928D01*
X4311038Y5273600D01*
X4324962D01*
X4337826Y5278928D01*
X4347672Y5288774D01*
X4353000Y5301638D01*
Y5315562D01*
X4347672Y5328426D01*
X4337826Y5338272D01*
X4324962Y5343600D01*
D02*
G37*
G36*
X9671662Y5305500D02*
X9657738D01*
X9644874Y5300172D01*
X9635028Y5290326D01*
X9629700Y5277462D01*
Y5263538D01*
X9635028Y5250674D01*
X9644874Y5240828D01*
X9657738Y5235500D01*
X9671662D01*
X9684526Y5240828D01*
X9694372Y5250674D01*
X9699700Y5263538D01*
Y5277462D01*
X9694372Y5290326D01*
X9684526Y5300172D01*
X9671662Y5305500D01*
D02*
G37*
G36*
X9354162D02*
X9340238D01*
X9327374Y5300172D01*
X9317528Y5290326D01*
X9312200Y5277462D01*
Y5263538D01*
X9317528Y5250674D01*
X9327374Y5240828D01*
X9340238Y5235500D01*
X9354162D01*
X9367026Y5240828D01*
X9376872Y5250674D01*
X9382200Y5263538D01*
Y5277462D01*
X9376872Y5290326D01*
X9367026Y5300172D01*
X9354162Y5305500D01*
D02*
G37*
G36*
X11094062Y5267400D02*
X11080138D01*
X11067274Y5262072D01*
X11057428Y5252226D01*
X11052100Y5239362D01*
Y5225438D01*
X11057428Y5212574D01*
X11067274Y5202728D01*
X11080138Y5197400D01*
X11094062D01*
X11106926Y5202728D01*
X11116772Y5212574D01*
X11122100Y5225438D01*
Y5239362D01*
X11116772Y5252226D01*
X11106926Y5262072D01*
X11094062Y5267400D01*
D02*
G37*
G36*
X8642962D02*
X8629038D01*
X8616174Y5262072D01*
X8606328Y5252226D01*
X8601000Y5239362D01*
Y5225438D01*
X8606328Y5212574D01*
X8616174Y5202728D01*
X8629038Y5197400D01*
X8642962D01*
X8655826Y5202728D01*
X8665672Y5212574D01*
X8671000Y5225438D01*
Y5239362D01*
X8665672Y5252226D01*
X8655826Y5262072D01*
X8642962Y5267400D01*
D02*
G37*
G36*
X6356962D02*
X6343038D01*
X6330174Y5262072D01*
X6320328Y5252226D01*
X6315000Y5239362D01*
Y5225438D01*
X6320328Y5212574D01*
X6330174Y5202728D01*
X6343038Y5197400D01*
X6356962D01*
X6369826Y5202728D01*
X6379672Y5212574D01*
X6385000Y5225438D01*
Y5239362D01*
X6379672Y5252226D01*
X6369826Y5262072D01*
X6356962Y5267400D01*
D02*
G37*
G36*
X4972662Y5254700D02*
X4958738D01*
X4945874Y5249372D01*
X4936028Y5239526D01*
X4930700Y5226662D01*
Y5212738D01*
X4936028Y5199874D01*
X4945874Y5190028D01*
X4958738Y5184700D01*
X4972662D01*
X4985526Y5190028D01*
X4995372Y5199874D01*
X5000700Y5212738D01*
Y5226662D01*
X4995372Y5239526D01*
X4985526Y5249372D01*
X4972662Y5254700D01*
D02*
G37*
G36*
X5950562Y5216600D02*
X5936638D01*
X5923774Y5211272D01*
X5913928Y5201426D01*
X5908600Y5188562D01*
Y5174638D01*
X5913928Y5161774D01*
X5923774Y5151928D01*
X5936638Y5146600D01*
X5950562D01*
X5963426Y5151928D01*
X5973272Y5161774D01*
X5978600Y5174638D01*
Y5188562D01*
X5973272Y5201426D01*
X5963426Y5211272D01*
X5950562Y5216600D01*
D02*
G37*
G36*
X3994848Y5740000D02*
X3971151D01*
X3948261Y5733866D01*
X3927739Y5722018D01*
X3910982Y5705261D01*
X3899133Y5684738D01*
X3893000Y5661848D01*
Y5638151D01*
X3899133Y5615261D01*
X3910982Y5594739D01*
X3927739Y5577982D01*
X3948261Y5566133D01*
X3958125Y5563490D01*
X3966846Y5548235D01*
X3966463Y5546863D01*
X3956745Y5544929D01*
X3918528Y5529099D01*
X3884133Y5506118D01*
X3854882Y5476867D01*
X3831900Y5442472D01*
X3816070Y5404255D01*
X3808000Y5363683D01*
Y5322317D01*
X3816070Y5281745D01*
X3831900Y5243528D01*
X3854882Y5209133D01*
X3884133Y5179882D01*
X3918528Y5156901D01*
X3956745Y5141070D01*
X3997317Y5133000D01*
X4038683D01*
X4079254Y5141070D01*
X4117472Y5156901D01*
X4151867Y5179882D01*
X4181117Y5209133D01*
X4204099Y5243528D01*
X4219929Y5281745D01*
X4228000Y5322317D01*
Y5363683D01*
X4219929Y5404255D01*
X4204099Y5442472D01*
X4181117Y5476867D01*
X4151867Y5506118D01*
X4117472Y5529099D01*
X4079254Y5544929D01*
X4038683Y5553000D01*
X4017793D01*
X4016120Y5565700D01*
X4017738Y5566133D01*
X4038261Y5577982D01*
X4055018Y5594739D01*
X4066866Y5615261D01*
X4073000Y5638151D01*
Y5661848D01*
X4066866Y5684738D01*
X4055018Y5705261D01*
X4038261Y5722018D01*
X4017738Y5733866D01*
X3994848Y5740000D01*
D02*
G37*
G36*
X3470683Y5553000D02*
X3429317D01*
X3388745Y5544929D01*
X3350528Y5529099D01*
X3316133Y5506118D01*
X3286882Y5476867D01*
X3263901Y5442472D01*
X3248070Y5404255D01*
X3240000Y5363683D01*
Y5322317D01*
X3248070Y5281745D01*
X3263901Y5243528D01*
X3286882Y5209133D01*
X3316133Y5179882D01*
X3350528Y5156901D01*
X3388745Y5141070D01*
X3429317Y5133000D01*
X3470683D01*
X3511255Y5141070D01*
X3549472Y5156901D01*
X3583867Y5179882D01*
X3613117Y5209133D01*
X3636099Y5243528D01*
X3651929Y5281745D01*
X3660000Y5322317D01*
Y5363683D01*
X3651929Y5404255D01*
X3636099Y5442472D01*
X3613117Y5476867D01*
X3583867Y5506118D01*
X3549472Y5529099D01*
X3511255Y5544929D01*
X3470683Y5553000D01*
D02*
G37*
G36*
X6991962Y5191200D02*
X6978038D01*
X6965174Y5185872D01*
X6955328Y5176026D01*
X6950000Y5163162D01*
Y5149238D01*
X6955328Y5136374D01*
X6965174Y5126528D01*
X6978038Y5121200D01*
X6991962D01*
X7004826Y5126528D01*
X7014672Y5136374D01*
X7020000Y5149238D01*
Y5163162D01*
X7014672Y5176026D01*
X7004826Y5185872D01*
X6991962Y5191200D01*
D02*
G37*
G36*
X10052662Y5178500D02*
X10038738D01*
X10025874Y5173172D01*
X10016028Y5163326D01*
X10010700Y5150462D01*
Y5136538D01*
X10016028Y5123674D01*
X10025874Y5113828D01*
X10038738Y5108500D01*
X10052662D01*
X10065526Y5113828D01*
X10075372Y5123674D01*
X10080700Y5136538D01*
Y5150462D01*
X10075372Y5163326D01*
X10065526Y5173172D01*
X10052662Y5178500D01*
D02*
G37*
G36*
X4680562D02*
X4666638D01*
X4653774Y5173172D01*
X4643928Y5163326D01*
X4638600Y5150462D01*
Y5136538D01*
X4643928Y5123674D01*
X4653774Y5113828D01*
X4666638Y5108500D01*
X4680562D01*
X4693426Y5113828D01*
X4703272Y5123674D01*
X4708600Y5136538D01*
Y5150462D01*
X4703272Y5163326D01*
X4693426Y5173172D01*
X4680562Y5178500D01*
D02*
G37*
G36*
X6217262Y5153100D02*
X6203338D01*
X6190474Y5147772D01*
X6180628Y5137926D01*
X6175300Y5125062D01*
Y5111138D01*
X6180628Y5098274D01*
X6190474Y5088428D01*
X6203338Y5083100D01*
X6217262D01*
X6230126Y5088428D01*
X6239972Y5098274D01*
X6245300Y5111138D01*
Y5125062D01*
X6239972Y5137926D01*
X6230126Y5147772D01*
X6217262Y5153100D01*
D02*
G37*
G36*
X6102962D02*
X6089038D01*
X6076174Y5147772D01*
X6066328Y5137926D01*
X6061000Y5125062D01*
Y5111138D01*
X6066328Y5098274D01*
X6076174Y5088428D01*
X6089038Y5083100D01*
X6102962D01*
X6115826Y5088428D01*
X6125672Y5098274D01*
X6131000Y5111138D01*
Y5125062D01*
X6125672Y5137926D01*
X6115826Y5147772D01*
X6102962Y5153100D01*
D02*
G37*
G36*
X9963762Y5115000D02*
X9949838D01*
X9936974Y5109672D01*
X9927128Y5099826D01*
X9921800Y5086962D01*
Y5073038D01*
X9927128Y5060174D01*
X9936974Y5050328D01*
X9949838Y5045000D01*
X9963762D01*
X9976626Y5050328D01*
X9986472Y5060174D01*
X9991800Y5073038D01*
Y5086962D01*
X9986472Y5099826D01*
X9976626Y5109672D01*
X9963762Y5115000D01*
D02*
G37*
G36*
X11694835Y5200400D02*
X11673165D01*
X11652233Y5194791D01*
X11633467Y5183956D01*
X11618144Y5168633D01*
X11607309Y5149867D01*
X11601700Y5128935D01*
Y5107265D01*
X11607309Y5086333D01*
X11618144Y5067567D01*
X11633467Y5052244D01*
X11652233Y5041409D01*
X11673165Y5035800D01*
X11694835D01*
X11715767Y5041409D01*
X11734533Y5052244D01*
X11749856Y5067567D01*
X11760691Y5086333D01*
X11766300Y5107265D01*
Y5128935D01*
X11760691Y5149867D01*
X11749856Y5168633D01*
X11734533Y5183956D01*
X11715767Y5194791D01*
X11694835Y5200400D01*
D02*
G37*
G36*
X10907835D02*
X10886165D01*
X10865234Y5194791D01*
X10846467Y5183956D01*
X10831144Y5168633D01*
X10820309Y5149867D01*
X10814700Y5128935D01*
Y5107265D01*
X10820309Y5086333D01*
X10831144Y5067567D01*
X10846467Y5052244D01*
X10865234Y5041409D01*
X10886165Y5035800D01*
X10907835D01*
X10928767Y5041409D01*
X10947533Y5052244D01*
X10962856Y5067567D01*
X10973691Y5086333D01*
X10979300Y5107265D01*
Y5128935D01*
X10973691Y5149867D01*
X10962856Y5168633D01*
X10947533Y5183956D01*
X10928767Y5194791D01*
X10907835Y5200400D01*
D02*
G37*
G36*
X7322162Y5102300D02*
X7308238D01*
X7295374Y5096972D01*
X7285528Y5087126D01*
X7280200Y5074262D01*
Y5060338D01*
X7285528Y5047474D01*
X7295374Y5037628D01*
X7308238Y5032300D01*
X7322162D01*
X7335026Y5037628D01*
X7344872Y5047474D01*
X7350200Y5060338D01*
Y5074262D01*
X7344872Y5087126D01*
X7335026Y5096972D01*
X7322162Y5102300D01*
D02*
G37*
G36*
X7080862Y5064200D02*
X7066938D01*
X7054074Y5058872D01*
X7044228Y5049026D01*
X7038900Y5036162D01*
Y5022238D01*
X7044228Y5009374D01*
X7054074Y4999528D01*
X7066938Y4994200D01*
X7080862D01*
X7093726Y4999528D01*
X7103572Y5009374D01*
X7108900Y5022238D01*
Y5036162D01*
X7103572Y5049026D01*
X7093726Y5058872D01*
X7080862Y5064200D01*
D02*
G37*
G36*
X10700362Y5051500D02*
X10686438D01*
X10673574Y5046172D01*
X10663728Y5036326D01*
X10658400Y5023462D01*
Y5009538D01*
X10663728Y4996674D01*
X10673574Y4986828D01*
X10686438Y4981500D01*
X10700362D01*
X10713226Y4986828D01*
X10723072Y4996674D01*
X10728400Y5009538D01*
Y5023462D01*
X10723072Y5036326D01*
X10713226Y5046172D01*
X10700362Y5051500D01*
D02*
G37*
G36*
X11373462Y5038800D02*
X11359538D01*
X11346674Y5033472D01*
X11336828Y5023626D01*
X11331500Y5010762D01*
Y4996838D01*
X11336828Y4983974D01*
X11346674Y4974128D01*
X11359538Y4968800D01*
X11373462D01*
X11386326Y4974128D01*
X11396172Y4983974D01*
X11401500Y4996838D01*
Y5010762D01*
X11396172Y5023626D01*
X11386326Y5033472D01*
X11373462Y5038800D01*
D02*
G37*
G36*
X3220062D02*
X3206138D01*
X3193274Y5033472D01*
X3183428Y5023626D01*
X3178100Y5010762D01*
Y4996838D01*
X3183428Y4983974D01*
X3193274Y4974128D01*
X3206138Y4968800D01*
X3220062D01*
X3232926Y4974128D01*
X3242772Y4983974D01*
X3248100Y4996838D01*
Y5010762D01*
X3242772Y5023626D01*
X3232926Y5033472D01*
X3220062Y5038800D01*
D02*
G37*
G36*
X10217762Y5000700D02*
X10203838D01*
X10190974Y4995372D01*
X10181128Y4985526D01*
X10175800Y4972662D01*
Y4958738D01*
X10181128Y4945874D01*
X10190974Y4936028D01*
X10203838Y4930700D01*
X10217762D01*
X10230626Y4936028D01*
X10240472Y4945874D01*
X10245800Y4958738D01*
Y4972662D01*
X10240472Y4985526D01*
X10230626Y4995372D01*
X10217762Y5000700D01*
D02*
G37*
G36*
X7195162D02*
X7181238D01*
X7168374Y4995372D01*
X7158528Y4985526D01*
X7153200Y4972662D01*
Y4958738D01*
X7158528Y4945874D01*
X7168374Y4936028D01*
X7181238Y4930700D01*
X7195162D01*
X7208026Y4936028D01*
X7217872Y4945874D01*
X7223200Y4958738D01*
Y4972662D01*
X7217872Y4985526D01*
X7208026Y4995372D01*
X7195162Y5000700D01*
D02*
G37*
G36*
X6737962D02*
X6724038D01*
X6711174Y4995372D01*
X6701328Y4985526D01*
X6696000Y4972662D01*
Y4958738D01*
X6701328Y4945874D01*
X6711174Y4936028D01*
X6724038Y4930700D01*
X6737962D01*
X6750826Y4936028D01*
X6760672Y4945874D01*
X6766000Y4958738D01*
Y4972662D01*
X6760672Y4985526D01*
X6750826Y4995372D01*
X6737962Y5000700D01*
D02*
G37*
G36*
X8236562Y4962600D02*
X8222638D01*
X8209774Y4957272D01*
X8199928Y4947426D01*
X8194600Y4934562D01*
Y4920638D01*
X8199928Y4907774D01*
X8209774Y4897928D01*
X8222638Y4892600D01*
X8236562D01*
X8249426Y4897928D01*
X8259272Y4907774D01*
X8264600Y4920638D01*
Y4934562D01*
X8259272Y4947426D01*
X8249426Y4957272D01*
X8236562Y4962600D01*
D02*
G37*
G36*
X7449162Y4949900D02*
X7435238D01*
X7422374Y4944572D01*
X7412528Y4934726D01*
X7407200Y4921862D01*
Y4907938D01*
X7412528Y4895074D01*
X7422374Y4885228D01*
X7435238Y4879900D01*
X7449162D01*
X7462026Y4885228D01*
X7471872Y4895074D01*
X7477200Y4907938D01*
Y4921862D01*
X7471872Y4934726D01*
X7462026Y4944572D01*
X7449162Y4949900D01*
D02*
G37*
G36*
X10687662Y4937200D02*
X10673738D01*
X10660874Y4931872D01*
X10651028Y4922026D01*
X10645700Y4909162D01*
Y4895238D01*
X10651028Y4882374D01*
X10660874Y4872528D01*
X10673738Y4867200D01*
X10687662D01*
X10700526Y4872528D01*
X10710372Y4882374D01*
X10715700Y4895238D01*
Y4909162D01*
X10710372Y4922026D01*
X10700526Y4931872D01*
X10687662Y4937200D01*
D02*
G37*
G36*
X7233262Y4911800D02*
X7219338D01*
X7206474Y4906472D01*
X7196628Y4896626D01*
X7191300Y4883762D01*
Y4869838D01*
X7196628Y4856974D01*
X7206474Y4847128D01*
X7219338Y4841800D01*
X7233262D01*
X7246126Y4847128D01*
X7255972Y4856974D01*
X7261300Y4869838D01*
Y4883762D01*
X7255972Y4896626D01*
X7246126Y4906472D01*
X7233262Y4911800D01*
D02*
G37*
G36*
X5810862Y4899100D02*
X5796938D01*
X5784074Y4893772D01*
X5774228Y4883926D01*
X5768900Y4871062D01*
Y4857138D01*
X5774228Y4844274D01*
X5784074Y4834428D01*
X5796938Y4829100D01*
X5810862D01*
X5823726Y4834428D01*
X5833572Y4844274D01*
X5838900Y4857138D01*
Y4871062D01*
X5833572Y4883926D01*
X5823726Y4893772D01*
X5810862Y4899100D01*
D02*
G37*
G36*
X4935562Y4886400D02*
X4921638D01*
X4908774Y4881072D01*
X4898928Y4871226D01*
X4893600Y4858362D01*
Y4844438D01*
X4898928Y4831574D01*
X4908774Y4821728D01*
X4921638Y4816400D01*
X4935562D01*
X4948426Y4821728D01*
X4958272Y4831574D01*
X4963600Y4844438D01*
Y4858362D01*
X4958272Y4871226D01*
X4948426Y4881072D01*
X4935562Y4886400D01*
D02*
G37*
G36*
X7639662Y4873700D02*
X7625738D01*
X7612874Y4868372D01*
X7603028Y4858526D01*
X7597700Y4845662D01*
Y4831738D01*
X7603028Y4818874D01*
X7612874Y4809028D01*
X7625738Y4803700D01*
X7639662D01*
X7652526Y4809028D01*
X7662372Y4818874D01*
X7667700Y4831738D01*
Y4845662D01*
X7662372Y4858526D01*
X7652526Y4868372D01*
X7639662Y4873700D01*
D02*
G37*
G36*
X6560162Y4861000D02*
X6546238D01*
X6533374Y4855672D01*
X6523528Y4845826D01*
X6518200Y4832962D01*
Y4819038D01*
X6523528Y4806174D01*
X6533374Y4796328D01*
X6546238Y4791000D01*
X6560162D01*
X6573026Y4796328D01*
X6582872Y4806174D01*
X6588200Y4819038D01*
Y4832962D01*
X6582872Y4845826D01*
X6573026Y4855672D01*
X6560162Y4861000D01*
D02*
G37*
G36*
X9582762Y4810200D02*
X9568838D01*
X9555974Y4804872D01*
X9546128Y4795026D01*
X9541943Y4784921D01*
X9531830Y4782850D01*
X9528491Y4783106D01*
X9519426Y4792172D01*
X9506562Y4797500D01*
X9492638D01*
X9479774Y4792172D01*
X9469928Y4782326D01*
X9464600Y4769462D01*
Y4755538D01*
X9469928Y4742674D01*
X9479774Y4732828D01*
X9492638Y4727500D01*
X9506562D01*
X9519426Y4732828D01*
X9529272Y4742674D01*
X9533457Y4752779D01*
X9543570Y4754850D01*
X9546909Y4754594D01*
X9555974Y4745528D01*
X9568838Y4740200D01*
X9582762D01*
X9595626Y4745528D01*
X9605472Y4755374D01*
X9610800Y4768238D01*
Y4782162D01*
X9605472Y4795026D01*
X9595626Y4804872D01*
X9582762Y4810200D01*
D02*
G37*
G36*
X11694835Y4946400D02*
X11673165D01*
X11652233Y4940791D01*
X11633467Y4929956D01*
X11618144Y4914633D01*
X11607309Y4895867D01*
X11601700Y4874935D01*
Y4853265D01*
X11607309Y4832333D01*
X11618144Y4813567D01*
X11633467Y4798244D01*
X11652233Y4787409D01*
X11673165Y4781800D01*
X11694835D01*
X11715767Y4787409D01*
X11734533Y4798244D01*
X11749856Y4813567D01*
X11760691Y4832333D01*
X11766300Y4853265D01*
Y4874935D01*
X11760691Y4895867D01*
X11749856Y4914633D01*
X11734533Y4929956D01*
X11715767Y4940791D01*
X11694835Y4946400D01*
D02*
G37*
G36*
X10907835D02*
X10886165D01*
X10865234Y4940791D01*
X10846467Y4929956D01*
X10831144Y4914633D01*
X10820309Y4895867D01*
X10814700Y4874935D01*
Y4853265D01*
X10820309Y4832333D01*
X10831144Y4813567D01*
X10846467Y4798244D01*
X10865234Y4787409D01*
X10886165Y4781800D01*
X10907835D01*
X10928767Y4787409D01*
X10947533Y4798244D01*
X10962856Y4813567D01*
X10973691Y4832333D01*
X10979300Y4853265D01*
Y4874935D01*
X10973691Y4895867D01*
X10962856Y4914633D01*
X10947533Y4929956D01*
X10928767Y4940791D01*
X10907835Y4946400D01*
D02*
G37*
G36*
X8833462Y4848300D02*
X8819538D01*
X8806674Y4842972D01*
X8796828Y4833126D01*
X8791500Y4820262D01*
Y4806338D01*
X8796828Y4793474D01*
X8806674Y4783628D01*
X8819538Y4778300D01*
X8833462D01*
X8846326Y4783628D01*
X8856172Y4793474D01*
X8861500Y4806338D01*
Y4820262D01*
X8856172Y4833126D01*
X8846326Y4842972D01*
X8833462Y4848300D01*
D02*
G37*
G36*
X4045562D02*
X4031638D01*
X4018774Y4842972D01*
X4008928Y4833126D01*
X4003600Y4820262D01*
Y4806338D01*
X4008928Y4793474D01*
X4018774Y4783628D01*
X4031638Y4778300D01*
X4045562D01*
X4058426Y4783628D01*
X4068272Y4793474D01*
X4073600Y4806338D01*
Y4820262D01*
X4068272Y4833126D01*
X4058426Y4842972D01*
X4045562Y4848300D01*
D02*
G37*
G36*
X9802640Y4868300D02*
X9780760D01*
X9760545Y4859927D01*
X9745073Y4844455D01*
X9736700Y4824240D01*
Y4802360D01*
X9745073Y4782145D01*
X9760545Y4766673D01*
X9780760Y4758300D01*
X9802640D01*
X9822855Y4766673D01*
X9838327Y4782145D01*
X9846700Y4802360D01*
Y4824240D01*
X9838327Y4844455D01*
X9822855Y4859927D01*
X9802640Y4868300D01*
D02*
G37*
G36*
X10217762Y4822900D02*
X10203838D01*
X10190974Y4817572D01*
X10181128Y4807726D01*
X10175800Y4794862D01*
Y4780938D01*
X10181128Y4768074D01*
X10190974Y4758228D01*
X10203838Y4752900D01*
X10217762D01*
X10230626Y4758228D01*
X10240472Y4768074D01*
X10245800Y4780938D01*
Y4794862D01*
X10240472Y4807726D01*
X10230626Y4817572D01*
X10217762Y4822900D01*
D02*
G37*
G36*
X7423762D02*
X7409838D01*
X7396974Y4817572D01*
X7387128Y4807726D01*
X7381800Y4794862D01*
Y4780938D01*
X7387128Y4768074D01*
X7396974Y4758228D01*
X7409838Y4752900D01*
X7423762D01*
X7436626Y4758228D01*
X7446472Y4768074D01*
X7451800Y4780938D01*
Y4794862D01*
X7446472Y4807726D01*
X7436626Y4817572D01*
X7423762Y4822900D01*
D02*
G37*
G36*
X9417662Y4797500D02*
X9403738D01*
X9390874Y4792172D01*
X9381028Y4782326D01*
X9375700Y4769462D01*
Y4755538D01*
X9381028Y4742674D01*
X9390874Y4732828D01*
X9403738Y4727500D01*
X9417662D01*
X9430526Y4732828D01*
X9440372Y4742674D01*
X9445700Y4755538D01*
Y4769462D01*
X9440372Y4782326D01*
X9430526Y4792172D01*
X9417662Y4797500D01*
D02*
G37*
G36*
X9316062D02*
X9302138D01*
X9289274Y4792172D01*
X9279428Y4782326D01*
X9274100Y4769462D01*
Y4755538D01*
X9279428Y4742674D01*
X9289274Y4732828D01*
X9302138Y4727500D01*
X9316062D01*
X9328926Y4732828D01*
X9338772Y4742674D01*
X9344100Y4755538D01*
Y4769462D01*
X9338772Y4782326D01*
X9328926Y4792172D01*
X9316062Y4797500D01*
D02*
G37*
G36*
X6204562Y4784800D02*
X6190638D01*
X6177774Y4779472D01*
X6167928Y4769626D01*
X6162600Y4756762D01*
Y4742838D01*
X6167928Y4729974D01*
X6177774Y4720128D01*
X6190638Y4714800D01*
X6204562D01*
X6217426Y4720128D01*
X6227272Y4729974D01*
X6232600Y4742838D01*
Y4756762D01*
X6227272Y4769626D01*
X6217426Y4779472D01*
X6204562Y4784800D01*
D02*
G37*
G36*
X6445862Y4772100D02*
X6431938D01*
X6419074Y4766772D01*
X6409228Y4756926D01*
X6403900Y4744062D01*
Y4730138D01*
X6409228Y4717274D01*
X6419074Y4707428D01*
X6431938Y4702100D01*
X6445862D01*
X6458726Y4707428D01*
X6468572Y4717274D01*
X6473900Y4730138D01*
Y4744062D01*
X6468572Y4756926D01*
X6458726Y4766772D01*
X6445862Y4772100D01*
D02*
G37*
G36*
X8147662Y4746700D02*
X8133738D01*
X8120874Y4741372D01*
X8111028Y4731526D01*
X8105700Y4718662D01*
Y4704738D01*
X8111028Y4691874D01*
X8120874Y4682028D01*
X8133738Y4676700D01*
X8147662D01*
X8160526Y4682028D01*
X8170372Y4691874D01*
X8175700Y4704738D01*
Y4718662D01*
X8170372Y4731526D01*
X8160526Y4741372D01*
X8147662Y4746700D01*
D02*
G37*
G36*
X7360262D02*
X7346338D01*
X7333474Y4741372D01*
X7323628Y4731526D01*
X7318300Y4718662D01*
Y4704738D01*
X7323628Y4691874D01*
X7333474Y4682028D01*
X7346338Y4676700D01*
X7360262D01*
X7373126Y4682028D01*
X7382972Y4691874D01*
X7388300Y4704738D01*
Y4718662D01*
X7382972Y4731526D01*
X7373126Y4741372D01*
X7360262Y4746700D01*
D02*
G37*
G36*
X10141562Y4734000D02*
X10127638D01*
X10114774Y4728672D01*
X10104928Y4718826D01*
X10099600Y4705962D01*
Y4692038D01*
X10104928Y4679174D01*
X10114774Y4669328D01*
X10127638Y4664000D01*
X10141562D01*
X10154426Y4669328D01*
X10164272Y4679174D01*
X10169600Y4692038D01*
Y4705962D01*
X10164272Y4718826D01*
X10154426Y4728672D01*
X10141562Y4734000D01*
D02*
G37*
G36*
X6737962Y4708600D02*
X6724038D01*
X6711174Y4703272D01*
X6701328Y4693426D01*
X6696000Y4680562D01*
Y4666638D01*
X6701328Y4653774D01*
X6711174Y4643928D01*
X6724038Y4638600D01*
X6737962D01*
X6750826Y4643928D01*
X6760672Y4653774D01*
X6766000Y4666638D01*
Y4680562D01*
X6760672Y4693426D01*
X6750826Y4703272D01*
X6737962Y4708600D01*
D02*
G37*
G36*
X6090262Y4695900D02*
X6076338D01*
X6063474Y4690572D01*
X6053628Y4680726D01*
X6048300Y4667862D01*
Y4653938D01*
X6053628Y4641074D01*
X6063474Y4631228D01*
X6076338Y4625900D01*
X6090262D01*
X6103126Y4631228D01*
X6112972Y4641074D01*
X6118300Y4653938D01*
Y4667862D01*
X6112972Y4680726D01*
X6103126Y4690572D01*
X6090262Y4695900D01*
D02*
G37*
G36*
X11221062Y4683200D02*
X11207138D01*
X11194274Y4677872D01*
X11184428Y4668026D01*
X11179100Y4655162D01*
Y4641238D01*
X11184428Y4628374D01*
X11194274Y4618528D01*
X11207138Y4613200D01*
X11221062D01*
X11233926Y4618528D01*
X11243772Y4628374D01*
X11249100Y4641238D01*
Y4655162D01*
X11243772Y4668026D01*
X11233926Y4677872D01*
X11221062Y4683200D01*
D02*
G37*
G36*
X3753115Y4852500D02*
X3718885D01*
X3685822Y4843641D01*
X3656178Y4826526D01*
X3631974Y4802322D01*
X3614859Y4772678D01*
X3606000Y4739615D01*
Y4705385D01*
X3614859Y4672322D01*
X3631974Y4642678D01*
X3656178Y4618474D01*
X3685822Y4601359D01*
X3718885Y4592500D01*
X3753115D01*
X3786178Y4601359D01*
X3815822Y4618474D01*
X3840026Y4642678D01*
X3857141Y4672322D01*
X3866000Y4705385D01*
Y4739615D01*
X3857141Y4772678D01*
X3840026Y4802322D01*
X3815822Y4826526D01*
X3786178Y4843641D01*
X3753115Y4852500D01*
D02*
G37*
G36*
X8134962Y4657800D02*
X8121038D01*
X8108174Y4652472D01*
X8098328Y4642626D01*
X8093000Y4629762D01*
Y4615838D01*
X8098328Y4602974D01*
X8108174Y4593128D01*
X8121038Y4587800D01*
X8134962D01*
X8147826Y4593128D01*
X8157672Y4602974D01*
X8163000Y4615838D01*
Y4629762D01*
X8157672Y4642626D01*
X8147826Y4652472D01*
X8134962Y4657800D01*
D02*
G37*
G36*
X6890362Y4632400D02*
X6876438D01*
X6863574Y4627072D01*
X6853728Y4617226D01*
X6848400Y4604362D01*
Y4590438D01*
X6853728Y4577574D01*
X6863574Y4567728D01*
X6876438Y4562400D01*
X6890362D01*
X6903226Y4567728D01*
X6913072Y4577574D01*
X6918400Y4590438D01*
Y4604362D01*
X6913072Y4617226D01*
X6903226Y4627072D01*
X6890362Y4632400D01*
D02*
G37*
G36*
X6776062D02*
X6762138D01*
X6749274Y4627072D01*
X6739428Y4617226D01*
X6734100Y4604362D01*
Y4590438D01*
X6739428Y4577574D01*
X6749274Y4567728D01*
X6762138Y4562400D01*
X6776062D01*
X6788926Y4567728D01*
X6798772Y4577574D01*
X6804100Y4590438D01*
Y4604362D01*
X6798772Y4617226D01*
X6788926Y4627072D01*
X6776062Y4632400D01*
D02*
G37*
G36*
X11694835Y4692400D02*
X11673165D01*
X11652233Y4686791D01*
X11633467Y4675956D01*
X11618144Y4660633D01*
X11607309Y4641867D01*
X11601700Y4620935D01*
Y4599265D01*
X11607309Y4578333D01*
X11618144Y4559567D01*
X11633467Y4544244D01*
X11652233Y4533409D01*
X11673165Y4527800D01*
X11694835D01*
X11715767Y4533409D01*
X11734533Y4544244D01*
X11749856Y4559567D01*
X11760691Y4578333D01*
X11766300Y4599265D01*
Y4620935D01*
X11760691Y4641867D01*
X11749856Y4660633D01*
X11734533Y4675956D01*
X11715767Y4686791D01*
X11694835Y4692400D01*
D02*
G37*
G36*
X10907835D02*
X10886165D01*
X10865234Y4686791D01*
X10846467Y4675956D01*
X10831144Y4660633D01*
X10820309Y4641867D01*
X10814700Y4620935D01*
Y4599265D01*
X10820309Y4578333D01*
X10831144Y4559567D01*
X10846467Y4544244D01*
X10865234Y4533409D01*
X10886165Y4527800D01*
X10907835D01*
X10928767Y4533409D01*
X10947533Y4544244D01*
X10962856Y4559567D01*
X10973691Y4578333D01*
X10979300Y4599265D01*
Y4620935D01*
X10973691Y4641867D01*
X10962856Y4660633D01*
X10947533Y4675956D01*
X10928767Y4686791D01*
X10907835Y4692400D01*
D02*
G37*
G36*
X9125562Y4581600D02*
X9111638D01*
X9098774Y4576272D01*
X9088928Y4566426D01*
X9083600Y4553562D01*
Y4539638D01*
X9088928Y4526774D01*
X9098774Y4516928D01*
X9111638Y4511600D01*
X9125562D01*
X9138426Y4516928D01*
X9148272Y4526774D01*
X9153600Y4539638D01*
Y4553562D01*
X9148272Y4566426D01*
X9138426Y4576272D01*
X9125562Y4581600D01*
D02*
G37*
G36*
X5404462D02*
X5390538D01*
X5377674Y4576272D01*
X5367828Y4566426D01*
X5362500Y4553562D01*
Y4539638D01*
X5367828Y4526774D01*
X5377674Y4516928D01*
X5390538Y4511600D01*
X5404462D01*
X5417326Y4516928D01*
X5427172Y4526774D01*
X5432500Y4539638D01*
Y4553562D01*
X5427172Y4566426D01*
X5417326Y4576272D01*
X5404462Y4581600D01*
D02*
G37*
G36*
X5264762D02*
X5250838D01*
X5237974Y4576272D01*
X5228128Y4566426D01*
X5222800Y4553562D01*
Y4539638D01*
X5228128Y4526774D01*
X5237974Y4516928D01*
X5250838Y4511600D01*
X5264762D01*
X5277626Y4516928D01*
X5287472Y4526774D01*
X5292800Y4539638D01*
Y4553562D01*
X5287472Y4566426D01*
X5277626Y4576272D01*
X5264762Y4581600D01*
D02*
G37*
G36*
X3038165Y4701500D02*
X3011835D01*
X2986402Y4694685D01*
X2963599Y4681520D01*
X2944980Y4662901D01*
X2931815Y4640098D01*
X2925000Y4614665D01*
Y4588335D01*
X2931815Y4562902D01*
X2944980Y4540099D01*
X2963599Y4521480D01*
X2986402Y4508315D01*
X3011835Y4501500D01*
X3038165D01*
X3063598Y4508315D01*
X3086401Y4521480D01*
X3105020Y4540099D01*
X3118185Y4562902D01*
X3125000Y4588335D01*
Y4614665D01*
X3118185Y4640098D01*
X3105020Y4662901D01*
X3086401Y4681520D01*
X3063598Y4694685D01*
X3038165Y4701500D01*
D02*
G37*
G36*
X6776062Y4543500D02*
X6762138D01*
X6749274Y4538172D01*
X6739428Y4528326D01*
X6734100Y4515462D01*
Y4501538D01*
X6739428Y4488674D01*
X6749274Y4478828D01*
X6762138Y4473500D01*
X6776062D01*
X6788926Y4478828D01*
X6798772Y4488674D01*
X6804100Y4501538D01*
Y4515462D01*
X6798772Y4528326D01*
X6788926Y4538172D01*
X6776062Y4543500D01*
D02*
G37*
G36*
X9383540Y4563500D02*
X9361660D01*
X9341445Y4555127D01*
X9325973Y4539655D01*
X9317600Y4519440D01*
Y4497560D01*
X9325973Y4477345D01*
X9341445Y4461873D01*
X9361660Y4453500D01*
X9383540D01*
X9403755Y4461873D01*
X9419227Y4477345D01*
X9427600Y4497560D01*
Y4519440D01*
X9419227Y4539655D01*
X9403755Y4555127D01*
X9383540Y4563500D01*
D02*
G37*
G36*
X9011262Y4518100D02*
X8997338D01*
X8984474Y4512772D01*
X8974628Y4502926D01*
X8969300Y4490062D01*
Y4476138D01*
X8974628Y4463274D01*
X8984474Y4453428D01*
X8997338Y4448100D01*
X9011262D01*
X9024126Y4453428D01*
X9033972Y4463274D01*
X9039300Y4476138D01*
Y4490062D01*
X9033972Y4502926D01*
X9024126Y4512772D01*
X9011262Y4518100D01*
D02*
G37*
G36*
X4400400Y4588900D02*
X4239600D01*
Y4428100D01*
X4400400D01*
Y4588900D01*
D02*
G37*
G36*
X7804762Y4441900D02*
X7790838D01*
X7777974Y4436572D01*
X7768128Y4426726D01*
X7762800Y4413862D01*
Y4399938D01*
X7768128Y4387074D01*
X7777974Y4377228D01*
X7790838Y4371900D01*
X7804762D01*
X7817626Y4377228D01*
X7827472Y4387074D01*
X7832800Y4399938D01*
Y4413862D01*
X7827472Y4426726D01*
X7817626Y4436572D01*
X7804762Y4441900D01*
D02*
G37*
G36*
X9366862Y4429200D02*
X9352938D01*
X9340074Y4423872D01*
X9330228Y4414026D01*
X9324900Y4401162D01*
Y4387238D01*
X9330228Y4374374D01*
X9340074Y4364528D01*
X9352938Y4359200D01*
X9366862D01*
X9379726Y4364528D01*
X9389572Y4374374D01*
X9394900Y4387238D01*
Y4401162D01*
X9389572Y4414026D01*
X9379726Y4423872D01*
X9366862Y4429200D01*
D02*
G37*
G36*
X7576162Y4416500D02*
X7562238D01*
X7549374Y4411172D01*
X7539528Y4401326D01*
X7534200Y4388462D01*
Y4374538D01*
X7539528Y4361674D01*
X7549374Y4351828D01*
X7562238Y4346500D01*
X7576162D01*
X7589026Y4351828D01*
X7598872Y4361674D01*
X7604200Y4374538D01*
Y4388462D01*
X7598872Y4401326D01*
X7589026Y4411172D01*
X7576162Y4416500D01*
D02*
G37*
G36*
X7487262D02*
X7473338D01*
X7460474Y4411172D01*
X7450628Y4401326D01*
X7445300Y4388462D01*
Y4374538D01*
X7450628Y4361674D01*
X7460474Y4351828D01*
X7473338Y4346500D01*
X7487262D01*
X7500126Y4351828D01*
X7509972Y4361674D01*
X7515300Y4374538D01*
Y4388462D01*
X7509972Y4401326D01*
X7500126Y4411172D01*
X7487262Y4416500D01*
D02*
G37*
G36*
X7398362D02*
X7384438D01*
X7371574Y4411172D01*
X7361728Y4401326D01*
X7356400Y4388462D01*
Y4374538D01*
X7361728Y4361674D01*
X7371574Y4351828D01*
X7384438Y4346500D01*
X7398362D01*
X7411226Y4351828D01*
X7421072Y4361674D01*
X7426400Y4374538D01*
Y4388462D01*
X7421072Y4401326D01*
X7411226Y4411172D01*
X7398362Y4416500D01*
D02*
G37*
G36*
X7309462D02*
X7295538D01*
X7282674Y4411172D01*
X7272828Y4401326D01*
X7267500Y4388462D01*
Y4374538D01*
X7272828Y4361674D01*
X7282674Y4351828D01*
X7295538Y4346500D01*
X7309462D01*
X7322326Y4351828D01*
X7332172Y4361674D01*
X7337500Y4374538D01*
Y4388462D01*
X7332172Y4401326D01*
X7322326Y4411172D01*
X7309462Y4416500D01*
D02*
G37*
G36*
X7220562D02*
X7206638D01*
X7193774Y4411172D01*
X7183928Y4401326D01*
X7178600Y4388462D01*
Y4374538D01*
X7183928Y4361674D01*
X7193774Y4351828D01*
X7206638Y4346500D01*
X7220562D01*
X7233426Y4351828D01*
X7243272Y4361674D01*
X7248600Y4374538D01*
Y4388462D01*
X7243272Y4401326D01*
X7233426Y4411172D01*
X7220562Y4416500D01*
D02*
G37*
G36*
X7131662D02*
X7117738D01*
X7104874Y4411172D01*
X7095028Y4401326D01*
X7089700Y4388462D01*
Y4374538D01*
X7095028Y4361674D01*
X7104874Y4351828D01*
X7117738Y4346500D01*
X7131662D01*
X7144526Y4351828D01*
X7154372Y4361674D01*
X7159700Y4374538D01*
Y4388462D01*
X7154372Y4401326D01*
X7144526Y4411172D01*
X7131662Y4416500D01*
D02*
G37*
G36*
X7042762D02*
X7028838D01*
X7015974Y4411172D01*
X7006128Y4401326D01*
X7000800Y4388462D01*
Y4374538D01*
X7006128Y4361674D01*
X7015974Y4351828D01*
X7028838Y4346500D01*
X7042762D01*
X7055626Y4351828D01*
X7065472Y4361674D01*
X7070800Y4374538D01*
Y4388462D01*
X7065472Y4401326D01*
X7055626Y4411172D01*
X7042762Y4416500D01*
D02*
G37*
G36*
X3447990Y4681000D02*
X3414010D01*
X3380684Y4674371D01*
X3349290Y4661368D01*
X3321038Y4642490D01*
X3297010Y4618462D01*
X3278132Y4590210D01*
X3265129Y4558816D01*
X3258500Y4525490D01*
Y4491510D01*
X3265129Y4458184D01*
X3278132Y4426790D01*
X3297010Y4398538D01*
X3321038Y4374510D01*
X3349290Y4355632D01*
X3380684Y4342629D01*
X3414010Y4336000D01*
X3447990D01*
X3481316Y4342629D01*
X3512710Y4355632D01*
X3540962Y4374510D01*
X3564990Y4398538D01*
X3583868Y4426790D01*
X3596871Y4458184D01*
X3603500Y4491510D01*
Y4525490D01*
X3596871Y4558816D01*
X3583868Y4590210D01*
X3564990Y4618462D01*
X3540962Y4642490D01*
X3512710Y4661368D01*
X3481316Y4674371D01*
X3447990Y4681000D01*
D02*
G37*
G36*
X6826862Y4391100D02*
X6812938D01*
X6800074Y4385772D01*
X6790228Y4375926D01*
X6784900Y4363062D01*
Y4349138D01*
X6790228Y4336274D01*
X6800074Y4326428D01*
X6812938Y4321100D01*
X6826862D01*
X6839726Y4326428D01*
X6849572Y4336274D01*
X6854900Y4349138D01*
Y4363062D01*
X6849572Y4375926D01*
X6839726Y4385772D01*
X6826862Y4391100D01*
D02*
G37*
G36*
X4985362D02*
X4971438D01*
X4958574Y4385772D01*
X4948728Y4375926D01*
X4943400Y4363062D01*
Y4349138D01*
X4948728Y4336274D01*
X4958574Y4326428D01*
X4971438Y4321100D01*
X4985362D01*
X4998226Y4326428D01*
X5008072Y4336274D01*
X5013400Y4349138D01*
Y4363062D01*
X5008072Y4375926D01*
X4998226Y4385772D01*
X4985362Y4391100D01*
D02*
G37*
G36*
X8620870Y4381708D02*
X8606946D01*
X8594082Y4376380D01*
X8584237Y4366534D01*
X8578908Y4353670D01*
Y4339746D01*
X8584237Y4326882D01*
X8594082Y4317037D01*
X8606946Y4311708D01*
X8620870D01*
X8633734Y4317037D01*
X8643580Y4326882D01*
X8648908Y4339746D01*
Y4353670D01*
X8643580Y4366534D01*
X8633734Y4376380D01*
X8620870Y4381708D01*
D02*
G37*
G36*
X4076585Y4461900D02*
X4055415D01*
X4034967Y4456421D01*
X4016633Y4445836D01*
X4001664Y4430867D01*
X3991079Y4412533D01*
X3985600Y4392085D01*
Y4370915D01*
X3991079Y4350467D01*
X4001664Y4332133D01*
X4016633Y4317164D01*
X4034967Y4306579D01*
X4055415Y4301100D01*
X4076585D01*
X4097033Y4306579D01*
X4115367Y4317164D01*
X4130336Y4332133D01*
X4140921Y4350467D01*
X4146400Y4370915D01*
Y4392085D01*
X4140921Y4412533D01*
X4130336Y4430867D01*
X4115367Y4445836D01*
X4097033Y4456421D01*
X4076585Y4461900D01*
D02*
G37*
G36*
X8769962Y4365700D02*
X8756038D01*
X8743174Y4360372D01*
X8733328Y4350526D01*
X8728000Y4337662D01*
Y4323738D01*
X8733328Y4310874D01*
X8743174Y4301028D01*
X8756038Y4295700D01*
X8769962D01*
X8782826Y4301028D01*
X8792672Y4310874D01*
X8798000Y4323738D01*
Y4337662D01*
X8792672Y4350526D01*
X8782826Y4360372D01*
X8769962Y4365700D01*
D02*
G37*
G36*
X9290662Y4353000D02*
X9276738D01*
X9263874Y4347672D01*
X9254028Y4337826D01*
X9248700Y4324962D01*
Y4311038D01*
X9254028Y4298174D01*
X9263874Y4288328D01*
X9276738Y4283000D01*
X9290662D01*
X9303526Y4288328D01*
X9313372Y4298174D01*
X9318700Y4311038D01*
Y4324962D01*
X9313372Y4337826D01*
X9303526Y4347672D01*
X9290662Y4353000D01*
D02*
G37*
G36*
X11694835Y4438400D02*
X11673165D01*
X11652233Y4432791D01*
X11633467Y4421956D01*
X11618144Y4406633D01*
X11607309Y4387867D01*
X11601700Y4366935D01*
Y4345265D01*
X11607309Y4324333D01*
X11618144Y4305567D01*
X11633467Y4290244D01*
X11652233Y4279409D01*
X11673165Y4273800D01*
X11694835D01*
X11715767Y4279409D01*
X11734533Y4290244D01*
X11749856Y4305567D01*
X11760691Y4324333D01*
X11766300Y4345265D01*
Y4366935D01*
X11760691Y4387867D01*
X11749856Y4406633D01*
X11734533Y4421956D01*
X11715767Y4432791D01*
X11694835Y4438400D01*
D02*
G37*
G36*
X10907835D02*
X10886165D01*
X10865234Y4432791D01*
X10846467Y4421956D01*
X10831144Y4406633D01*
X10820309Y4387867D01*
X10814700Y4366935D01*
Y4345265D01*
X10820309Y4324333D01*
X10831144Y4305567D01*
X10846467Y4290244D01*
X10865234Y4279409D01*
X10886165Y4273800D01*
X10907835D01*
X10928767Y4279409D01*
X10947533Y4290244D01*
X10962856Y4305567D01*
X10973691Y4324333D01*
X10979300Y4345265D01*
Y4366935D01*
X10973691Y4387867D01*
X10962856Y4406633D01*
X10947533Y4421956D01*
X10928767Y4432791D01*
X10907835Y4438400D01*
D02*
G37*
G36*
X3038165Y4446500D02*
X3011835D01*
X2986402Y4439685D01*
X2963599Y4426520D01*
X2944980Y4407901D01*
X2931815Y4385098D01*
X2925000Y4359665D01*
Y4333335D01*
X2931815Y4307902D01*
X2944980Y4285099D01*
X2963599Y4266480D01*
X2986402Y4253315D01*
X3011835Y4246500D01*
X3038165D01*
X3063598Y4253315D01*
X3086401Y4266480D01*
X3105020Y4285099D01*
X3118185Y4307902D01*
X3125000Y4333335D01*
Y4359665D01*
X3118185Y4385098D01*
X3105020Y4407901D01*
X3086401Y4426520D01*
X3063598Y4439685D01*
X3038165Y4446500D01*
D02*
G37*
G36*
X6712562Y4302200D02*
X6698638D01*
X6685774Y4296872D01*
X6675928Y4287026D01*
X6670600Y4274162D01*
Y4260238D01*
X6675928Y4247374D01*
X6685774Y4237528D01*
X6698638Y4232200D01*
X6712562D01*
X6725426Y4237528D01*
X6735272Y4247374D01*
X6740600Y4260238D01*
Y4274162D01*
X6735272Y4287026D01*
X6725426Y4296872D01*
X6712562Y4302200D01*
D02*
G37*
G36*
X7880962Y4289500D02*
X7867038D01*
X7854174Y4284172D01*
X7844328Y4274326D01*
X7839000Y4261462D01*
Y4247538D01*
X7844328Y4234674D01*
X7854174Y4224828D01*
X7867038Y4219500D01*
X7880962D01*
X7893826Y4224828D01*
X7903672Y4234674D01*
X7909000Y4247538D01*
Y4261462D01*
X7903672Y4274326D01*
X7893826Y4284172D01*
X7880962Y4289500D01*
D02*
G37*
G36*
X9163662Y4264100D02*
X9149738D01*
X9136874Y4258772D01*
X9127028Y4248926D01*
X9121700Y4236062D01*
Y4222138D01*
X9127028Y4209274D01*
X9136874Y4199428D01*
X9149738Y4194100D01*
X9163662D01*
X9176526Y4199428D01*
X9186372Y4209274D01*
X9191700Y4222138D01*
Y4236062D01*
X9186372Y4248926D01*
X9176526Y4258772D01*
X9163662Y4264100D01*
D02*
G37*
G36*
X11182962Y4251400D02*
X11169038D01*
X11156174Y4246072D01*
X11146328Y4236226D01*
X11141000Y4223362D01*
Y4209438D01*
X11146328Y4196574D01*
X11156174Y4186728D01*
X11169038Y4181400D01*
X11182962D01*
X11195826Y4186728D01*
X11205672Y4196574D01*
X11211000Y4209438D01*
Y4223362D01*
X11205672Y4236226D01*
X11195826Y4246072D01*
X11182962Y4251400D01*
D02*
G37*
G36*
X4330585Y4334900D02*
X4309415D01*
X4288967Y4329421D01*
X4270633Y4318836D01*
X4255664Y4303867D01*
X4245079Y4285533D01*
X4239600Y4265085D01*
Y4243915D01*
X4245079Y4223467D01*
X4255664Y4205133D01*
X4270633Y4190164D01*
X4288967Y4179579D01*
X4309415Y4174100D01*
X4330585D01*
X4351033Y4179579D01*
X4369367Y4190164D01*
X4384336Y4205133D01*
X4394921Y4223467D01*
X4400400Y4243915D01*
Y4265085D01*
X4394921Y4285533D01*
X4384336Y4303867D01*
X4369367Y4318836D01*
X4351033Y4329421D01*
X4330585Y4334900D01*
D02*
G37*
G36*
X8388962Y4187900D02*
X8375038D01*
X8362174Y4182572D01*
X8352328Y4172726D01*
X8347000Y4159862D01*
Y4145938D01*
X8352328Y4133074D01*
X8362174Y4123228D01*
X8375038Y4117900D01*
X8388962D01*
X8401826Y4123228D01*
X8411672Y4133074D01*
X8417000Y4145938D01*
Y4159862D01*
X8411672Y4172726D01*
X8401826Y4182572D01*
X8388962Y4187900D01*
D02*
G37*
G36*
X8236562Y4175200D02*
X8222638D01*
X8209774Y4169872D01*
X8199928Y4160026D01*
X8194600Y4147162D01*
Y4133238D01*
X8199928Y4120374D01*
X8209774Y4110528D01*
X8222638Y4105200D01*
X8236562D01*
X8249426Y4110528D01*
X8259272Y4120374D01*
X8264600Y4133238D01*
Y4147162D01*
X8259272Y4160026D01*
X8249426Y4169872D01*
X8236562Y4175200D01*
D02*
G37*
G36*
X8122262D02*
X8108338D01*
X8095474Y4169872D01*
X8085628Y4160026D01*
X8080300Y4147162D01*
Y4133238D01*
X8085628Y4120374D01*
X8095474Y4110528D01*
X8108338Y4105200D01*
X8122262D01*
X8135126Y4110528D01*
X8144972Y4120374D01*
X8150300Y4133238D01*
Y4147162D01*
X8144972Y4160026D01*
X8135126Y4169872D01*
X8122262Y4175200D01*
D02*
G37*
G36*
X5874362D02*
X5860438D01*
X5847574Y4169872D01*
X5837728Y4160026D01*
X5832400Y4147162D01*
Y4133238D01*
X5837728Y4120374D01*
X5847574Y4110528D01*
X5860438Y4105200D01*
X5874362D01*
X5887226Y4110528D01*
X5897072Y4120374D01*
X5902400Y4133238D01*
Y4147162D01*
X5897072Y4160026D01*
X5887226Y4169872D01*
X5874362Y4175200D01*
D02*
G37*
G36*
X8630262Y4162500D02*
X8616338D01*
X8603474Y4157172D01*
X8593628Y4147326D01*
X8588300Y4134462D01*
Y4120538D01*
X8593628Y4107674D01*
X8603474Y4097828D01*
X8616338Y4092500D01*
X8630262D01*
X8643126Y4097828D01*
X8652972Y4107674D01*
X8658300Y4120538D01*
Y4134462D01*
X8652972Y4147326D01*
X8643126Y4157172D01*
X8630262Y4162500D01*
D02*
G37*
G36*
X6268062D02*
X6254138D01*
X6241274Y4157172D01*
X6231428Y4147326D01*
X6226100Y4134462D01*
Y4120538D01*
X6231428Y4107674D01*
X6241274Y4097828D01*
X6254138Y4092500D01*
X6268062D01*
X6280926Y4097828D01*
X6290772Y4107674D01*
X6296100Y4120538D01*
Y4134462D01*
X6290772Y4147326D01*
X6280926Y4157172D01*
X6268062Y4162500D01*
D02*
G37*
G36*
X7588862Y4149800D02*
X7574938D01*
X7562074Y4144472D01*
X7552228Y4134626D01*
X7546900Y4121762D01*
Y4107838D01*
X7552228Y4094974D01*
X7562074Y4085128D01*
X7574938Y4079800D01*
X7588862D01*
X7601726Y4085128D01*
X7611572Y4094974D01*
X7616900Y4107838D01*
Y4121762D01*
X7611572Y4134626D01*
X7601726Y4144472D01*
X7588862Y4149800D01*
D02*
G37*
G36*
X7499962D02*
X7486038D01*
X7473174Y4144472D01*
X7463328Y4134626D01*
X7458000Y4121762D01*
Y4107838D01*
X7463328Y4094974D01*
X7473174Y4085128D01*
X7486038Y4079800D01*
X7499962D01*
X7512826Y4085128D01*
X7522672Y4094974D01*
X7528000Y4107838D01*
Y4121762D01*
X7522672Y4134626D01*
X7512826Y4144472D01*
X7499962Y4149800D01*
D02*
G37*
G36*
X7411062D02*
X7397138D01*
X7384274Y4144472D01*
X7374428Y4134626D01*
X7369100Y4121762D01*
Y4107838D01*
X7374428Y4094974D01*
X7384274Y4085128D01*
X7397138Y4079800D01*
X7411062D01*
X7423926Y4085128D01*
X7433772Y4094974D01*
X7439100Y4107838D01*
Y4121762D01*
X7433772Y4134626D01*
X7423926Y4144472D01*
X7411062Y4149800D01*
D02*
G37*
G36*
X7322162D02*
X7308238D01*
X7295374Y4144472D01*
X7285528Y4134626D01*
X7280200Y4121762D01*
Y4107838D01*
X7285528Y4094974D01*
X7295374Y4085128D01*
X7308238Y4079800D01*
X7322162D01*
X7335026Y4085128D01*
X7344872Y4094974D01*
X7350200Y4107838D01*
Y4121762D01*
X7344872Y4134626D01*
X7335026Y4144472D01*
X7322162Y4149800D01*
D02*
G37*
G36*
X7233262D02*
X7219338D01*
X7206474Y4144472D01*
X7196628Y4134626D01*
X7191300Y4121762D01*
Y4107838D01*
X7196628Y4094974D01*
X7206474Y4085128D01*
X7219338Y4079800D01*
X7233262D01*
X7246126Y4085128D01*
X7255972Y4094974D01*
X7261300Y4107838D01*
Y4121762D01*
X7255972Y4134626D01*
X7246126Y4144472D01*
X7233262Y4149800D01*
D02*
G37*
G36*
X7131662D02*
X7117738D01*
X7104874Y4144472D01*
X7095028Y4134626D01*
X7089700Y4121762D01*
Y4107838D01*
X7095028Y4094974D01*
X7104874Y4085128D01*
X7117738Y4079800D01*
X7131662D01*
X7144526Y4085128D01*
X7154372Y4094974D01*
X7159700Y4107838D01*
Y4121762D01*
X7154372Y4134626D01*
X7144526Y4144472D01*
X7131662Y4149800D01*
D02*
G37*
G36*
X7042762D02*
X7028838D01*
X7015974Y4144472D01*
X7006128Y4134626D01*
X7000800Y4121762D01*
Y4107838D01*
X7006128Y4094974D01*
X7015974Y4085128D01*
X7028838Y4079800D01*
X7042762D01*
X7055626Y4085128D01*
X7065472Y4094974D01*
X7070800Y4107838D01*
Y4121762D01*
X7065472Y4134626D01*
X7055626Y4144472D01*
X7042762Y4149800D01*
D02*
G37*
G36*
X4076585Y4207900D02*
X4055415D01*
X4034967Y4202421D01*
X4016633Y4191836D01*
X4001664Y4176867D01*
X3991079Y4158533D01*
X3985600Y4138085D01*
Y4116915D01*
X3991079Y4096467D01*
X4001664Y4078133D01*
X4016633Y4063164D01*
X4034967Y4052579D01*
X4055415Y4047100D01*
X4076585D01*
X4097033Y4052579D01*
X4115367Y4063164D01*
X4130336Y4078133D01*
X4140921Y4096467D01*
X4146400Y4116915D01*
Y4138085D01*
X4140921Y4158533D01*
X4130336Y4176867D01*
X4115367Y4191836D01*
X4097033Y4202421D01*
X4076585Y4207900D01*
D02*
G37*
G36*
X11694835Y4184400D02*
X11673165D01*
X11652233Y4178791D01*
X11633467Y4167956D01*
X11618144Y4152633D01*
X11607309Y4133867D01*
X11601700Y4112935D01*
Y4091265D01*
X11607309Y4070333D01*
X11618144Y4051567D01*
X11633467Y4036244D01*
X11652233Y4025409D01*
X11673165Y4019800D01*
X11694835D01*
X11715767Y4025409D01*
X11734533Y4036244D01*
X11749856Y4051567D01*
X11760691Y4070333D01*
X11766300Y4091265D01*
Y4112935D01*
X11760691Y4133867D01*
X11749856Y4152633D01*
X11734533Y4167956D01*
X11715767Y4178791D01*
X11694835Y4184400D01*
D02*
G37*
G36*
X10907835D02*
X10886165D01*
X10865234Y4178791D01*
X10846467Y4167956D01*
X10831144Y4152633D01*
X10820309Y4133867D01*
X10814700Y4112935D01*
Y4091265D01*
X10820309Y4070333D01*
X10831144Y4051567D01*
X10846467Y4036244D01*
X10865234Y4025409D01*
X10886165Y4019800D01*
X10907835D01*
X10928767Y4025409D01*
X10947533Y4036244D01*
X10962856Y4051567D01*
X10973691Y4070333D01*
X10979300Y4091265D01*
Y4112935D01*
X10973691Y4133867D01*
X10962856Y4152633D01*
X10947533Y4167956D01*
X10928767Y4178791D01*
X10907835Y4184400D01*
D02*
G37*
G36*
X6610962Y4073600D02*
X6597038D01*
X6584174Y4068272D01*
X6574328Y4058426D01*
X6569000Y4045562D01*
Y4031638D01*
X6574328Y4018774D01*
X6584174Y4008928D01*
X6597038Y4003600D01*
X6610962D01*
X6623826Y4008928D01*
X6633672Y4018774D01*
X6639000Y4031638D01*
Y4045562D01*
X6633672Y4058426D01*
X6623826Y4068272D01*
X6610962Y4073600D01*
D02*
G37*
G36*
X7588862Y4060900D02*
X7574938D01*
X7562074Y4055572D01*
X7552228Y4045726D01*
X7546900Y4032862D01*
Y4018938D01*
X7552228Y4006074D01*
X7562074Y3996228D01*
X7574938Y3990900D01*
X7588862D01*
X7601726Y3996228D01*
X7611572Y4006074D01*
X7616900Y4018938D01*
Y4032862D01*
X7611572Y4045726D01*
X7601726Y4055572D01*
X7588862Y4060900D01*
D02*
G37*
G36*
X7499962D02*
X7486038D01*
X7473174Y4055572D01*
X7463328Y4045726D01*
X7458000Y4032862D01*
Y4018938D01*
X7463328Y4006074D01*
X7473174Y3996228D01*
X7486038Y3990900D01*
X7499962D01*
X7512826Y3996228D01*
X7522672Y4006074D01*
X7528000Y4018938D01*
Y4032862D01*
X7522672Y4045726D01*
X7512826Y4055572D01*
X7499962Y4060900D01*
D02*
G37*
G36*
X7411062D02*
X7397138D01*
X7384274Y4055572D01*
X7374428Y4045726D01*
X7369100Y4032862D01*
Y4018938D01*
X7374428Y4006074D01*
X7384274Y3996228D01*
X7397138Y3990900D01*
X7411062D01*
X7423926Y3996228D01*
X7433772Y4006074D01*
X7439100Y4018938D01*
Y4032862D01*
X7433772Y4045726D01*
X7423926Y4055572D01*
X7411062Y4060900D01*
D02*
G37*
G36*
X7322162D02*
X7308238D01*
X7295374Y4055572D01*
X7285528Y4045726D01*
X7280200Y4032862D01*
Y4018938D01*
X7285528Y4006074D01*
X7295374Y3996228D01*
X7308238Y3990900D01*
X7322162D01*
X7335026Y3996228D01*
X7344872Y4006074D01*
X7350200Y4018938D01*
Y4032862D01*
X7344872Y4045726D01*
X7335026Y4055572D01*
X7322162Y4060900D01*
D02*
G37*
G36*
X7233262D02*
X7219338D01*
X7206474Y4055572D01*
X7196628Y4045726D01*
X7191300Y4032862D01*
Y4018938D01*
X7196628Y4006074D01*
X7206474Y3996228D01*
X7219338Y3990900D01*
X7233262D01*
X7246126Y3996228D01*
X7255972Y4006074D01*
X7261300Y4018938D01*
Y4032862D01*
X7255972Y4045726D01*
X7246126Y4055572D01*
X7233262Y4060900D01*
D02*
G37*
G36*
X7131662D02*
X7117738D01*
X7104874Y4055572D01*
X7095028Y4045726D01*
X7089700Y4032862D01*
Y4018938D01*
X7095028Y4006074D01*
X7104874Y3996228D01*
X7117738Y3990900D01*
X7131662D01*
X7144526Y3996228D01*
X7154372Y4006074D01*
X7159700Y4018938D01*
Y4032862D01*
X7154372Y4045726D01*
X7144526Y4055572D01*
X7131662Y4060900D01*
D02*
G37*
G36*
X6801462Y4035500D02*
X6787538D01*
X6774674Y4030172D01*
X6764828Y4020326D01*
X6759500Y4007462D01*
Y3993538D01*
X6764828Y3980674D01*
X6774674Y3970828D01*
X6787538Y3965500D01*
X6801462D01*
X6814326Y3970828D01*
X6824172Y3980674D01*
X6829500Y3993538D01*
Y4007462D01*
X6824172Y4020326D01*
X6814326Y4030172D01*
X6801462Y4035500D01*
D02*
G37*
G36*
X7893662Y3997400D02*
X7879738D01*
X7866874Y3992072D01*
X7857028Y3982226D01*
X7851700Y3969362D01*
Y3955438D01*
X7857028Y3942574D01*
X7866874Y3932728D01*
X7879738Y3927400D01*
X7893662D01*
X7906526Y3932728D01*
X7916372Y3942574D01*
X7921700Y3955438D01*
Y3969362D01*
X7916372Y3982226D01*
X7906526Y3992072D01*
X7893662Y3997400D01*
D02*
G37*
G36*
X4330585Y4080900D02*
X4309415D01*
X4288967Y4075421D01*
X4270633Y4064836D01*
X4255664Y4049867D01*
X4245079Y4031533D01*
X4239600Y4011085D01*
Y3989915D01*
X4245079Y3969467D01*
X4255664Y3951133D01*
X4270633Y3936164D01*
X4288967Y3925579D01*
X4309415Y3920100D01*
X4330585D01*
X4351033Y3925579D01*
X4369367Y3936164D01*
X4384336Y3951133D01*
X4394921Y3969467D01*
X4400400Y3989915D01*
Y4011085D01*
X4394921Y4031533D01*
X4384336Y4049867D01*
X4369367Y4064836D01*
X4351033Y4075421D01*
X4330585Y4080900D01*
D02*
G37*
G36*
X7322162Y3972000D02*
X7308238D01*
X7295374Y3966672D01*
X7285528Y3956826D01*
X7280200Y3943962D01*
Y3930038D01*
X7285528Y3917174D01*
X7295374Y3907328D01*
X7308238Y3902000D01*
X7322162D01*
X7335026Y3907328D01*
X7344872Y3917174D01*
X7350200Y3930038D01*
Y3943962D01*
X7344872Y3956826D01*
X7335026Y3966672D01*
X7322162Y3972000D01*
D02*
G37*
G36*
X7233262D02*
X7219338D01*
X7206474Y3966672D01*
X7196628Y3956826D01*
X7191300Y3943962D01*
Y3930038D01*
X7196628Y3917174D01*
X7206474Y3907328D01*
X7219338Y3902000D01*
X7233262D01*
X7246126Y3907328D01*
X7255972Y3917174D01*
X7261300Y3930038D01*
Y3943962D01*
X7255972Y3956826D01*
X7246126Y3966672D01*
X7233262Y3972000D01*
D02*
G37*
G36*
X7042762D02*
X7028838D01*
X7015974Y3966672D01*
X7006128Y3956826D01*
X7000800Y3943962D01*
Y3930038D01*
X7006128Y3917174D01*
X7015974Y3907328D01*
X7028838Y3902000D01*
X7042762D01*
X7055626Y3907328D01*
X7065472Y3917174D01*
X7070800Y3930038D01*
Y3943962D01*
X7065472Y3956826D01*
X7055626Y3966672D01*
X7042762Y3972000D01*
D02*
G37*
G36*
X9887562Y3921200D02*
X9873638D01*
X9860774Y3915872D01*
X9850928Y3906026D01*
X9845600Y3893162D01*
Y3879238D01*
X9850928Y3866374D01*
X9860774Y3856528D01*
X9873638Y3851200D01*
X9887562D01*
X9900426Y3856528D01*
X9910272Y3866374D01*
X9915600Y3879238D01*
Y3893162D01*
X9910272Y3906026D01*
X9900426Y3915872D01*
X9887562Y3921200D01*
D02*
G37*
G36*
X10104457Y3913500D02*
X10088543D01*
X10073842Y3907410D01*
X10062590Y3896158D01*
X10056500Y3881457D01*
Y3865543D01*
X10062590Y3850842D01*
X10073842Y3839590D01*
X10088543Y3833500D01*
X10104457D01*
X10119158Y3839590D01*
X10130410Y3850842D01*
X10136500Y3865543D01*
Y3881457D01*
X10130410Y3896158D01*
X10119158Y3907410D01*
X10104457Y3913500D01*
D02*
G37*
G36*
X9277962Y3895800D02*
X9264038D01*
X9251174Y3890472D01*
X9241328Y3880626D01*
X9236000Y3867762D01*
Y3853838D01*
X9241328Y3840974D01*
X9251174Y3831128D01*
X9264038Y3825800D01*
X9277962D01*
X9290826Y3831128D01*
X9300672Y3840974D01*
X9306000Y3853838D01*
Y3867762D01*
X9300672Y3880626D01*
X9290826Y3890472D01*
X9277962Y3895800D01*
D02*
G37*
G36*
X10573362Y3883100D02*
X10559438D01*
X10546574Y3877772D01*
X10536728Y3867926D01*
X10531400Y3855062D01*
Y3841138D01*
X10536728Y3828274D01*
X10546574Y3818428D01*
X10559438Y3813100D01*
X10573362D01*
X10586226Y3818428D01*
X10596072Y3828274D01*
X10601400Y3841138D01*
Y3855062D01*
X10596072Y3867926D01*
X10586226Y3877772D01*
X10573362Y3883100D01*
D02*
G37*
G36*
X4076585Y3953900D02*
X4055415D01*
X4034967Y3948421D01*
X4016633Y3937836D01*
X4001664Y3922867D01*
X3991079Y3904533D01*
X3985600Y3884085D01*
Y3862915D01*
X3991079Y3842467D01*
X4001664Y3824133D01*
X4016633Y3809164D01*
X4034967Y3798579D01*
X4055415Y3793100D01*
X4076585D01*
X4097033Y3798579D01*
X4115367Y3809164D01*
X4130336Y3824133D01*
X4140921Y3842467D01*
X4146400Y3862915D01*
Y3884085D01*
X4140921Y3904533D01*
X4130336Y3922867D01*
X4115367Y3937836D01*
X4097033Y3948421D01*
X4076585Y3953900D01*
D02*
G37*
G36*
X7728562Y3857700D02*
X7714638D01*
X7701774Y3852372D01*
X7691928Y3842526D01*
X7686600Y3829662D01*
Y3815738D01*
X7691928Y3802874D01*
X7701774Y3793028D01*
X7714638Y3787700D01*
X7728562D01*
X7741426Y3793028D01*
X7751272Y3802874D01*
X7756600Y3815738D01*
Y3829662D01*
X7751272Y3842526D01*
X7741426Y3852372D01*
X7728562Y3857700D01*
D02*
G37*
G36*
X6915762D02*
X6901838D01*
X6888974Y3852372D01*
X6879128Y3842526D01*
X6873800Y3829662D01*
Y3815738D01*
X6879128Y3802874D01*
X6888974Y3793028D01*
X6901838Y3787700D01*
X6915762D01*
X6928626Y3793028D01*
X6938472Y3802874D01*
X6943800Y3815738D01*
Y3829662D01*
X6938472Y3842526D01*
X6928626Y3852372D01*
X6915762Y3857700D01*
D02*
G37*
G36*
X11694835Y3930400D02*
X11673165D01*
X11652233Y3924791D01*
X11633467Y3913956D01*
X11618144Y3898633D01*
X11607309Y3879867D01*
X11601700Y3858935D01*
Y3837265D01*
X11607309Y3816333D01*
X11618144Y3797567D01*
X11633467Y3782244D01*
X11652233Y3771409D01*
X11673165Y3765800D01*
X11694835D01*
X11715767Y3771409D01*
X11734533Y3782244D01*
X11749856Y3797567D01*
X11760691Y3816333D01*
X11766300Y3837265D01*
Y3858935D01*
X11760691Y3879867D01*
X11749856Y3898633D01*
X11734533Y3913956D01*
X11715767Y3924791D01*
X11694835Y3930400D01*
D02*
G37*
G36*
X10907835D02*
X10886165D01*
X10865234Y3924791D01*
X10846467Y3913956D01*
X10831144Y3898633D01*
X10820309Y3879867D01*
X10814700Y3858935D01*
Y3837265D01*
X10820309Y3816333D01*
X10831144Y3797567D01*
X10846467Y3782244D01*
X10865234Y3771409D01*
X10886165Y3765800D01*
X10907835D01*
X10928767Y3771409D01*
X10947533Y3782244D01*
X10962856Y3797567D01*
X10973691Y3816333D01*
X10979300Y3837265D01*
Y3858935D01*
X10973691Y3879867D01*
X10962856Y3898633D01*
X10947533Y3913956D01*
X10928767Y3924791D01*
X10907835Y3930400D01*
D02*
G37*
G36*
X9709762Y3819600D02*
X9695838D01*
X9682974Y3814272D01*
X9673128Y3804426D01*
X9667800Y3791562D01*
Y3777638D01*
X9673128Y3764774D01*
X9682974Y3754928D01*
X9695838Y3749600D01*
X9709762D01*
X9722626Y3754928D01*
X9732472Y3764774D01*
X9737800Y3777638D01*
Y3791562D01*
X9732472Y3804426D01*
X9722626Y3814272D01*
X9709762Y3819600D01*
D02*
G37*
G36*
X7919062Y3806900D02*
X7905138D01*
X7892274Y3801572D01*
X7882428Y3791726D01*
X7877100Y3778862D01*
Y3764938D01*
X7882428Y3752074D01*
X7892274Y3742228D01*
X7905138Y3736900D01*
X7919062D01*
X7931926Y3742228D01*
X7941772Y3752074D01*
X7947100Y3764938D01*
Y3778862D01*
X7941772Y3791726D01*
X7931926Y3801572D01*
X7919062Y3806900D01*
D02*
G37*
G36*
X9849462Y3794200D02*
X9835538D01*
X9822674Y3788872D01*
X9812828Y3779026D01*
X9807500Y3766162D01*
Y3752238D01*
X9812828Y3739374D01*
X9822674Y3729528D01*
X9835538Y3724200D01*
X9849462D01*
X9862326Y3729528D01*
X9872172Y3739374D01*
X9877500Y3752238D01*
Y3766162D01*
X9872172Y3779026D01*
X9862326Y3788872D01*
X9849462Y3794200D01*
D02*
G37*
G36*
X8769962Y3768800D02*
X8756038D01*
X8743174Y3763472D01*
X8733328Y3753626D01*
X8728000Y3740762D01*
Y3726838D01*
X8733328Y3713974D01*
X8743174Y3704128D01*
X8756038Y3698800D01*
X8769962D01*
X8782826Y3704128D01*
X8792672Y3713974D01*
X8798000Y3726838D01*
Y3740762D01*
X8792672Y3753626D01*
X8782826Y3763472D01*
X8769962Y3768800D01*
D02*
G37*
G36*
X4330585Y3826900D02*
X4309415D01*
X4288967Y3821421D01*
X4270633Y3810836D01*
X4255664Y3795867D01*
X4245079Y3777533D01*
X4239600Y3757085D01*
Y3735915D01*
X4245079Y3715467D01*
X4255664Y3697133D01*
X4270633Y3682164D01*
X4288967Y3671579D01*
X4309415Y3666100D01*
X4330585D01*
X4351033Y3671579D01*
X4369367Y3682164D01*
X4384336Y3697133D01*
X4394921Y3715467D01*
X4400400Y3735915D01*
Y3757085D01*
X4394921Y3777533D01*
X4384336Y3795867D01*
X4369367Y3810836D01*
X4351033Y3821421D01*
X4330585Y3826900D01*
D02*
G37*
G36*
X7436462Y3667200D02*
X7422538D01*
X7409674Y3661872D01*
X7399828Y3652026D01*
X7394500Y3639162D01*
Y3625238D01*
X7399828Y3612374D01*
X7409674Y3602528D01*
X7422538Y3597200D01*
X7436462D01*
X7449326Y3602528D01*
X7459172Y3612374D01*
X7464500Y3625238D01*
Y3639162D01*
X7459172Y3652026D01*
X7449326Y3661872D01*
X7436462Y3667200D01*
D02*
G37*
G36*
X4076585Y3699900D02*
X4055415D01*
X4034967Y3694421D01*
X4016633Y3683836D01*
X4001664Y3668867D01*
X3991079Y3650533D01*
X3985600Y3630085D01*
Y3608915D01*
X3991079Y3588467D01*
X4001664Y3570133D01*
X4016633Y3555164D01*
X4034967Y3544579D01*
X4055415Y3539100D01*
X4076585D01*
X4097033Y3544579D01*
X4115367Y3555164D01*
X4130336Y3570133D01*
X4140921Y3588467D01*
X4146400Y3608915D01*
Y3630085D01*
X4140921Y3650533D01*
X4130336Y3668867D01*
X4115367Y3683836D01*
X4097033Y3694421D01*
X4076585Y3699900D01*
D02*
G37*
G36*
X11694835Y3676400D02*
X11673165D01*
X11652233Y3670791D01*
X11633467Y3659956D01*
X11618144Y3644633D01*
X11607309Y3625867D01*
X11601700Y3604935D01*
Y3583265D01*
X11607309Y3562333D01*
X11618144Y3543567D01*
X11633467Y3528244D01*
X11652233Y3517409D01*
X11673165Y3511800D01*
X11694835D01*
X11715767Y3517409D01*
X11734533Y3528244D01*
X11749856Y3543567D01*
X11760691Y3562333D01*
X11766300Y3583265D01*
Y3604935D01*
X11760691Y3625867D01*
X11749856Y3644633D01*
X11734533Y3659956D01*
X11715767Y3670791D01*
X11694835Y3676400D01*
D02*
G37*
G36*
X10907835D02*
X10886165D01*
X10865234Y3670791D01*
X10846467Y3659956D01*
X10831144Y3644633D01*
X10820309Y3625867D01*
X10814700Y3604935D01*
Y3583265D01*
X10820309Y3562333D01*
X10831144Y3543567D01*
X10846467Y3528244D01*
X10865234Y3517409D01*
X10886165Y3511800D01*
X10907835D01*
X10928767Y3517409D01*
X10947533Y3528244D01*
X10962856Y3543567D01*
X10973691Y3562333D01*
X10979300Y3583265D01*
Y3604935D01*
X10973691Y3625867D01*
X10962856Y3644633D01*
X10947533Y3659956D01*
X10928767Y3670791D01*
X10907835Y3676400D01*
D02*
G37*
G36*
X8782662Y3565600D02*
X8768738D01*
X8755874Y3560272D01*
X8746028Y3550426D01*
X8740700Y3537562D01*
Y3523638D01*
X8746028Y3510774D01*
X8755874Y3500928D01*
X8768738Y3495600D01*
X8782662D01*
X8795526Y3500928D01*
X8805372Y3510774D01*
X8810700Y3523638D01*
Y3537562D01*
X8805372Y3550426D01*
X8795526Y3560272D01*
X8782662Y3565600D01*
D02*
G37*
G36*
X7296762D02*
X7282838D01*
X7269974Y3560272D01*
X7260128Y3550426D01*
X7254800Y3537562D01*
Y3523638D01*
X7260128Y3510774D01*
X7269974Y3500928D01*
X7282838Y3495600D01*
X7296762D01*
X7309626Y3500928D01*
X7319472Y3510774D01*
X7324800Y3523638D01*
Y3537562D01*
X7319472Y3550426D01*
X7309626Y3560272D01*
X7296762Y3565600D01*
D02*
G37*
G36*
X6941162Y3540200D02*
X6927238D01*
X6914374Y3534872D01*
X6904528Y3525026D01*
X6899200Y3512162D01*
Y3498238D01*
X6904528Y3485374D01*
X6914374Y3475528D01*
X6927238Y3470200D01*
X6941162D01*
X6954026Y3475528D01*
X6963872Y3485374D01*
X6969200Y3498238D01*
Y3512162D01*
X6963872Y3525026D01*
X6954026Y3534872D01*
X6941162Y3540200D01*
D02*
G37*
G36*
X6814162D02*
X6800238D01*
X6787374Y3534872D01*
X6777528Y3525026D01*
X6772200Y3512162D01*
Y3498238D01*
X6777528Y3485374D01*
X6787374Y3475528D01*
X6800238Y3470200D01*
X6814162D01*
X6827026Y3475528D01*
X6836872Y3485374D01*
X6842200Y3498238D01*
Y3512162D01*
X6836872Y3525026D01*
X6827026Y3534872D01*
X6814162Y3540200D01*
D02*
G37*
G36*
X9887562Y3527500D02*
X9873638D01*
X9860774Y3522172D01*
X9850928Y3512326D01*
X9845600Y3499462D01*
Y3485538D01*
X9850928Y3472674D01*
X9860774Y3462828D01*
X9873638Y3457500D01*
X9887562D01*
X9900426Y3462828D01*
X9910272Y3472674D01*
X9915600Y3485538D01*
Y3499462D01*
X9910272Y3512326D01*
X9900426Y3522172D01*
X9887562Y3527500D01*
D02*
G37*
G36*
X3038165Y3626500D02*
X3011835D01*
X2986402Y3619685D01*
X2963599Y3606520D01*
X2944980Y3587901D01*
X2931815Y3565098D01*
X2925000Y3539665D01*
Y3513335D01*
X2931815Y3487902D01*
X2944980Y3465099D01*
X2963599Y3446480D01*
X2986402Y3433315D01*
X3011835Y3426500D01*
X3038165D01*
X3063598Y3433315D01*
X3086401Y3446480D01*
X3105020Y3465099D01*
X3118185Y3487902D01*
X3125000Y3513335D01*
Y3539665D01*
X3118185Y3565098D01*
X3105020Y3587901D01*
X3086401Y3606520D01*
X3063598Y3619685D01*
X3038165Y3626500D01*
D02*
G37*
G36*
X9481162Y3489400D02*
X9467238D01*
X9454374Y3484072D01*
X9444528Y3474226D01*
X9439200Y3461362D01*
Y3447438D01*
X9444528Y3434574D01*
X9454374Y3424728D01*
X9467238Y3419400D01*
X9481162D01*
X9494026Y3424728D01*
X9503872Y3434574D01*
X9509200Y3447438D01*
Y3461362D01*
X9503872Y3474226D01*
X9494026Y3484072D01*
X9481162Y3489400D01*
D02*
G37*
G36*
X4330585Y3572900D02*
X4309415D01*
X4288967Y3567421D01*
X4270633Y3556836D01*
X4255664Y3541867D01*
X4245079Y3523533D01*
X4239600Y3503085D01*
Y3481915D01*
X4245079Y3461467D01*
X4255664Y3443133D01*
X4270633Y3428164D01*
X4288967Y3417579D01*
X4309415Y3412100D01*
X4330585D01*
X4351033Y3417579D01*
X4369367Y3428164D01*
X4384336Y3443133D01*
X4394921Y3461467D01*
X4400400Y3481915D01*
Y3503085D01*
X4394921Y3523533D01*
X4384336Y3541867D01*
X4369367Y3556836D01*
X4351033Y3567421D01*
X4330585Y3572900D01*
D02*
G37*
G36*
X10598762Y3464000D02*
X10584838D01*
X10571974Y3458672D01*
X10562128Y3448826D01*
X10556800Y3435962D01*
Y3422038D01*
X10562128Y3409174D01*
X10571974Y3399328D01*
X10584838Y3394000D01*
X10598762D01*
X10611626Y3399328D01*
X10621472Y3409174D01*
X10626800Y3422038D01*
Y3435962D01*
X10621472Y3448826D01*
X10611626Y3458672D01*
X10598762Y3464000D01*
D02*
G37*
G36*
X10332062D02*
X10318138D01*
X10305274Y3458672D01*
X10295428Y3448826D01*
X10290100Y3435962D01*
Y3422038D01*
X10295428Y3409174D01*
X10305274Y3399328D01*
X10318138Y3394000D01*
X10332062D01*
X10344926Y3399328D01*
X10354772Y3409174D01*
X10360100Y3422038D01*
Y3435962D01*
X10354772Y3448826D01*
X10344926Y3458672D01*
X10332062Y3464000D01*
D02*
G37*
G36*
X7677762Y3425900D02*
X7663838D01*
X7650974Y3420572D01*
X7641128Y3410726D01*
X7635800Y3397862D01*
Y3383938D01*
X7641128Y3371074D01*
X7650974Y3361228D01*
X7663838Y3355900D01*
X7677762D01*
X7690626Y3361228D01*
X7700472Y3371074D01*
X7705800Y3383938D01*
Y3397862D01*
X7700472Y3410726D01*
X7690626Y3420572D01*
X7677762Y3425900D01*
D02*
G37*
G36*
X9887562Y3400500D02*
X9873638D01*
X9860774Y3395172D01*
X9850928Y3385326D01*
X9845600Y3372462D01*
Y3358538D01*
X9850928Y3345674D01*
X9860774Y3335828D01*
X9873638Y3330500D01*
X9887562D01*
X9900426Y3335828D01*
X9910272Y3345674D01*
X9915600Y3358538D01*
Y3372462D01*
X9910272Y3385326D01*
X9900426Y3395172D01*
X9887562Y3400500D01*
D02*
G37*
G36*
X7411062D02*
X7397138D01*
X7384274Y3395172D01*
X7374428Y3385326D01*
X7369100Y3372462D01*
Y3358538D01*
X7374428Y3345674D01*
X7384274Y3335828D01*
X7397138Y3330500D01*
X7411062D01*
X7423926Y3335828D01*
X7433772Y3345674D01*
X7439100Y3358538D01*
Y3372462D01*
X7433772Y3385326D01*
X7423926Y3395172D01*
X7411062Y3400500D01*
D02*
G37*
G36*
X11360762Y3387800D02*
X11346838D01*
X11333974Y3382472D01*
X11324128Y3372626D01*
X11318800Y3359762D01*
Y3345838D01*
X11324128Y3332974D01*
X11333974Y3323128D01*
X11346838Y3317800D01*
X11360762D01*
X11373626Y3323128D01*
X11383472Y3332974D01*
X11388800Y3345838D01*
Y3359762D01*
X11383472Y3372626D01*
X11373626Y3382472D01*
X11360762Y3387800D01*
D02*
G37*
G36*
X4076585Y3445900D02*
X4055415D01*
X4034967Y3440421D01*
X4016633Y3429836D01*
X4001664Y3414867D01*
X3991079Y3396533D01*
X3985600Y3376085D01*
Y3354915D01*
X3991079Y3334467D01*
X4001664Y3316133D01*
X4016633Y3301164D01*
X4034967Y3290579D01*
X4055415Y3285100D01*
X4076585D01*
X4097033Y3290579D01*
X4115367Y3301164D01*
X4130336Y3316133D01*
X4140921Y3334467D01*
X4146400Y3354915D01*
Y3376085D01*
X4140921Y3396533D01*
X4130336Y3414867D01*
X4115367Y3429836D01*
X4097033Y3440421D01*
X4076585Y3445900D01*
D02*
G37*
G36*
X11694835Y3422400D02*
X11673165D01*
X11652233Y3416791D01*
X11633467Y3405956D01*
X11618144Y3390633D01*
X11607309Y3371867D01*
X11601700Y3350935D01*
Y3329265D01*
X11607309Y3308333D01*
X11618144Y3289567D01*
X11633467Y3274244D01*
X11652233Y3263409D01*
X11673165Y3257800D01*
X11694835D01*
X11715767Y3263409D01*
X11734533Y3274244D01*
X11749856Y3289567D01*
X11760691Y3308333D01*
X11766300Y3329265D01*
Y3350935D01*
X11760691Y3371867D01*
X11749856Y3390633D01*
X11734533Y3405956D01*
X11715767Y3416791D01*
X11694835Y3422400D01*
D02*
G37*
G36*
X10907835D02*
X10886165D01*
X10865234Y3416791D01*
X10846467Y3405956D01*
X10831144Y3390633D01*
X10820309Y3371867D01*
X10814700Y3350935D01*
Y3329265D01*
X10820309Y3308333D01*
X10831144Y3289567D01*
X10846467Y3274244D01*
X10865234Y3263409D01*
X10886165Y3257800D01*
X10907835D01*
X10928767Y3263409D01*
X10947533Y3274244D01*
X10962856Y3289567D01*
X10973691Y3308333D01*
X10979300Y3329265D01*
Y3350935D01*
X10973691Y3371867D01*
X10962856Y3390633D01*
X10947533Y3405956D01*
X10928767Y3416791D01*
X10907835Y3422400D01*
D02*
G37*
G36*
X9646262Y3273500D02*
X9632338D01*
X9619474Y3268172D01*
X9609628Y3258326D01*
X9604300Y3245462D01*
Y3231538D01*
X9609628Y3218674D01*
X9619474Y3208828D01*
X9632338Y3203500D01*
X9646262D01*
X9659126Y3208828D01*
X9668972Y3218674D01*
X9674300Y3231538D01*
Y3245462D01*
X9668972Y3258326D01*
X9659126Y3268172D01*
X9646262Y3273500D01*
D02*
G37*
G36*
X3447990Y3538000D02*
X3414010D01*
X3380684Y3531371D01*
X3349290Y3518368D01*
X3321038Y3499490D01*
X3297010Y3475462D01*
X3278132Y3447210D01*
X3265129Y3415816D01*
X3258500Y3382490D01*
Y3348510D01*
X3265129Y3315184D01*
X3278132Y3283790D01*
X3297010Y3255538D01*
X3321038Y3231510D01*
X3349290Y3212632D01*
X3380684Y3199629D01*
X3414010Y3193000D01*
X3447990D01*
X3481316Y3199629D01*
X3512710Y3212632D01*
X3540962Y3231510D01*
X3564990Y3255538D01*
X3583868Y3283790D01*
X3596871Y3315184D01*
X3603500Y3348510D01*
Y3382490D01*
X3596871Y3415816D01*
X3583868Y3447210D01*
X3564990Y3475462D01*
X3540962Y3499490D01*
X3512710Y3518368D01*
X3481316Y3531371D01*
X3447990Y3538000D01*
D02*
G37*
G36*
X9887562Y3260800D02*
X9873638D01*
X9860774Y3255472D01*
X9850928Y3245626D01*
X9845600Y3232762D01*
Y3218838D01*
X9850928Y3205974D01*
X9860774Y3196128D01*
X9873638Y3190800D01*
X9887562D01*
X9900426Y3196128D01*
X9910272Y3205974D01*
X9915600Y3218838D01*
Y3232762D01*
X9910272Y3245626D01*
X9900426Y3255472D01*
X9887562Y3260800D01*
D02*
G37*
G36*
X9316062Y3248100D02*
X9302138D01*
X9289274Y3242772D01*
X9279428Y3232926D01*
X9274100Y3220062D01*
Y3206138D01*
X9279428Y3193274D01*
X9289274Y3183428D01*
X9302138Y3178100D01*
X9316062D01*
X9328926Y3183428D01*
X9338772Y3193274D01*
X9344100Y3206138D01*
Y3220062D01*
X9338772Y3232926D01*
X9328926Y3242772D01*
X9316062Y3248100D01*
D02*
G37*
G36*
X8998562D02*
X8984638D01*
X8971774Y3242772D01*
X8961928Y3232926D01*
X8956600Y3220062D01*
Y3206138D01*
X8961928Y3193274D01*
X8971774Y3183428D01*
X8984638Y3178100D01*
X8998562D01*
X9011426Y3183428D01*
X9021272Y3193274D01*
X9026600Y3206138D01*
Y3220062D01*
X9021272Y3232926D01*
X9011426Y3242772D01*
X8998562Y3248100D01*
D02*
G37*
G36*
X3038165Y3371500D02*
X3011835D01*
X2986402Y3364685D01*
X2963599Y3351520D01*
X2944980Y3332901D01*
X2931815Y3310098D01*
X2925000Y3284665D01*
Y3258335D01*
X2931815Y3232902D01*
X2944980Y3210099D01*
X2963599Y3191480D01*
X2986402Y3178315D01*
X3011835Y3171500D01*
X3038165D01*
X3063598Y3178315D01*
X3086401Y3191480D01*
X3105020Y3210099D01*
X3118185Y3232902D01*
X3125000Y3258335D01*
Y3284665D01*
X3118185Y3310098D01*
X3105020Y3332901D01*
X3086401Y3351520D01*
X3063598Y3364685D01*
X3038165Y3371500D01*
D02*
G37*
G36*
X9671662Y3171900D02*
X9657738D01*
X9644874Y3166572D01*
X9635028Y3156726D01*
X9629700Y3143862D01*
Y3129938D01*
X9635028Y3117074D01*
X9644874Y3107228D01*
X9657738Y3101900D01*
X9671662D01*
X9684526Y3107228D01*
X9694372Y3117074D01*
X9699700Y3129938D01*
Y3143862D01*
X9694372Y3156726D01*
X9684526Y3166572D01*
X9671662Y3171900D01*
D02*
G37*
G36*
X5836262Y3159200D02*
X5822338D01*
X5809474Y3153872D01*
X5799628Y3144026D01*
X5794300Y3131162D01*
Y3117238D01*
X5799628Y3104374D01*
X5809474Y3094528D01*
X5822338Y3089200D01*
X5836262D01*
X5849126Y3094528D01*
X5858972Y3104374D01*
X5864300Y3117238D01*
Y3131162D01*
X5858972Y3144026D01*
X5849126Y3153872D01*
X5836262Y3159200D01*
D02*
G37*
G36*
X4896462D02*
X4882538D01*
X4869674Y3153872D01*
X4859828Y3144026D01*
X4854500Y3131162D01*
Y3117238D01*
X4859828Y3104374D01*
X4869674Y3094528D01*
X4882538Y3089200D01*
X4896462D01*
X4909326Y3094528D01*
X4919172Y3104374D01*
X4924500Y3117238D01*
Y3131162D01*
X4919172Y3144026D01*
X4909326Y3153872D01*
X4896462Y3159200D01*
D02*
G37*
G36*
X4032862Y3095700D02*
X4018938D01*
X4006074Y3090372D01*
X3996228Y3080526D01*
X3990900Y3067662D01*
Y3053738D01*
X3996228Y3040874D01*
X4006074Y3031028D01*
X4018938Y3025700D01*
X4032862D01*
X4045726Y3031028D01*
X4055572Y3040874D01*
X4060900Y3053738D01*
Y3067662D01*
X4055572Y3080526D01*
X4045726Y3090372D01*
X4032862Y3095700D01*
D02*
G37*
G36*
X3753115Y3278500D02*
X3718885D01*
X3685822Y3269641D01*
X3656178Y3252526D01*
X3631974Y3228322D01*
X3614859Y3198678D01*
X3606000Y3165615D01*
Y3131385D01*
X3614859Y3098322D01*
X3631974Y3068678D01*
X3656178Y3044474D01*
X3685822Y3027359D01*
X3718885Y3018500D01*
X3753115D01*
X3786178Y3027359D01*
X3815822Y3044474D01*
X3840026Y3068678D01*
X3857141Y3098322D01*
X3866000Y3131385D01*
Y3165615D01*
X3857141Y3198678D01*
X3840026Y3228322D01*
X3815822Y3252526D01*
X3786178Y3269641D01*
X3753115Y3278500D01*
D02*
G37*
G36*
X11694835Y3168400D02*
X11673165D01*
X11652233Y3162791D01*
X11633467Y3151956D01*
X11618144Y3136633D01*
X11607309Y3117867D01*
X11601700Y3096935D01*
Y3075265D01*
X11607309Y3054333D01*
X11618144Y3035567D01*
X11633467Y3020244D01*
X11652233Y3009409D01*
X11673165Y3003800D01*
X11694835D01*
X11715767Y3009409D01*
X11734533Y3020244D01*
X11749856Y3035567D01*
X11760691Y3054333D01*
X11766300Y3075265D01*
Y3096935D01*
X11760691Y3117867D01*
X11749856Y3136633D01*
X11734533Y3151956D01*
X11715767Y3162791D01*
X11694835Y3168400D01*
D02*
G37*
G36*
X10907835D02*
X10886165D01*
X10865234Y3162791D01*
X10846467Y3151956D01*
X10831144Y3136633D01*
X10820309Y3117867D01*
X10814700Y3096935D01*
Y3075265D01*
X10820309Y3054333D01*
X10831144Y3035567D01*
X10846467Y3020244D01*
X10865234Y3009409D01*
X10886165Y3003800D01*
X10907835D01*
X10928767Y3009409D01*
X10947533Y3020244D01*
X10962856Y3035567D01*
X10973691Y3054333D01*
X10979300Y3075265D01*
Y3096935D01*
X10973691Y3117867D01*
X10962856Y3136633D01*
X10947533Y3151956D01*
X10928767Y3162791D01*
X10907835Y3168400D01*
D02*
G37*
G36*
X10040957Y3024500D02*
X10025043D01*
X10010342Y3018410D01*
X9999090Y3007158D01*
X9993000Y2992457D01*
Y2976543D01*
X9999090Y2961842D01*
X10010342Y2950590D01*
X10025043Y2944500D01*
X10040957D01*
X10055658Y2950590D01*
X10066910Y2961842D01*
X10073000Y2976543D01*
Y2992457D01*
X10066910Y3007158D01*
X10055658Y3018410D01*
X10040957Y3024500D01*
D02*
G37*
G36*
X7855562Y2968700D02*
X7841638D01*
X7828774Y2963372D01*
X7818928Y2953526D01*
X7813600Y2940662D01*
Y2926738D01*
X7818928Y2913874D01*
X7828774Y2904028D01*
X7841638Y2898700D01*
X7855562D01*
X7868426Y2904028D01*
X7878272Y2913874D01*
X7883600Y2926738D01*
Y2940662D01*
X7878272Y2953526D01*
X7868426Y2963372D01*
X7855562Y2968700D01*
D02*
G37*
G36*
X11766300Y2914400D02*
X11601700D01*
Y2749800D01*
X11766300D01*
Y2914400D01*
D02*
G37*
G36*
X10907835D02*
X10886165D01*
X10865234Y2908791D01*
X10846467Y2897956D01*
X10831144Y2882633D01*
X10820309Y2863867D01*
X10814700Y2842935D01*
Y2821265D01*
X10820309Y2800333D01*
X10831144Y2781567D01*
X10846467Y2766244D01*
X10865234Y2755409D01*
X10886165Y2749800D01*
X10907835D01*
X10928767Y2755409D01*
X10947533Y2766244D01*
X10962856Y2781567D01*
X10973691Y2800333D01*
X10979300Y2821265D01*
Y2842935D01*
X10973691Y2863867D01*
X10962856Y2882633D01*
X10947533Y2897956D01*
X10928767Y2908791D01*
X10907835Y2914400D01*
D02*
G37*
G36*
X10065362Y2790900D02*
X10051438D01*
X10038574Y2785572D01*
X10028728Y2775726D01*
X10023400Y2762862D01*
Y2748938D01*
X10028728Y2736074D01*
X10038574Y2726228D01*
X10051438Y2720900D01*
X10065362D01*
X10078226Y2726228D01*
X10088072Y2736074D01*
X10093400Y2748938D01*
Y2762862D01*
X10088072Y2775726D01*
X10078226Y2785572D01*
X10065362Y2790900D01*
D02*
G37*
%LPD*%
D44*
X10786000Y9096000D02*
D03*
Y9604000D02*
D03*
X11294000D02*
D03*
Y9096000D02*
D03*
X10786000Y8096000D02*
D03*
Y8604000D02*
D03*
X11294000D02*
D03*
Y8096000D02*
D03*
D45*
X11040000Y9350000D02*
D03*
Y8350000D02*
D03*
D46*
X11684000Y2832100D02*
D03*
D47*
Y3086100D02*
D03*
Y3340100D02*
D03*
Y3594100D02*
D03*
Y3848100D02*
D03*
Y4102100D02*
D03*
Y4356100D02*
D03*
Y4610100D02*
D03*
Y4864100D02*
D03*
Y5118100D02*
D03*
Y5372100D02*
D03*
Y5626100D02*
D03*
X10897000D02*
D03*
Y5372100D02*
D03*
Y5118100D02*
D03*
Y4864100D02*
D03*
Y4610100D02*
D03*
Y4356100D02*
D03*
Y4102100D02*
D03*
Y3848100D02*
D03*
Y3594100D02*
D03*
Y3340100D02*
D03*
Y3086100D02*
D03*
Y2832100D02*
D03*
D48*
X11722100Y6413500D02*
D03*
Y7175500D02*
D03*
D49*
X10960100Y6794500D02*
D03*
D50*
X10706100Y7048500D02*
D03*
X3736000Y4722500D02*
D03*
Y3148500D02*
D03*
D51*
X10706100Y6540500D02*
D03*
D52*
X3450000Y5343000D02*
D03*
X4018000D02*
D03*
X3450000Y6657000D02*
D03*
X4018000D02*
D03*
D53*
X3983000Y6350000D02*
D03*
Y6100000D02*
D03*
Y5900000D02*
D03*
Y5650000D02*
D03*
X3721000Y6350000D02*
D03*
Y6100000D02*
D03*
Y5900000D02*
D03*
Y5650000D02*
D03*
D54*
X3031100Y9090100D02*
D03*
Y8512100D02*
D03*
D55*
X4320000Y4508500D02*
D03*
D56*
X3431000D02*
D03*
Y3365500D02*
D03*
D57*
X4066000Y4381500D02*
D03*
X4320000Y4254500D02*
D03*
X4066000Y4127500D02*
D03*
X4320000Y4000500D02*
D03*
X4066000Y3873500D02*
D03*
X4320000Y3746500D02*
D03*
X4066000Y3619500D02*
D03*
X4320000Y3492500D02*
D03*
X4066000Y3365500D02*
D03*
D58*
X3025000Y4601500D02*
D03*
Y4346500D02*
D03*
Y3526500D02*
D03*
Y3271500D02*
D03*
D59*
X9563100Y7251700D02*
D03*
X9728200D02*
D03*
X8763000Y4330700D02*
D03*
X7035800Y3937000D02*
D03*
X7315200D02*
D03*
X7226300D02*
D03*
X7124700Y4025900D02*
D03*
X7226300D02*
D03*
X7035800Y4114800D02*
D03*
Y4381500D02*
D03*
X7569200D02*
D03*
X7581900Y4114800D02*
D03*
Y4025900D02*
D03*
X7493000D02*
D03*
X7404100D02*
D03*
X7315200D02*
D03*
X7658100Y8623300D02*
D03*
X7734300Y8750300D02*
D03*
X6896100Y9309100D02*
D03*
X6832600Y9194800D02*
D03*
X7937500Y6680200D02*
D03*
X7734300Y6146800D02*
D03*
X7010400D02*
D03*
X6324600Y6781800D02*
D03*
X5892800Y7023100D02*
D03*
X6997700Y6934200D02*
D03*
X6959600Y7226300D02*
D03*
X6121400D02*
D03*
X6604000Y7708900D02*
D03*
X5664200Y7734300D02*
D03*
X5956300Y8191500D02*
D03*
X6654800Y8623300D02*
D03*
X5600700Y8534400D02*
D03*
X6642100Y9702800D02*
D03*
X6248400Y9690100D02*
D03*
X5295900Y9740900D02*
D03*
X4267200Y9486900D02*
D03*
X3581400Y9436100D02*
D03*
X3644900Y8750300D02*
D03*
X3187700Y8026400D02*
D03*
X4267200Y8724900D02*
D03*
X4229100Y8305800D02*
D03*
X5422900Y7251700D02*
D03*
X5156200Y7569200D02*
D03*
X3619500Y7200900D02*
D03*
X3175000Y6845300D02*
D03*
X5016500Y5816600D02*
D03*
X4394200Y6527800D02*
D03*
X4673600Y5918200D02*
D03*
X3213100Y5003800D02*
D03*
X4038600Y4813300D02*
D03*
X4025900Y3060700D02*
D03*
X4673600Y5143500D02*
D03*
X6350000Y5232400D02*
D03*
X4978400Y4356100D02*
D03*
X5867400Y4140200D02*
D03*
X6807200Y3505200D02*
D03*
X7404100Y3365500D02*
D03*
X7912100Y3771900D02*
D03*
X7823200Y5549900D02*
D03*
X8026400D02*
D03*
X8877300Y5765800D02*
D03*
X8636000Y5232400D02*
D03*
X8826500Y4813300D02*
D03*
X9271000Y3860800D02*
D03*
X9474200Y3454400D02*
D03*
X9702800Y3784600D02*
D03*
X10058400Y2755900D02*
D03*
X11353800Y3352800D02*
D03*
X10591800Y3429000D02*
D03*
X11176000Y4216400D02*
D03*
X11214100Y4648200D02*
D03*
X10210800Y4965700D02*
D03*
X10109200Y5702300D02*
D03*
X11087100Y5232400D02*
D03*
X11684000Y5867400D02*
D03*
X10947400Y6045200D02*
D03*
X10718800Y7315200D02*
D03*
X10388600Y7861300D02*
D03*
X10045700Y6845300D02*
D03*
X9550400Y6731000D02*
D03*
X8890000Y6210300D02*
D03*
X8331200Y6413500D02*
D03*
X8407400Y6819900D02*
D03*
X9194800Y7353300D02*
D03*
X9652000Y7861300D02*
D03*
X9258300Y8242300D02*
D03*
X8077200Y7327900D02*
D03*
X8026400Y8229600D02*
D03*
X9994900Y9055100D02*
D03*
X10528300Y8293100D02*
D03*
X10680700D02*
D03*
X10668000Y8407400D02*
D03*
X10528300D02*
D03*
X10312400Y8420100D02*
D03*
Y8293100D02*
D03*
X10160000Y8420100D02*
D03*
X10083800Y8293100D02*
D03*
X9867900Y8305800D02*
D03*
X9715500Y8458200D02*
D03*
X10020300Y8420100D02*
D03*
X9880600Y8470900D02*
D03*
X9753600Y8597900D02*
D03*
X9613900Y8724900D02*
D03*
X9588500Y8585200D02*
D03*
X9423400Y8610600D02*
D03*
X9398000Y8737600D02*
D03*
X9131300D02*
D03*
X9271000Y8610600D02*
D03*
X9029700D02*
D03*
X8826500D02*
D03*
X8940800Y8737600D02*
D03*
X8597900D02*
D03*
X8509000Y8610600D02*
D03*
X8382000D02*
D03*
X8178800D02*
D03*
X8369300Y8737600D02*
D03*
X8178800D02*
D03*
X7962900D02*
D03*
Y8610600D02*
D03*
X7747000Y8623300D02*
D03*
X7620000Y8686800D02*
D03*
X7658100Y8788400D02*
D03*
X7696200Y9029700D02*
D03*
X7912100D02*
D03*
X8001000Y8953500D02*
D03*
X8191500Y8940800D02*
D03*
X8331200Y8890000D02*
D03*
X8559800Y8877300D02*
D03*
X8763000D02*
D03*
X8991600D02*
D03*
X9220200D02*
D03*
X9423400D02*
D03*
X9575800D02*
D03*
X9728200D02*
D03*
X9918700D02*
D03*
X10121900Y8953500D02*
D03*
X10325100Y8978900D02*
D03*
X10490200Y9144000D02*
D03*
X10680700Y9296400D02*
D03*
Y9410700D02*
D03*
X10528300Y9347200D02*
D03*
X10426700Y9232900D02*
D03*
X10287000Y9093200D02*
D03*
X9753600Y9067800D02*
D03*
X9588500D02*
D03*
X9436100D02*
D03*
X9245600D02*
D03*
X9093200D02*
D03*
X8915400D02*
D03*
X8763000D02*
D03*
X8610600D02*
D03*
X8432800D02*
D03*
X8255000D02*
D03*
X8013700Y9093200D02*
D03*
X7924800Y9182100D02*
D03*
X7734300Y9283700D02*
D03*
X7594600Y9220200D02*
D03*
X7454900Y9245600D02*
D03*
X7264400D02*
D03*
X7023100D02*
D03*
X7581900Y9372600D02*
D03*
X7404100D02*
D03*
X7226300D02*
D03*
X7023100D02*
D03*
X6934200D02*
D03*
X4889500Y3124200D02*
D03*
X5829300D02*
D03*
X7848600Y2933700D02*
D03*
X8991600Y3213100D02*
D03*
X7670800Y3390900D02*
D03*
X8775700Y3530600D02*
D03*
X8763000Y3733800D02*
D03*
X7188200Y4965700D02*
D03*
X6769100Y4597400D02*
D03*
X9309100Y4762500D02*
D03*
X7124700Y4114800D02*
D03*
X7226300D02*
D03*
X7493000D02*
D03*
X7404100D02*
D03*
X7315200D02*
D03*
X7124700Y4381500D02*
D03*
X7480300D02*
D03*
X7391400D02*
D03*
X7213600D02*
D03*
X7302500D02*
D03*
X7480300Y5727700D02*
D03*
X7353300Y5829300D02*
D03*
X6731000Y5359400D02*
D03*
X6680200Y5562600D02*
D03*
X5003800Y5524500D02*
D03*
X4965700Y5219700D02*
D03*
X4241800Y5549900D02*
D03*
X4318000Y5308600D02*
D03*
X9575800Y4775200D02*
D03*
X3962400Y7048500D02*
D03*
X4127500Y7200900D02*
D03*
X3378200Y8572500D02*
D03*
X3771900Y8394700D02*
D03*
X3378200Y8483600D02*
D03*
X3746500D02*
D03*
X5473700Y5118100D02*
D03*
X5549900D02*
D03*
Y5194300D02*
D03*
X5473700D02*
D03*
X5397500D02*
D03*
Y5118100D02*
D03*
X5321300D02*
D03*
Y5194300D02*
D03*
X5245100Y5118100D02*
D03*
Y5194300D02*
D03*
X5321300Y5346700D02*
D03*
X5397500D02*
D03*
X5473700D02*
D03*
X5549900D02*
D03*
Y5422900D02*
D03*
X5473700D02*
D03*
X5397500D02*
D03*
X5321300D02*
D03*
X5245100D02*
D03*
Y5346700D02*
D03*
Y5270500D02*
D03*
X5321300D02*
D03*
X5549900D02*
D03*
X5473700D02*
D03*
X4191000Y7747000D02*
D03*
Y7823200D02*
D03*
X4114800D02*
D03*
Y7747000D02*
D03*
X4191000Y7518400D02*
D03*
Y7594600D02*
D03*
X4114800Y7518400D02*
D03*
Y7594600D02*
D03*
X3886200Y7518400D02*
D03*
X3962400D02*
D03*
Y7594600D02*
D03*
X3886200D02*
D03*
Y7823200D02*
D03*
Y7747000D02*
D03*
Y7670800D02*
D03*
X3962400Y7747000D02*
D03*
Y7823200D02*
D03*
X4038600D02*
D03*
Y7747000D02*
D03*
Y7518400D02*
D03*
Y7594600D02*
D03*
X3962400Y7670800D02*
D03*
X4191000D02*
D03*
X4114800D02*
D03*
X6604000Y4038600D02*
D03*
X5422900Y5753100D02*
D03*
X6261100Y4127500D02*
D03*
X7150100Y7785100D02*
D03*
Y8039100D02*
D03*
X9309100Y3213100D02*
D03*
X8623300Y4127500D02*
D03*
X8140700Y4711700D02*
D03*
X7353300D02*
D03*
X7416800Y4787900D02*
D03*
X4508500Y8026400D02*
D03*
X3822700Y8089900D02*
D03*
X5257800Y4546600D02*
D03*
X5398100Y5267300D02*
D03*
X4039200Y7671600D02*
D03*
X9639300Y3238500D02*
D03*
X9664700Y3136900D02*
D03*
X10325100Y3429000D02*
D03*
X9880600Y3225800D02*
D03*
Y3365500D02*
D03*
Y3492500D02*
D03*
X10210800Y4787900D02*
D03*
X9842500Y3759200D02*
D03*
X9880600Y3886200D02*
D03*
X5854700Y5664200D02*
D03*
X4940300Y5486400D02*
D03*
X4953000Y5359400D02*
D03*
X6438900Y4737100D02*
D03*
X5397500Y4546600D02*
D03*
X6197600Y4749800D02*
D03*
X6083300Y4660900D02*
D03*
X6731000Y4965700D02*
D03*
X6553200Y4826000D02*
D03*
X7073900Y5029200D02*
D03*
X6985000Y5156200D02*
D03*
X8699500Y7175500D02*
D03*
X8547100Y8077200D02*
D03*
X8910300Y7945100D02*
D03*
X8966200Y7721600D02*
D03*
X9004300Y8013700D02*
D03*
X11658600Y6019800D02*
D03*
X11518900D02*
D03*
X10033000Y7797800D02*
D03*
Y7988300D02*
D03*
X11366500Y5003800D02*
D03*
X10680700Y4902200D02*
D03*
X10693400Y5016500D02*
D03*
X10134600Y4699000D02*
D03*
X8613908Y4346708D02*
D03*
X9004300Y4483100D02*
D03*
X9118600Y4546600D02*
D03*
X9156700Y4229100D02*
D03*
X10109200Y5943600D02*
D03*
X10121900Y5816600D02*
D03*
X10083800Y6273800D02*
D03*
X10045700Y6159500D02*
D03*
X9728200Y6210300D02*
D03*
X9740900Y6375400D02*
D03*
X9626600Y6273800D02*
D03*
X9728200Y6108700D02*
D03*
X9080500Y5676900D02*
D03*
X9131300Y5600700D02*
D03*
X9182100Y5537200D02*
D03*
X9232900Y5461000D02*
D03*
X10045700Y5143500D02*
D03*
X9956800Y5080000D02*
D03*
X9664700Y5270500D02*
D03*
X9677400Y5372100D02*
D03*
X8229600Y4927600D02*
D03*
X7175500Y6705600D02*
D03*
X8382000Y4152900D02*
D03*
X6070600Y6515100D02*
D03*
X6096000Y5118100D02*
D03*
X6210300D02*
D03*
X5295900Y6235700D02*
D03*
X5130800Y6172200D02*
D03*
X6680200Y5410200D02*
D03*
Y5486400D02*
D03*
X10566400Y3848100D02*
D03*
X9283700Y4318000D02*
D03*
X9359900Y4394200D02*
D03*
Y5372100D02*
D03*
X9347200Y5270500D02*
D03*
X4928600Y4851400D02*
D03*
X9410700Y4762500D02*
D03*
X9499600D02*
D03*
X4000500Y7112000D02*
D03*
X4064000Y7162800D02*
D03*
X6705600Y4267200D02*
D03*
X3822700Y9144000D02*
D03*
X4356100Y7302500D02*
D03*
X4533900Y7861300D02*
D03*
X4089400Y8166100D02*
D03*
X3632200Y7416800D02*
D03*
X3657600Y7924800D02*
D03*
X5156200Y5867400D02*
D03*
X5321300Y5753100D02*
D03*
X3416300Y7683500D02*
D03*
X3733800Y8064500D02*
D03*
X7493000Y5803900D02*
D03*
X7429500Y5854700D02*
D03*
X7315200Y5067300D02*
D03*
X5803900Y4864100D02*
D03*
X5943600Y5181600D02*
D03*
X5880100Y5549900D02*
D03*
X4381500Y5384800D02*
D03*
X4267200Y5473700D02*
D03*
X6731000Y4673600D02*
D03*
X8128000Y4622800D02*
D03*
X7226300Y4876800D02*
D03*
X7289800Y3530600D02*
D03*
X6819900Y4356100D02*
D03*
X7874000Y4254500D02*
D03*
X7797800Y4406900D02*
D03*
X6705600Y6692900D02*
D03*
X6578600D02*
D03*
X6794500Y4000500D02*
D03*
X7886700Y3962400D02*
D03*
X8229600Y4140200D02*
D03*
X8115300D02*
D03*
X7442200Y4914900D02*
D03*
X7632700Y4838700D02*
D03*
X7696200Y8686800D02*
D03*
X6972300Y9309100D02*
D03*
X7721600Y3822700D02*
D03*
X7429500Y3632200D02*
D03*
X6934200Y3505200D02*
D03*
X6908800Y3822700D02*
D03*
X6769100Y4508500D02*
D03*
X6883400Y4597400D02*
D03*
X7213600Y6108700D02*
D03*
D60*
X3505200Y8750300D02*
D03*
X7048500Y7493000D02*
D03*
X6445250Y6851650D02*
D03*
X9791700Y4813300D02*
D03*
X4838700Y5842000D02*
D03*
X5156200Y6858000D02*
D03*
X9372600Y4508500D02*
D03*
X4610100Y7340600D02*
D03*
X2921000Y8801100D02*
D03*
D61*
X10096500Y3873500D02*
D03*
X10033000Y2984500D02*
D03*
X9029700Y7607300D02*
D03*
X9118600Y8026400D02*
D03*
D62*
X6578600Y5613400D02*
D03*
X7289800Y5981700D02*
D03*
%TF.MD5,e9291d6483649931b0de41b3606f20d8*%
M02*
