%TF.GenerationSoftware,Altium Limited,Altium Designer,23.8.1 (32)*%
G04 Layer_Color=32896*
%FSLAX45Y45*%
%MOMM*%
%TF.SameCoordinates,47205040-CD91-4698-B5C6-F5A5CD4DDF21*%
%TF.FilePolarity,Positive*%
%TF.FileFunction,Legend,Bot*%
%TF.Part,Single*%
G01*
G75*
%TA.AperFunction,NonConductor*%
%ADD90C,0.20000*%
%ADD91C,0.10000*%
%ADD93C,0.25000*%
%ADD94C,0.15240*%
%ADD97C,0.16000*%
D90*
X10251300Y2884700D02*
G03*
X10251300Y2894700I0J5000D01*
G01*
D02*
G03*
X10251300Y2884700I0J-5000D01*
G01*
X8776400Y7505100D02*
G03*
X8776400Y7495100I0J-5000D01*
G01*
D02*
G03*
X8776400Y7505100I0J5000D01*
G01*
D02*
G03*
X8776400Y7495100I0J-5000D01*
G01*
X9544500Y7009700D02*
X9592000D01*
X9627000Y7019700D02*
Y7229700D01*
X9677000D01*
Y7019700D02*
Y7229700D01*
X9627000Y7019700D02*
X9677000D01*
X5568000Y4256100D02*
X5608000D01*
X5568000Y4456100D02*
X5608000D01*
X6826100Y4800600D02*
X6966100D01*
X8775700Y8201900D02*
Y8231900D01*
X7971000Y4267200D02*
X8031000D01*
X7221700Y3327400D02*
X7281700D01*
X11611731Y8421443D02*
X11491757Y8467148D01*
X11611731Y8512852D01*
X11571739Y8495713D02*
Y8438582D01*
X11491757Y8393449D02*
X11611731D01*
X11491757D02*
X11611731Y8313466D01*
X11491757D02*
X11611731D01*
X11491757Y8240339D02*
X11611731D01*
X11491757Y8280330D02*
Y8200348D01*
X11683726Y8531705D02*
X11803700D01*
X11683726D02*
X11803700Y8486001D01*
X11683726Y8440296D02*
X11803700Y8486001D01*
X11683726Y8440296D02*
X11803700D01*
Y8314609D02*
X11683726Y8360313D01*
X11803700Y8406018D01*
X11763709Y8388879D02*
Y8331748D01*
X11683726Y8286615D02*
X11803700D01*
X11683726Y8261478D02*
X11803700D01*
X11683726D02*
X11803700Y8181495D01*
X11683726D02*
X11803700D01*
X11599031Y9424743D02*
X11479057Y9470448D01*
X11599031Y9516152D01*
X11559039Y9499013D02*
Y9441882D01*
X11479057Y9396749D02*
X11599031D01*
X11479057D02*
X11599031Y9316766D01*
X11479057D02*
X11599031D01*
X11479057Y9243639D02*
X11599031D01*
X11479057Y9283630D02*
Y9203648D01*
X11791000Y9424743D02*
X11671026Y9470448D01*
X11791000Y9516152D01*
X11751009Y9499013D02*
Y9441882D01*
X11671026Y9396749D02*
X11756722D01*
X11773861Y9391036D01*
X11785287Y9379610D01*
X11791000Y9362471D01*
Y9351045D01*
X11785287Y9333905D01*
X11773861Y9322479D01*
X11756722Y9316766D01*
X11671026D01*
Y9283630D02*
X11791000Y9203648D01*
X11671026D02*
X11791000Y9283630D01*
X11911669Y5801336D02*
Y5749919D01*
X11905956Y5732780D01*
X11900243Y5727067D01*
X11888817Y5721354D01*
X11871678D01*
X11860252Y5727067D01*
X11854539Y5732780D01*
X11848826Y5749919D01*
Y5801336D01*
X11968800D01*
X11848826Y5694502D02*
X11968800Y5665937D01*
X11848826Y5637372D02*
X11968800Y5665937D01*
X11848826Y5637372D02*
X11968800Y5608806D01*
X11848826Y5580241D02*
X11968800Y5608806D01*
X11848826Y5556246D02*
X11968800D01*
X11848826D02*
Y5504829D01*
X11854539Y5487690D01*
X11860252Y5481976D01*
X11871678Y5476263D01*
X11883104D01*
X11894530Y5481976D01*
X11900243Y5487690D01*
X11905956Y5504829D01*
Y5556246D01*
Y5516255D02*
X11968800Y5476263D01*
X11911669Y4508639D02*
Y4457221D01*
X11905956Y4440082D01*
X11900243Y4434369D01*
X11888817Y4428656D01*
X11871678D01*
X11860252Y4434369D01*
X11854539Y4440082D01*
X11848826Y4457221D01*
Y4508639D01*
X11968800D01*
X11848826Y4401805D02*
X11968800D01*
X11848826D02*
Y4350387D01*
X11854539Y4333248D01*
X11860252Y4327535D01*
X11871678Y4321822D01*
X11883104D01*
X11894530Y4327535D01*
X11900243Y4333248D01*
X11905956Y4350387D01*
Y4401805D01*
Y4361813D02*
X11968800Y4321822D01*
X11848826Y4260692D02*
X11854539Y4272118D01*
X11865965Y4283544D01*
X11877391Y4289257D01*
X11894530Y4294970D01*
X11923096D01*
X11940235Y4289257D01*
X11951661Y4283544D01*
X11963087Y4272118D01*
X11968800Y4260692D01*
Y4237840D01*
X11963087Y4226414D01*
X11951661Y4214988D01*
X11940235Y4209274D01*
X11923096Y4203561D01*
X11894530D01*
X11877391Y4209274D01*
X11865965Y4214988D01*
X11854539Y4226414D01*
X11848826Y4237840D01*
Y4260692D01*
X11864691Y3194231D02*
X11853265Y3199945D01*
X11841839Y3211371D01*
X11836125Y3222797D01*
Y3245649D01*
X11841839Y3257075D01*
X11853265Y3268501D01*
X11864691Y3274214D01*
X11881830Y3279927D01*
X11910395D01*
X11927534Y3274214D01*
X11938961Y3268501D01*
X11950387Y3257075D01*
X11956100Y3245649D01*
Y3222797D01*
X11950387Y3211371D01*
X11938961Y3199945D01*
X11927534Y3194231D01*
X11910395D01*
Y3222797D02*
Y3194231D01*
X11836125Y3166809D02*
X11956100D01*
X11836125D02*
X11956100Y3086826D01*
X11836125D02*
X11956100D01*
X11853265Y2973707D02*
X11841839Y2985133D01*
X11836125Y3002273D01*
Y3025125D01*
X11841839Y3042264D01*
X11853265Y3053690D01*
X11864691D01*
X11876117Y3047977D01*
X11881830Y3042264D01*
X11887543Y3030838D01*
X11898969Y2996559D01*
X11904682Y2985133D01*
X11910395Y2979420D01*
X11921821Y2973707D01*
X11938961D01*
X11950387Y2985133D01*
X11956100Y3002273D01*
Y3025125D01*
X11950387Y3042264D01*
X11938961Y3053690D01*
X11853265Y2866873D02*
X11841839Y2878299D01*
X11836125Y2895438D01*
Y2918291D01*
X11841839Y2935430D01*
X11853265Y2946856D01*
X11864691D01*
X11876117Y2941143D01*
X11881830Y2935430D01*
X11887543Y2924004D01*
X11898969Y2889725D01*
X11904682Y2878299D01*
X11910395Y2872586D01*
X11921821Y2866873D01*
X11938961D01*
X11950387Y2878299D01*
X11956100Y2895438D01*
Y2918291D01*
X11950387Y2935430D01*
X11938961Y2946856D01*
X11356691Y6480914D02*
X11345265Y6486627D01*
X11333839Y6498053D01*
X11328126Y6509479D01*
Y6532332D01*
X11333839Y6543758D01*
X11345265Y6555184D01*
X11356691Y6560897D01*
X11373830Y6566610D01*
X11402396D01*
X11419535Y6560897D01*
X11430961Y6555184D01*
X11442387Y6543758D01*
X11448100Y6532332D01*
Y6509479D01*
X11442387Y6498053D01*
X11430961Y6486627D01*
X11419535Y6480914D01*
X11402396D01*
Y6509479D02*
Y6480914D01*
X11328126Y6453491D02*
X11448100D01*
X11328126D02*
X11448100Y6373508D01*
X11328126D02*
X11448100D01*
X11328126Y6340373D02*
X11448100D01*
X11328126D02*
Y6300381D01*
X11333839Y6283242D01*
X11345265Y6271816D01*
X11356691Y6266103D01*
X11373830Y6260390D01*
X11402396D01*
X11419535Y6266103D01*
X11430961Y6271816D01*
X11442387Y6283242D01*
X11448100Y6300381D01*
Y6340373D01*
X11345265Y7305032D02*
X11448100D01*
X11396683Y7356450D02*
Y7253614D01*
X11328126Y7149637D02*
Y7206767D01*
X11379543Y7212481D01*
X11373830Y7206767D01*
X11368117Y7189628D01*
Y7172489D01*
X11373830Y7155350D01*
X11385256Y7143924D01*
X11402396Y7138211D01*
X11413822D01*
X11430961Y7143924D01*
X11442387Y7155350D01*
X11448100Y7172489D01*
Y7189628D01*
X11442387Y7206767D01*
X11436674Y7212481D01*
X11425248Y7218194D01*
X11328126Y7111359D02*
X11448100Y7065655D01*
X11328126Y7019950D02*
X11448100Y7065655D01*
X2845074Y4911906D02*
X2839361Y4900480D01*
X2827935Y4889054D01*
X2810796Y4883341D01*
X2799370D01*
X2782231Y4889054D01*
X2770804Y4900480D01*
X2765091Y4911906D01*
Y4929045D01*
X2770804Y4940471D01*
X2782231Y4951897D01*
X2799370Y4957611D01*
X2810796D01*
X2827935Y4951897D01*
X2839361Y4940471D01*
X2845074Y4929045D01*
Y4911906D01*
Y4983891D02*
X2725100D01*
X2827935D02*
X2839361Y4995317D01*
X2845074Y5006743D01*
Y5023882D01*
X2839361Y5035308D01*
X2827935Y5046734D01*
X2810796Y5052447D01*
X2799370D01*
X2782231Y5046734D01*
X2770804Y5035308D01*
X2765091Y5023882D01*
Y5006743D01*
X2770804Y4995317D01*
X2782231Y4983891D01*
X2810796Y5078156D02*
Y5146713D01*
X2822222D01*
X2833648Y5141000D01*
X2839361Y5135287D01*
X2845074Y5123861D01*
Y5106722D01*
X2839361Y5095295D01*
X2827935Y5083869D01*
X2810796Y5078156D01*
X2799370D01*
X2782231Y5083869D01*
X2770804Y5095295D01*
X2765091Y5106722D01*
Y5123861D01*
X2770804Y5135287D01*
X2782231Y5146713D01*
X2845074Y5172422D02*
X2765091D01*
X2822222D02*
X2839361Y5189561D01*
X2845074Y5200987D01*
Y5218126D01*
X2839361Y5229552D01*
X2822222Y5235265D01*
X2765091D01*
X2816509Y5266687D02*
Y5369522D01*
X2827935Y5467787D02*
X2839361Y5462074D01*
X2845074Y5444935D01*
Y5427795D01*
X2839361Y5410656D01*
X2827935Y5404943D01*
X2816509Y5410656D01*
X2810796Y5422082D01*
X2805083Y5450648D01*
X2799370Y5462074D01*
X2787944Y5467787D01*
X2782231D01*
X2770804Y5462074D01*
X2765091Y5444935D01*
Y5427795D01*
X2770804Y5410656D01*
X2782231Y5404943D01*
X2845074Y5521490D02*
X2839361Y5510064D01*
X2827935Y5498637D01*
X2810796Y5492924D01*
X2799370D01*
X2782231Y5498637D01*
X2770804Y5510064D01*
X2765091Y5521490D01*
Y5538629D01*
X2770804Y5550055D01*
X2782231Y5561481D01*
X2799370Y5567194D01*
X2810796D01*
X2827935Y5561481D01*
X2839361Y5550055D01*
X2845074Y5538629D01*
Y5521490D01*
Y5593474D02*
X2787944D01*
X2770804Y5599187D01*
X2765091Y5610614D01*
Y5627753D01*
X2770804Y5639179D01*
X2787944Y5656318D01*
X2845074D02*
X2765091D01*
X2845074Y5687740D02*
X2765091D01*
X2810796D02*
X2827935Y5693453D01*
X2839361Y5704879D01*
X2845074Y5716305D01*
Y5733444D01*
X2827935Y5812856D02*
X2839361Y5801430D01*
X2845074Y5790004D01*
Y5772865D01*
X2839361Y5761438D01*
X2827935Y5750012D01*
X2810796Y5744299D01*
X2799370D01*
X2782231Y5750012D01*
X2770804Y5761438D01*
X2765091Y5772865D01*
Y5790004D01*
X2770804Y5801430D01*
X2782231Y5812856D01*
X2810796Y5838565D02*
Y5907121D01*
X2822222D01*
X2833648Y5901408D01*
X2839361Y5895695D01*
X2845074Y5884269D01*
Y5867130D01*
X2839361Y5855704D01*
X2827935Y5844278D01*
X2810796Y5838565D01*
X2799370D01*
X2782231Y5844278D01*
X2770804Y5855704D01*
X2765091Y5867130D01*
Y5884269D01*
X2770804Y5895695D01*
X2782231Y5907121D01*
X2885066Y6095652D02*
X2765091D01*
X2827935D02*
X2839361Y6084226D01*
X2845074Y6072800D01*
Y6055661D01*
X2839361Y6044235D01*
X2827935Y6032809D01*
X2810796Y6027096D01*
X2799370D01*
X2782231Y6032809D01*
X2770804Y6044235D01*
X2765091Y6055661D01*
Y6072800D01*
X2770804Y6084226D01*
X2782231Y6095652D01*
X2810796Y6127646D02*
Y6196202D01*
X2822222D01*
X2833648Y6190489D01*
X2839361Y6184776D01*
X2845074Y6173350D01*
Y6156211D01*
X2839361Y6144785D01*
X2827935Y6133359D01*
X2810796Y6127646D01*
X2799370D01*
X2782231Y6133359D01*
X2770804Y6144785D01*
X2765091Y6156211D01*
Y6173350D01*
X2770804Y6184776D01*
X2782231Y6196202D01*
X2827935Y6284755D02*
X2839361Y6279042D01*
X2845074Y6261903D01*
Y6244763D01*
X2839361Y6227624D01*
X2827935Y6221911D01*
X2816509Y6227624D01*
X2810796Y6239050D01*
X2805083Y6267616D01*
X2799370Y6279042D01*
X2787944Y6284755D01*
X2782231D01*
X2770804Y6279042D01*
X2765091Y6261903D01*
Y6244763D01*
X2770804Y6227624D01*
X2782231Y6221911D01*
X2885066Y6321319D02*
X2879353Y6327032D01*
X2885066Y6332745D01*
X2890779Y6327032D01*
X2885066Y6321319D01*
X2845074Y6327032D02*
X2765091D01*
X2845074Y6422440D02*
X2753665D01*
X2736526Y6416727D01*
X2730813Y6411014D01*
X2725100Y6399587D01*
Y6382448D01*
X2730813Y6371022D01*
X2827935Y6422440D02*
X2839361Y6411014D01*
X2845074Y6399587D01*
Y6382448D01*
X2839361Y6371022D01*
X2827935Y6359596D01*
X2810796Y6353883D01*
X2799370D01*
X2782231Y6359596D01*
X2770804Y6371022D01*
X2765091Y6382448D01*
Y6399587D01*
X2770804Y6411014D01*
X2782231Y6422440D01*
X2845074Y6454433D02*
X2765091D01*
X2822222D02*
X2839361Y6471572D01*
X2845074Y6482998D01*
Y6500137D01*
X2839361Y6511564D01*
X2822222Y6517277D01*
X2765091D01*
X2885066Y6642964D02*
X2765091D01*
X2827935D02*
X2839361Y6654390D01*
X2845074Y6665816D01*
Y6682955D01*
X2839361Y6694381D01*
X2827935Y6705808D01*
X2810796Y6711520D01*
X2799370D01*
X2782231Y6705808D01*
X2770804Y6694381D01*
X2765091Y6682955D01*
Y6665816D01*
X2770804Y6654390D01*
X2782231Y6642964D01*
X2845074Y6742942D02*
X2765091Y6777221D01*
X2845074Y6811499D02*
X2765091Y6777221D01*
X2742239Y6765795D01*
X2730813Y6754369D01*
X2725100Y6742942D01*
Y6737229D01*
X2765091Y7017169D02*
X2885066Y6971465D01*
X2765091Y6925760D01*
X2805083Y6942900D02*
Y7000030D01*
X2856501Y7130859D02*
X2867927Y7125146D01*
X2879353Y7113720D01*
X2885066Y7102294D01*
Y7079442D01*
X2879353Y7068016D01*
X2867927Y7056590D01*
X2856501Y7050876D01*
X2839361Y7045163D01*
X2810796D01*
X2793657Y7050876D01*
X2782231Y7056590D01*
X2770804Y7068016D01*
X2765091Y7079442D01*
Y7102294D01*
X2770804Y7113720D01*
X2782231Y7125146D01*
X2793657Y7130859D01*
X2810796D01*
Y7102294D02*
Y7130859D01*
D91*
X5748000Y4436100D02*
G03*
X5758000Y4436100I5000J0D01*
G01*
D02*
G03*
X5748000Y4436100I-5000J0D01*
G01*
X7970700Y7503000D02*
G03*
X7980700Y7503000I5000J0D01*
G01*
D02*
G03*
X7970700Y7503000I-5000J0D01*
G01*
X5302100Y6045500D02*
G03*
X5312100Y6045500I5000J0D01*
G01*
D02*
G03*
X5302100Y6045500I-5000J0D01*
G01*
X7696200Y9302100D02*
G03*
X7696200Y9292100I0J-5000D01*
G01*
D02*
G03*
X7696200Y9302100I0J5000D01*
G01*
X6617200Y4776800D02*
Y4927100D01*
X6767800D01*
Y4726500D02*
Y4927100D01*
X6667500Y4726500D02*
X6767800D01*
X6617200Y4776800D02*
X6667500Y4726500D01*
D93*
X3394264Y8663236D02*
G03*
X3394264Y8663236I-12500J0D01*
G01*
X4888800Y5524400D02*
G03*
X4888800Y5524400I-12500J0D01*
G01*
D94*
X7856220Y8568780D02*
G03*
X7856220Y8568780I-7620J0D01*
G01*
X7818120Y8987880D02*
G03*
X7818120Y8987880I-7620J0D01*
G01*
D97*
X11565603Y2822687D02*
X11531325D01*
X11519898Y2826496D01*
X11516090Y2830304D01*
X11512281Y2837922D01*
Y2849348D01*
X11516090Y2856966D01*
X11519898Y2860774D01*
X11531325Y2864583D01*
X11565603D01*
Y2784600D01*
X11494380Y2822687D02*
X11460102D01*
X11448676Y2826496D01*
X11444867Y2830304D01*
X11441058Y2837922D01*
Y2849348D01*
X11444867Y2856966D01*
X11448676Y2860774D01*
X11460102Y2864583D01*
X11494380D01*
Y2784600D01*
X11369835Y2853157D02*
X11377453Y2860774D01*
X11388879Y2864583D01*
X11404114D01*
X11415540Y2860774D01*
X11423157Y2853157D01*
Y2845539D01*
X11419349Y2837922D01*
X11415540Y2834113D01*
X11407922Y2830304D01*
X11385070Y2822687D01*
X11377453Y2818878D01*
X11373644Y2815070D01*
X11369835Y2807452D01*
Y2796026D01*
X11377453Y2788409D01*
X11388879Y2784600D01*
X11404114D01*
X11415540Y2788409D01*
X11423157Y2796026D01*
X11565603Y3626583D02*
Y3546600D01*
Y3626583D02*
X11531325D01*
X11519898Y3622774D01*
X11516090Y3618966D01*
X11512281Y3611348D01*
Y3603731D01*
X11516090Y3596113D01*
X11519898Y3592304D01*
X11531325Y3588496D01*
X11565603D01*
X11538942D02*
X11512281Y3546600D01*
X11494380Y3626583D02*
X11441058Y3546600D01*
Y3626583D02*
X11494380Y3546600D01*
X11400305Y3626583D02*
X11411731Y3622774D01*
X11419349Y3611348D01*
X11423157Y3592304D01*
Y3580878D01*
X11419349Y3561835D01*
X11411731Y3550409D01*
X11400305Y3546600D01*
X11392688D01*
X11381261Y3550409D01*
X11373644Y3561835D01*
X11369835Y3580878D01*
Y3592304D01*
X11373644Y3611348D01*
X11381261Y3622774D01*
X11392688Y3626583D01*
X11400305D01*
X11565603Y3880583D02*
Y3800600D01*
Y3880583D02*
X11531325D01*
X11519898Y3876774D01*
X11516090Y3872966D01*
X11512281Y3865348D01*
Y3857731D01*
X11516090Y3850113D01*
X11519898Y3846304D01*
X11531325Y3842496D01*
X11565603D01*
X11538942D02*
X11512281Y3800600D01*
X11494380Y3880583D02*
X11441058Y3800600D01*
Y3880583D02*
X11494380Y3800600D01*
X11423157Y3865348D02*
X11415540Y3869157D01*
X11404114Y3880583D01*
Y3800600D01*
X11508472Y4115539D02*
X11512281Y4123157D01*
X11519898Y4130774D01*
X11527516Y4134583D01*
X11542751D01*
X11550368Y4130774D01*
X11557986Y4123157D01*
X11561794Y4115539D01*
X11565603Y4104113D01*
Y4085070D01*
X11561794Y4073644D01*
X11557986Y4066026D01*
X11550368Y4058409D01*
X11542751Y4054600D01*
X11527516D01*
X11519898Y4058409D01*
X11512281Y4066026D01*
X11508472Y4073644D01*
X11486001Y4134583D02*
Y4054600D01*
Y4134583D02*
X11451723D01*
X11440296Y4130774D01*
X11436488Y4126966D01*
X11432679Y4119348D01*
Y4111731D01*
X11436488Y4104113D01*
X11440296Y4100304D01*
X11451723Y4096496D01*
X11486001D01*
X11459340D02*
X11432679Y4054600D01*
X11414778Y4134583D02*
X11361456Y4054600D01*
Y4134583D02*
X11414778Y4054600D01*
X11320703Y4134583D02*
X11332129Y4130774D01*
X11339746Y4119348D01*
X11343555Y4100304D01*
Y4088878D01*
X11339746Y4069835D01*
X11332129Y4058409D01*
X11320703Y4054600D01*
X11313086D01*
X11301659Y4058409D01*
X11294042Y4069835D01*
X11290233Y4088878D01*
Y4100304D01*
X11294042Y4119348D01*
X11301659Y4130774D01*
X11313086Y4134583D01*
X11320703D01*
X11508472Y4369539D02*
X11512281Y4377157D01*
X11519898Y4384774D01*
X11527516Y4388583D01*
X11542751D01*
X11550368Y4384774D01*
X11557986Y4377157D01*
X11561794Y4369539D01*
X11565603Y4358113D01*
Y4339070D01*
X11561794Y4327644D01*
X11557986Y4320026D01*
X11550368Y4312409D01*
X11542751Y4308600D01*
X11527516D01*
X11519898Y4312409D01*
X11512281Y4320026D01*
X11508472Y4327644D01*
X11486001Y4388583D02*
Y4308600D01*
Y4388583D02*
X11451723D01*
X11440296Y4384774D01*
X11436488Y4380966D01*
X11432679Y4373348D01*
Y4365731D01*
X11436488Y4358113D01*
X11440296Y4354304D01*
X11451723Y4350496D01*
X11486001D01*
X11459340D02*
X11432679Y4308600D01*
X11414778Y4388583D02*
X11361456Y4308600D01*
Y4388583D02*
X11414778Y4308600D01*
X11343555Y4373348D02*
X11335938Y4377157D01*
X11324512Y4388583D01*
Y4308600D01*
X11512281Y4631157D02*
X11519898Y4638774D01*
X11531325Y4642583D01*
X11546559D01*
X11557986Y4638774D01*
X11565603Y4631157D01*
Y4623539D01*
X11561794Y4615922D01*
X11557986Y4612113D01*
X11550368Y4608304D01*
X11527516Y4600687D01*
X11519898Y4596878D01*
X11516090Y4593070D01*
X11512281Y4585452D01*
Y4574026D01*
X11519898Y4566409D01*
X11531325Y4562600D01*
X11546559D01*
X11557986Y4566409D01*
X11565603Y4574026D01*
X11437249Y4623539D02*
X11441058Y4631157D01*
X11448676Y4638774D01*
X11456293Y4642583D01*
X11471528D01*
X11479145Y4638774D01*
X11486763Y4631157D01*
X11490571Y4623539D01*
X11494380Y4612113D01*
Y4593070D01*
X11490571Y4581644D01*
X11486763Y4574026D01*
X11479145Y4566409D01*
X11471528Y4562600D01*
X11456293D01*
X11448676Y4566409D01*
X11441058Y4574026D01*
X11437249Y4581644D01*
X11414778Y4642583D02*
Y4562600D01*
X11369074D01*
X11337461Y4642583D02*
X11348887Y4638774D01*
X11356505Y4627348D01*
X11360314Y4608304D01*
Y4596878D01*
X11356505Y4577835D01*
X11348887Y4566409D01*
X11337461Y4562600D01*
X11329844D01*
X11318418Y4566409D01*
X11310800Y4577835D01*
X11306992Y4596878D01*
Y4608304D01*
X11310800Y4627348D01*
X11318418Y4638774D01*
X11329844Y4642583D01*
X11337461D01*
X11512281Y4885157D02*
X11519898Y4892774D01*
X11531325Y4896583D01*
X11546559D01*
X11557986Y4892774D01*
X11565603Y4885157D01*
Y4877539D01*
X11561794Y4869922D01*
X11557986Y4866113D01*
X11550368Y4862304D01*
X11527516Y4854687D01*
X11519898Y4850878D01*
X11516090Y4847070D01*
X11512281Y4839452D01*
Y4828026D01*
X11519898Y4820409D01*
X11531325Y4816600D01*
X11546559D01*
X11557986Y4820409D01*
X11565603Y4828026D01*
X11437249Y4877539D02*
X11441058Y4885157D01*
X11448676Y4892774D01*
X11456293Y4896583D01*
X11471528D01*
X11479145Y4892774D01*
X11486763Y4885157D01*
X11490571Y4877539D01*
X11494380Y4866113D01*
Y4847070D01*
X11490571Y4835644D01*
X11486763Y4828026D01*
X11479145Y4820409D01*
X11471528Y4816600D01*
X11456293D01*
X11448676Y4820409D01*
X11441058Y4828026D01*
X11437249Y4835644D01*
X11414778Y4896583D02*
Y4816600D01*
X11369074D01*
X11360314Y4881348D02*
X11352696Y4885157D01*
X11341270Y4896583D01*
Y4816600D01*
X11508472Y5131539D02*
X11512281Y5139157D01*
X11519898Y5146774D01*
X11527516Y5150583D01*
X11542751D01*
X11550368Y5146774D01*
X11557986Y5139157D01*
X11561794Y5131539D01*
X11565603Y5120113D01*
Y5101070D01*
X11561794Y5089644D01*
X11557986Y5082026D01*
X11550368Y5074409D01*
X11542751Y5070600D01*
X11527516D01*
X11519898Y5074409D01*
X11512281Y5082026D01*
X11508472Y5089644D01*
Y5101070D01*
X11527516D02*
X11508472D01*
X11490190Y5108687D02*
X11455912D01*
X11444486Y5112496D01*
X11440677Y5116304D01*
X11436868Y5123922D01*
Y5135348D01*
X11440677Y5142966D01*
X11444486Y5146774D01*
X11455912Y5150583D01*
X11490190D01*
Y5070600D01*
X11396115Y5150583D02*
X11407541Y5146774D01*
X11415159Y5135348D01*
X11418968Y5116304D01*
Y5104878D01*
X11415159Y5085835D01*
X11407541Y5074409D01*
X11396115Y5070600D01*
X11388498D01*
X11377072Y5074409D01*
X11369454Y5085835D01*
X11365646Y5104878D01*
Y5116304D01*
X11369454Y5135348D01*
X11377072Y5146774D01*
X11388498Y5150583D01*
X11396115D01*
X11508472Y5385539D02*
X11512281Y5393157D01*
X11519898Y5400774D01*
X11527516Y5404583D01*
X11542751D01*
X11550368Y5400774D01*
X11557986Y5393157D01*
X11561794Y5385539D01*
X11565603Y5374113D01*
Y5355070D01*
X11561794Y5343644D01*
X11557986Y5336026D01*
X11550368Y5328409D01*
X11542751Y5324600D01*
X11527516D01*
X11519898Y5328409D01*
X11512281Y5336026D01*
X11508472Y5343644D01*
Y5355070D01*
X11527516D02*
X11508472D01*
X11490190Y5362687D02*
X11455912D01*
X11444486Y5366496D01*
X11440677Y5370304D01*
X11436868Y5377922D01*
Y5389348D01*
X11440677Y5396966D01*
X11444486Y5400774D01*
X11455912Y5404583D01*
X11490190D01*
Y5324600D01*
X11418968Y5389348D02*
X11411350Y5393157D01*
X11399924Y5404583D01*
Y5324600D01*
X11531325Y5647157D02*
Y5578600D01*
X11565603Y5612878D02*
X11497046D01*
X11427728Y5658583D02*
X11465815D01*
X11469623Y5624304D01*
X11465815Y5628113D01*
X11454389Y5631922D01*
X11442963D01*
X11431536Y5628113D01*
X11423919Y5620496D01*
X11420110Y5609070D01*
Y5601452D01*
X11423919Y5590026D01*
X11431536Y5582409D01*
X11442963Y5578600D01*
X11454389D01*
X11465815Y5582409D01*
X11469623Y5586217D01*
X11473432Y5593835D01*
X11402209Y5658583D02*
X11371740Y5578600D01*
X11341270Y5658583D02*
X11371740Y5578600D01*
X11565603Y3372583D02*
Y3292600D01*
Y3372583D02*
X11535133Y3292600D01*
X11504664Y3372583D02*
X11535133Y3292600D01*
X11504664Y3372583D02*
Y3292600D01*
X11481811Y3372583D02*
Y3292600D01*
Y3372583D02*
X11447533D01*
X11436107Y3368774D01*
X11432298Y3364966D01*
X11428489Y3357348D01*
Y3349731D01*
X11432298Y3342113D01*
X11436107Y3338304D01*
X11447533Y3334496D01*
X11481811D01*
X11455150D02*
X11428489Y3292600D01*
X11410589Y3372583D02*
X11357267Y3292600D01*
Y3372583D02*
X11410589Y3292600D01*
X11561794Y3118583D02*
Y3038600D01*
Y3118583D02*
X11531325Y3038600D01*
X11500855Y3118583D02*
X11531325Y3038600D01*
X11500855Y3118583D02*
Y3038600D01*
X11420872Y3099539D02*
X11424681Y3107157D01*
X11432298Y3114774D01*
X11439916Y3118583D01*
X11455150D01*
X11462768Y3114774D01*
X11470385Y3107157D01*
X11474194Y3099539D01*
X11478003Y3088113D01*
Y3069070D01*
X11474194Y3057644D01*
X11470385Y3050026D01*
X11462768Y3042409D01*
X11455150Y3038600D01*
X11439916D01*
X11432298Y3042409D01*
X11424681Y3050026D01*
X11420872Y3057644D01*
Y3069070D01*
X11439916D02*
X11420872D01*
X11402590Y3076687D02*
X11368312D01*
X11356886Y3080496D01*
X11353077Y3084304D01*
X11349268Y3091922D01*
Y3103348D01*
X11353077Y3110966D01*
X11356886Y3114774D01*
X11368312Y3118583D01*
X11402590D01*
Y3038600D01*
X10724881Y3118583D02*
X10774394D01*
Y3038600D01*
X10724881D01*
X10774394Y3080496D02*
X10743925D01*
X10711551Y3118583D02*
X10681081Y3038600D01*
X10650611Y3118583D02*
X10681081Y3038600D01*
X10640328Y3118583D02*
Y3038600D01*
Y3118583D02*
X10606049D01*
X10594623Y3114774D01*
X10590814Y3110966D01*
X10587006Y3103348D01*
Y3095731D01*
X10590814Y3088113D01*
X10594623Y3084304D01*
X10606049Y3080496D01*
X10640328D02*
X10606049D01*
X10594623Y3076687D01*
X10590814Y3072878D01*
X10587006Y3065261D01*
Y3053835D01*
X10590814Y3046217D01*
X10594623Y3042409D01*
X10606049Y3038600D01*
X10640328D01*
X10778203Y3372583D02*
Y3292600D01*
Y3372583D02*
X10747733Y3292600D01*
X10717264Y3372583D02*
X10747733Y3292600D01*
X10717264Y3372583D02*
Y3292600D01*
X10667750Y3372583D02*
Y3292600D01*
X10694411Y3372583D02*
X10641089D01*
X10631568D02*
X10578246Y3292600D01*
Y3372583D02*
X10631568Y3292600D01*
X10721072Y5639539D02*
X10724881Y5647157D01*
X10732498Y5654774D01*
X10740116Y5658583D01*
X10755351D01*
X10762968Y5654774D01*
X10770586Y5647157D01*
X10774394Y5639539D01*
X10778203Y5628113D01*
Y5609070D01*
X10774394Y5597644D01*
X10770586Y5590026D01*
X10762968Y5582409D01*
X10755351Y5578600D01*
X10740116D01*
X10732498Y5582409D01*
X10724881Y5590026D01*
X10721072Y5597644D01*
Y5609070D01*
X10740116D02*
X10721072D01*
X10702790Y5658583D02*
Y5578600D01*
Y5658583D02*
X10649468Y5578600D01*
Y5658583D02*
Y5578600D01*
X10627378Y5658583D02*
Y5578600D01*
Y5658583D02*
X10600717D01*
X10589291Y5654774D01*
X10581673Y5647157D01*
X10577865Y5639539D01*
X10574056Y5628113D01*
Y5609070D01*
X10577865Y5597644D01*
X10581673Y5590026D01*
X10589291Y5582409D01*
X10600717Y5578600D01*
X10627378D01*
X10717264Y5324600D02*
X10747733Y5404583D01*
X10778203Y5324600D01*
X10766777Y5351261D02*
X10728690D01*
X10698601Y5404583D02*
Y5324600D01*
Y5404583D02*
X10671940D01*
X10660514Y5400774D01*
X10652896Y5393157D01*
X10649088Y5385539D01*
X10645279Y5374113D01*
Y5355070D01*
X10649088Y5343644D01*
X10652896Y5336026D01*
X10660514Y5328409D01*
X10671940Y5324600D01*
X10698601D01*
X10570247Y5385539D02*
X10574056Y5393157D01*
X10581674Y5400774D01*
X10589291Y5404583D01*
X10604526D01*
X10612143Y5400774D01*
X10619761Y5393157D01*
X10623569Y5385539D01*
X10627378Y5374113D01*
Y5355070D01*
X10623569Y5343644D01*
X10619761Y5336026D01*
X10612143Y5328409D01*
X10604526Y5324600D01*
X10589291D01*
X10581674Y5328409D01*
X10574056Y5336026D01*
X10570247Y5343644D01*
X10524924Y5404583D02*
X10536350Y5400774D01*
X10543967Y5389348D01*
X10547776Y5370304D01*
Y5358878D01*
X10543967Y5339835D01*
X10536350Y5328409D01*
X10524924Y5324600D01*
X10517306D01*
X10505880Y5328409D01*
X10498263Y5339835D01*
X10494454Y5358878D01*
Y5370304D01*
X10498263Y5389348D01*
X10505880Y5400774D01*
X10517306Y5404583D01*
X10524924D01*
X10751542Y5150583D02*
Y5070600D01*
X10778203Y5150583D02*
X10724881D01*
X10715359D02*
Y5070600D01*
X10698601Y5150583D02*
Y5070600D01*
Y5150583D02*
X10668131Y5070600D01*
X10637661Y5150583D02*
X10668131Y5070600D01*
X10637661Y5150583D02*
Y5070600D01*
X10591957Y5150583D02*
X10603383Y5146774D01*
X10611001Y5135348D01*
X10614809Y5116304D01*
Y5104878D01*
X10611001Y5085835D01*
X10603383Y5074409D01*
X10591957Y5070600D01*
X10584340D01*
X10572914Y5074409D01*
X10565296Y5085835D01*
X10561487Y5104878D01*
Y5116304D01*
X10565296Y5135348D01*
X10572914Y5146774D01*
X10584340Y5150583D01*
X10591957D01*
X10724881Y4885157D02*
X10732498Y4892774D01*
X10743925Y4896583D01*
X10759159D01*
X10770586Y4892774D01*
X10778203Y4885157D01*
Y4877539D01*
X10774394Y4869922D01*
X10770586Y4866113D01*
X10762968Y4862304D01*
X10740116Y4854687D01*
X10732498Y4850878D01*
X10728690Y4847070D01*
X10724881Y4839452D01*
Y4828026D01*
X10732498Y4820409D01*
X10743925Y4816600D01*
X10759159D01*
X10770586Y4820409D01*
X10778203Y4828026D01*
X10706980Y4896583D02*
Y4816600D01*
Y4896583D02*
X10680319D01*
X10668893Y4892774D01*
X10661276Y4885157D01*
X10657467Y4877539D01*
X10653658Y4866113D01*
Y4847070D01*
X10657467Y4835644D01*
X10661276Y4828026D01*
X10668893Y4820409D01*
X10680319Y4816600D01*
X10706980D01*
X10574818D02*
X10605288Y4896583D01*
X10635757Y4816600D01*
X10624331Y4843261D02*
X10586244D01*
X10556155Y4881348D02*
X10548538Y4885157D01*
X10537112Y4896583D01*
Y4816600D01*
X10724881Y4631157D02*
X10732498Y4638774D01*
X10743925Y4642583D01*
X10759159D01*
X10770586Y4638774D01*
X10778203Y4631157D01*
Y4623539D01*
X10774394Y4615922D01*
X10770586Y4612113D01*
X10762968Y4608304D01*
X10740116Y4600687D01*
X10732498Y4596878D01*
X10728690Y4593070D01*
X10724881Y4585452D01*
Y4574026D01*
X10732498Y4566409D01*
X10743925Y4562600D01*
X10759159D01*
X10770586Y4566409D01*
X10778203Y4574026D01*
X10706980Y4642583D02*
Y4562600D01*
Y4642583D02*
X10680319D01*
X10668893Y4638774D01*
X10661276Y4631157D01*
X10657467Y4623539D01*
X10653658Y4612113D01*
Y4593070D01*
X10657467Y4581644D01*
X10661276Y4574026D01*
X10668893Y4566409D01*
X10680319Y4562600D01*
X10706980D01*
X10574818D02*
X10605288Y4642583D01*
X10635757Y4562600D01*
X10624331Y4589261D02*
X10586244D01*
X10556155Y4627348D02*
X10548538Y4631157D01*
X10537112Y4642583D01*
Y4562600D01*
X10721072Y4369539D02*
X10724881Y4377157D01*
X10732498Y4384774D01*
X10740116Y4388583D01*
X10755351D01*
X10762968Y4384774D01*
X10770586Y4377157D01*
X10774394Y4369539D01*
X10778203Y4358113D01*
Y4339070D01*
X10774394Y4327644D01*
X10770586Y4320026D01*
X10762968Y4312409D01*
X10755351Y4308600D01*
X10740116D01*
X10732498Y4312409D01*
X10724881Y4320026D01*
X10721072Y4327644D01*
X10671940Y4388583D02*
Y4308600D01*
X10698601Y4388583D02*
X10645279D01*
X10635757D02*
X10582435Y4308600D01*
Y4388583D02*
X10635757Y4308600D01*
X10564534Y4373348D02*
X10556917Y4377157D01*
X10545491Y4388583D01*
Y4308600D01*
X10721072Y4115539D02*
X10724881Y4123157D01*
X10732498Y4130774D01*
X10740116Y4134583D01*
X10755351D01*
X10762968Y4130774D01*
X10770586Y4123157D01*
X10774394Y4115539D01*
X10778203Y4104113D01*
Y4085070D01*
X10774394Y4073644D01*
X10770586Y4066026D01*
X10762968Y4058409D01*
X10755351Y4054600D01*
X10740116D01*
X10732498Y4058409D01*
X10724881Y4066026D01*
X10721072Y4073644D01*
X10671940Y4134583D02*
Y4054600D01*
X10698601Y4134583D02*
X10645279D01*
X10635757D02*
X10582435Y4054600D01*
Y4134583D02*
X10635757Y4054600D01*
X10541682Y4134583D02*
X10553108Y4130774D01*
X10560726Y4119348D01*
X10564534Y4100304D01*
Y4088878D01*
X10560726Y4069835D01*
X10553108Y4058409D01*
X10541682Y4054600D01*
X10534065D01*
X10522639Y4058409D01*
X10515021Y4069835D01*
X10511212Y4088878D01*
Y4100304D01*
X10515021Y4119348D01*
X10522639Y4130774D01*
X10534065Y4134583D01*
X10541682D01*
X10751542Y3880583D02*
Y3800600D01*
X10778203Y3880583D02*
X10724881D01*
X10715359D02*
X10662037Y3800600D01*
Y3880583D02*
X10715359Y3800600D01*
X10644136Y3865348D02*
X10636519Y3869157D01*
X10625093Y3880583D01*
Y3800600D01*
X10751542Y3626583D02*
Y3546600D01*
X10778203Y3626583D02*
X10724881D01*
X10715359D02*
X10662037Y3546600D01*
Y3626583D02*
X10715359Y3546600D01*
X10621284Y3626583D02*
X10632710Y3622774D01*
X10640328Y3611348D01*
X10644136Y3592304D01*
Y3580878D01*
X10640328Y3561835D01*
X10632710Y3550409D01*
X10621284Y3546600D01*
X10613667D01*
X10602241Y3550409D01*
X10594623Y3561835D01*
X10590814Y3580878D01*
Y3592304D01*
X10594623Y3611348D01*
X10602241Y3622774D01*
X10613667Y3626583D01*
X10621284D01*
X10728690Y2864583D02*
X10778203D01*
Y2784600D01*
X10728690D01*
X10778203Y2826496D02*
X10747733D01*
X10715359Y2864583D02*
X10684890Y2784600D01*
X10654420Y2864583D02*
X10684890Y2784600D01*
X10583197D02*
X10613667Y2864583D01*
X10644136Y2784600D01*
X10632710Y2811261D02*
X10594623D01*
%TF.MD5,6365f69da661bfad30fe089b144beae1*%
M02*
