%TF.GenerationSoftware,Altium Limited,Altium Designer,23.8.1 (32)*%
G04 Layer_Color=128*
%FSLAX45Y45*%
%MOMM*%
%TF.SameCoordinates,47205040-CD91-4698-B5C6-F5A5CD4DDF21*%
%TF.FilePolarity,Positive*%
%TF.FileFunction,Paste,Bot*%
%TF.Part,Single*%
G01*
G75*
%TA.AperFunction,SMDPad,CuDef*%
%ADD12R,0.56000X0.62000*%
%ADD13R,0.62000X0.56000*%
%ADD14R,1.47000X0.99000*%
%ADD15R,0.75000X0.60000*%
%ADD19R,0.60000X0.75000*%
%ADD20R,0.80000X0.80000*%
%ADD24R,1.02000X0.87000*%
%ADD25R,0.80000X0.94000*%
%ADD27R,0.94000X0.80000*%
%ADD63R,0.67000X0.30000*%
%ADD64R,0.28000X0.85000*%
%ADD65R,0.85000X0.28000*%
%ADD66R,2.05000X2.55000*%
%ADD67R,0.60000X0.60000*%
%ADD68R,0.60000X0.40000*%
%TA.AperFunction,BGAPad,CuDef*%
%ADD69C,0.30600*%
%TA.AperFunction,SMDPad,CuDef*%
%ADD70R,1.80000X1.20000*%
%ADD71R,0.99000X1.47000*%
%ADD72R,0.55000X0.60000*%
%ADD73R,0.60000X0.35000*%
%ADD74R,0.70000X0.25000*%
%ADD75R,1.00000X0.40000*%
%ADD76R,0.40000X0.80000*%
%ADD77R,0.40000X2.40000*%
%ADD78R,0.40000X0.70000*%
%ADD79R,0.25000X0.70000*%
%ADD80R,0.30000X0.70000*%
%ADD81R,2.00000X1.30000*%
%ADD82R,0.40000X1.00000*%
%ADD83R,1.00000X0.90000*%
%ADD84R,0.88000X0.78000*%
%ADD85R,1.30000X2.00000*%
%ADD86R,0.46000X0.42000*%
%ADD87R,0.60000X0.57000*%
%ADD88R,0.50000X0.25000*%
D12*
X8493500Y4013200D02*
D03*
X8397500D02*
D03*
X8493500Y3911600D02*
D03*
X8397500D02*
D03*
X8493500Y3606800D02*
D03*
X8397500D02*
D03*
X8493500Y3810000D02*
D03*
X8397500D02*
D03*
X8493500Y3505200D02*
D03*
X8397500D02*
D03*
X8493500Y3708400D02*
D03*
X8397500D02*
D03*
X8811000Y8102600D02*
D03*
X8715000D02*
D03*
X4645400Y5575300D02*
D03*
X4549400D02*
D03*
D13*
X7962901Y6886200D02*
D03*
Y6982200D02*
D03*
X7848601Y6886200D02*
D03*
Y6982200D02*
D03*
X8077201Y6886200D02*
D03*
Y6982200D02*
D03*
X10452100Y2784100D02*
D03*
Y2880100D02*
D03*
X6921500Y3292100D02*
D03*
Y3388100D02*
D03*
X6819900Y3292100D02*
D03*
Y3388100D02*
D03*
X6616700Y3292100D02*
D03*
Y3388100D02*
D03*
X6718300Y3292100D02*
D03*
Y3388100D02*
D03*
X6515100Y3292100D02*
D03*
Y3388100D02*
D03*
D14*
X8648700Y6801400D02*
D03*
Y6965400D02*
D03*
X7950200Y3422100D02*
D03*
Y3258100D02*
D03*
X5816601Y6712500D02*
D03*
Y6876500D02*
D03*
X5461001Y6712500D02*
D03*
Y6876500D02*
D03*
X5994401Y6712500D02*
D03*
Y6876500D02*
D03*
X5638801Y6712500D02*
D03*
Y6876500D02*
D03*
X9296400Y7728500D02*
D03*
Y7892500D02*
D03*
X7061200Y3245400D02*
D03*
Y3409400D02*
D03*
X3467099Y8896900D02*
D03*
Y9060900D02*
D03*
D15*
X10430900Y3517900D02*
D03*
X10320900D02*
D03*
X5655700Y4546600D02*
D03*
X5545700D02*
D03*
X8310000Y7683500D02*
D03*
X8200000D02*
D03*
X8437000Y7493000D02*
D03*
X8327000D02*
D03*
X9859400Y6946900D02*
D03*
X9749400D02*
D03*
X3725300Y9055100D02*
D03*
X3615300D02*
D03*
Y8890000D02*
D03*
X3725300D02*
D03*
X3386700Y3060700D02*
D03*
X3496700D02*
D03*
X3374000Y4152900D02*
D03*
X3484000D02*
D03*
D19*
X6604000Y3915800D02*
D03*
Y3805800D02*
D03*
X8318500Y7780900D02*
D03*
Y7890900D02*
D03*
X8496300Y7128900D02*
D03*
Y7018900D02*
D03*
X8343900D02*
D03*
Y7128900D02*
D03*
X8610600Y7247500D02*
D03*
Y7357500D02*
D03*
X8915400Y4313800D02*
D03*
Y4423800D02*
D03*
X9105900Y4339200D02*
D03*
Y4449200D02*
D03*
X8343900Y4423800D02*
D03*
Y4313800D02*
D03*
X6705600Y6925700D02*
D03*
Y6815700D02*
D03*
X6578600Y6925700D02*
D03*
Y6815700D02*
D03*
X8128000Y4347600D02*
D03*
Y4237600D02*
D03*
X8229600Y4347600D02*
D03*
Y4237600D02*
D03*
D20*
X8060700Y7493000D02*
D03*
X8220700D02*
D03*
D24*
X8204200Y6828100D02*
D03*
Y6964100D02*
D03*
X8140700Y3395400D02*
D03*
Y3259400D02*
D03*
X5854700Y4516700D02*
D03*
Y4652700D02*
D03*
X8826500Y7234500D02*
D03*
Y7370500D02*
D03*
D25*
X5013000Y5956300D02*
D03*
X5147000D02*
D03*
D27*
X8496300Y7369500D02*
D03*
Y7235500D02*
D03*
X5575300Y6010600D02*
D03*
Y5876600D02*
D03*
D63*
X9726000Y7049700D02*
D03*
Y7099700D02*
D03*
Y7149700D02*
D03*
Y7199700D02*
D03*
X9578000D02*
D03*
Y7149700D02*
D03*
Y7099700D02*
D03*
Y7049700D02*
D03*
D64*
X10251300Y2997200D02*
D03*
Y3392200D02*
D03*
X10401300D02*
D03*
Y2997200D02*
D03*
D65*
X10153800Y3069700D02*
D03*
Y3119700D02*
D03*
Y3169700D02*
D03*
Y3219700D02*
D03*
Y3269700D02*
D03*
Y3319700D02*
D03*
X10498800D02*
D03*
Y3269700D02*
D03*
Y3219700D02*
D03*
Y3169700D02*
D03*
Y3119700D02*
D03*
Y3069700D02*
D03*
D66*
X10326300Y3194700D02*
D03*
D67*
X5498000Y4431100D02*
D03*
Y4281100D02*
D03*
X5678000D02*
D03*
Y4431100D02*
D03*
D68*
X5498000Y4356100D02*
D03*
X5678000D02*
D03*
X8826400Y7945100D02*
D03*
X8496400D02*
D03*
D69*
X6667500Y4776800D02*
D03*
X6717500D02*
D03*
X6667500Y4826800D02*
D03*
X6717500D02*
D03*
X6667500Y4876800D02*
D03*
X6717500D02*
D03*
D70*
X6896100Y4715600D02*
D03*
Y4885600D02*
D03*
D71*
X9455700Y7607300D02*
D03*
X9619700D02*
D03*
X4998000Y6705600D02*
D03*
X5162000D02*
D03*
D72*
X8840700Y8216900D02*
D03*
X8710700D02*
D03*
D73*
X8496400Y7617600D02*
D03*
X8826400D02*
D03*
D74*
X8821400Y7672600D02*
D03*
Y7722600D02*
D03*
X8501400D02*
D03*
Y7672600D02*
D03*
D75*
X8806400Y7830100D02*
D03*
X8516400D02*
D03*
X4546300Y5454400D02*
D03*
Y5359400D02*
D03*
Y5264400D02*
D03*
X4826300D02*
D03*
Y5359400D02*
D03*
Y5454400D02*
D03*
D76*
X8776400Y7965100D02*
D03*
X8546400D02*
D03*
D77*
X8661400Y7885100D02*
D03*
D78*
X8546400Y7600100D02*
D03*
X8776400D02*
D03*
D79*
X8608900D02*
D03*
X8713900D02*
D03*
D80*
X8661400D02*
D03*
D81*
X3546764Y8473237D02*
D03*
D82*
X3451764Y8333237D02*
D03*
X3546764D02*
D03*
X3641764D02*
D03*
Y8613237D02*
D03*
X3546764D02*
D03*
X3451764D02*
D03*
D83*
X8001000Y4347200D02*
D03*
Y4187200D02*
D03*
X7251700Y3247400D02*
D03*
Y3407400D02*
D03*
D84*
X5308100Y5954500D02*
D03*
X5436100D02*
D03*
Y5856500D02*
D03*
X5308100D02*
D03*
D85*
X4686300Y5359400D02*
D03*
D86*
X7843500Y8928100D02*
D03*
X7777500D02*
D03*
D87*
X7848600Y8794100D02*
D03*
Y8681100D02*
D03*
X7810500Y9213200D02*
D03*
Y9100200D02*
D03*
D88*
X7696200Y9149600D02*
D03*
Y9214600D02*
D03*
%TF.MD5,5daca38d608b531d6c90ecd856b6b858*%
M02*
