%TF.GenerationSoftware,Altium Limited,Altium Designer,23.8.1 (32)*%
G04 Layer_Color=16711935*
%FSLAX45Y45*%
%MOMM*%
%TF.SameCoordinates,47205040-CD91-4698-B5C6-F5A5CD4DDF21*%
%TF.FilePolarity,Negative*%
%TF.FileFunction,Soldermask,Bot*%
%TF.Part,Single*%
G01*
G75*
%TA.AperFunction,SMDPad,CuDef*%
%ADD87R,0.60000X0.57000*%
%ADD100R,0.76320X0.82320*%
%ADD101R,0.82320X0.76320*%
%ADD102R,1.67320X1.19320*%
%ADD103R,0.95320X0.80320*%
%ADD107R,0.80320X0.95320*%
%ADD108R,1.00320X1.00320*%
%ADD112R,1.22320X1.07320*%
%ADD113R,1.00320X1.14320*%
%ADD115R,1.14320X1.00320*%
%TA.AperFunction,ComponentPad*%
%ADD119C,2.45320*%
%ADD120R,2.30320X2.30320*%
%ADD121R,1.64920X1.64920*%
%ADD122C,1.64920*%
%ADD123C,2.19820*%
%ADD124C,1.49820*%
%ADD125C,2.60320*%
%ADD126R,2.60320X2.60320*%
%ADD127C,4.20320*%
%ADD128C,1.80320*%
%ADD129C,0.52820*%
%ADD130R,1.61120X1.61120*%
%ADD131C,3.45320*%
%ADD132C,1.61120*%
%ADD133C,2.00320*%
%TA.AperFunction,ViaPad*%
%ADD134C,0.70320*%
%ADD135C,1.10320*%
%ADD136C,0.80320*%
%ADD137C,0.90320*%
%TA.AperFunction,SMDPad,CuDef*%
%ADD138R,0.87320X0.50320*%
%ADD139R,0.48320X1.05320*%
%ADD140R,1.05320X0.48320*%
%ADD141R,2.25320X2.75320*%
%ADD142R,0.80320X0.80320*%
%ADD143R,0.80320X0.60320*%
%TA.AperFunction,BGAPad,CuDef*%
%ADD144C,0.50920*%
%TA.AperFunction,SMDPad,CuDef*%
%ADD145R,2.00320X1.40320*%
%ADD146R,1.19320X1.67320*%
%ADD147R,0.75320X0.80320*%
%ADD148R,0.80320X0.55320*%
%ADD149R,0.90320X0.45320*%
%ADD150R,1.20320X0.60320*%
%ADD151R,0.60320X1.00320*%
%ADD152R,0.60320X2.60320*%
%ADD153R,0.60320X0.90320*%
%ADD154R,0.45320X0.90320*%
%ADD155R,0.50320X0.90320*%
%ADD156R,2.20320X1.50320*%
%ADD157R,0.60320X1.20320*%
%ADD158R,1.20320X1.10320*%
%ADD159R,1.08320X0.98320*%
%ADD160R,1.50320X2.20320*%
%ADD161R,0.66320X0.62320*%
%ADD162R,0.70320X0.45320*%
D87*
X7848600Y8794100D02*
D03*
Y8681100D02*
D03*
X7810500Y9213200D02*
D03*
Y9100200D02*
D03*
D100*
X8493500Y4013200D02*
D03*
X8397500D02*
D03*
X8493500Y3911600D02*
D03*
X8397500D02*
D03*
X8493500Y3606800D02*
D03*
X8397500D02*
D03*
X8493500Y3810000D02*
D03*
X8397500D02*
D03*
X8493500Y3505200D02*
D03*
X8397500D02*
D03*
X8493500Y3708400D02*
D03*
X8397500D02*
D03*
X8811000Y8102600D02*
D03*
X8715000D02*
D03*
X4645400Y5575300D02*
D03*
X4549400D02*
D03*
D101*
X7962901Y6886200D02*
D03*
Y6982200D02*
D03*
X7848601Y6886200D02*
D03*
Y6982200D02*
D03*
X8077201Y6886200D02*
D03*
Y6982200D02*
D03*
X10452100Y2784100D02*
D03*
Y2880100D02*
D03*
X6921500Y3292100D02*
D03*
Y3388100D02*
D03*
X6819900Y3292100D02*
D03*
Y3388100D02*
D03*
X6616700Y3292100D02*
D03*
Y3388100D02*
D03*
X6718300Y3292100D02*
D03*
Y3388100D02*
D03*
X6515100Y3292100D02*
D03*
Y3388100D02*
D03*
D102*
X8648700Y6801400D02*
D03*
Y6965400D02*
D03*
X7950200Y3422100D02*
D03*
Y3258100D02*
D03*
X5816601Y6712500D02*
D03*
Y6876500D02*
D03*
X5461001Y6712500D02*
D03*
Y6876500D02*
D03*
X5994401Y6712500D02*
D03*
Y6876500D02*
D03*
X5638801Y6712500D02*
D03*
Y6876500D02*
D03*
X9296400Y7728500D02*
D03*
Y7892500D02*
D03*
X7061200Y3245400D02*
D03*
Y3409400D02*
D03*
X3467099Y8896900D02*
D03*
Y9060900D02*
D03*
D103*
X10430900Y3517900D02*
D03*
X10320900D02*
D03*
X5655700Y4546600D02*
D03*
X5545700D02*
D03*
X8310000Y7683500D02*
D03*
X8200000D02*
D03*
X8437000Y7493000D02*
D03*
X8327000D02*
D03*
X9859400Y6946900D02*
D03*
X9749400D02*
D03*
X3725300Y9055100D02*
D03*
X3615300D02*
D03*
Y8890000D02*
D03*
X3725300D02*
D03*
X3386700Y3060700D02*
D03*
X3496700D02*
D03*
X3374000Y4152900D02*
D03*
X3484000D02*
D03*
D107*
X6604000Y3915800D02*
D03*
Y3805800D02*
D03*
X8318500Y7780900D02*
D03*
Y7890900D02*
D03*
X8496300Y7128900D02*
D03*
Y7018900D02*
D03*
X8343900D02*
D03*
Y7128900D02*
D03*
X8610600Y7247500D02*
D03*
Y7357500D02*
D03*
X8915400Y4313800D02*
D03*
Y4423800D02*
D03*
X9105900Y4339200D02*
D03*
Y4449200D02*
D03*
X8343900Y4423800D02*
D03*
Y4313800D02*
D03*
X6705600Y6925700D02*
D03*
Y6815700D02*
D03*
X6578600Y6925700D02*
D03*
Y6815700D02*
D03*
X8128000Y4347600D02*
D03*
Y4237600D02*
D03*
X8229600Y4347600D02*
D03*
Y4237600D02*
D03*
D108*
X8060700Y7493000D02*
D03*
X8220700D02*
D03*
D112*
X8204200Y6828100D02*
D03*
Y6964100D02*
D03*
X8140700Y3395400D02*
D03*
Y3259400D02*
D03*
X5854700Y4516700D02*
D03*
Y4652700D02*
D03*
X8826500Y7234500D02*
D03*
Y7370500D02*
D03*
D113*
X5013000Y5956300D02*
D03*
X5147000D02*
D03*
D115*
X8496300Y7369500D02*
D03*
Y7235500D02*
D03*
X5575300Y6010600D02*
D03*
Y5876600D02*
D03*
D119*
X10786000Y9096000D02*
D03*
Y9604000D02*
D03*
X11294000D02*
D03*
Y9096000D02*
D03*
X10786000Y8096000D02*
D03*
Y8604000D02*
D03*
X11294000D02*
D03*
Y8096000D02*
D03*
D120*
X11040000Y9350000D02*
D03*
Y8350000D02*
D03*
D121*
X11684000Y2832100D02*
D03*
D122*
Y3086100D02*
D03*
Y3340100D02*
D03*
Y3594100D02*
D03*
Y3848100D02*
D03*
Y4102100D02*
D03*
Y4356100D02*
D03*
Y4610100D02*
D03*
Y4864100D02*
D03*
Y5118100D02*
D03*
Y5372100D02*
D03*
Y5626100D02*
D03*
X10897000D02*
D03*
Y5372100D02*
D03*
Y5118100D02*
D03*
Y4864100D02*
D03*
Y4610100D02*
D03*
Y4356100D02*
D03*
Y4102100D02*
D03*
Y3848100D02*
D03*
Y3594100D02*
D03*
Y3340100D02*
D03*
Y3086100D02*
D03*
Y2832100D02*
D03*
D123*
X11722100Y6413500D02*
D03*
Y7175500D02*
D03*
D124*
X10960100Y6794500D02*
D03*
D125*
X10706100Y7048500D02*
D03*
X3736000Y4722500D02*
D03*
Y3148500D02*
D03*
D126*
X10706100Y6540500D02*
D03*
D127*
X3450000Y5343000D02*
D03*
X4018000D02*
D03*
X3450000Y6657000D02*
D03*
X4018000D02*
D03*
D128*
X3983000Y6350000D02*
D03*
Y6100000D02*
D03*
Y5900000D02*
D03*
Y5650000D02*
D03*
X3721000Y6350000D02*
D03*
Y6100000D02*
D03*
Y5900000D02*
D03*
Y5650000D02*
D03*
D129*
X3031100Y9090100D02*
D03*
Y8512100D02*
D03*
D130*
X4320000Y4508500D02*
D03*
D131*
X3431000D02*
D03*
Y3365500D02*
D03*
D132*
X4066000Y4381500D02*
D03*
X4320000Y4254500D02*
D03*
X4066000Y4127500D02*
D03*
X4320000Y4000500D02*
D03*
X4066000Y3873500D02*
D03*
X4320000Y3746500D02*
D03*
X4066000Y3619500D02*
D03*
X4320000Y3492500D02*
D03*
X4066000Y3365500D02*
D03*
D133*
X3025000Y4601500D02*
D03*
Y4346500D02*
D03*
Y3526500D02*
D03*
Y3271500D02*
D03*
D134*
X9563100Y7251700D02*
D03*
X9728200D02*
D03*
X8763000Y4330700D02*
D03*
X7035800Y3937000D02*
D03*
X7315200D02*
D03*
X7226300D02*
D03*
X7124700Y4025900D02*
D03*
X7226300D02*
D03*
X7035800Y4114800D02*
D03*
Y4381500D02*
D03*
X7569200D02*
D03*
X7581900Y4114800D02*
D03*
Y4025900D02*
D03*
X7493000D02*
D03*
X7404100D02*
D03*
X7315200D02*
D03*
X7658100Y8623300D02*
D03*
X7734300Y8750300D02*
D03*
X6896100Y9309100D02*
D03*
X6832600Y9194800D02*
D03*
X7937500Y6680200D02*
D03*
X7734300Y6146800D02*
D03*
X7010400D02*
D03*
X6324600Y6781800D02*
D03*
X5892800Y7023100D02*
D03*
X6997700Y6934200D02*
D03*
X6959600Y7226300D02*
D03*
X6121400D02*
D03*
X6604000Y7708900D02*
D03*
X5664200Y7734300D02*
D03*
X5956300Y8191500D02*
D03*
X6654800Y8623300D02*
D03*
X5600700Y8534400D02*
D03*
X6642100Y9702800D02*
D03*
X6248400Y9690100D02*
D03*
X5295900Y9740900D02*
D03*
X4267200Y9486900D02*
D03*
X3581400Y9436100D02*
D03*
X3644900Y8750300D02*
D03*
X3187700Y8026400D02*
D03*
X4267200Y8724900D02*
D03*
X4229100Y8305800D02*
D03*
X5422900Y7251700D02*
D03*
X5156200Y7569200D02*
D03*
X3619500Y7200900D02*
D03*
X3175000Y6845300D02*
D03*
X5016500Y5816600D02*
D03*
X4394200Y6527800D02*
D03*
X4673600Y5918200D02*
D03*
X3213100Y5003800D02*
D03*
X4038600Y4813300D02*
D03*
X4025900Y3060700D02*
D03*
X4673600Y5143500D02*
D03*
X6350000Y5232400D02*
D03*
X4978400Y4356100D02*
D03*
X5867400Y4140200D02*
D03*
X6807200Y3505200D02*
D03*
X7404100Y3365500D02*
D03*
X7912100Y3771900D02*
D03*
X7823200Y5549900D02*
D03*
X8026400D02*
D03*
X8877300Y5765800D02*
D03*
X8636000Y5232400D02*
D03*
X8826500Y4813300D02*
D03*
X9271000Y3860800D02*
D03*
X9474200Y3454400D02*
D03*
X9702800Y3784600D02*
D03*
X10058400Y2755900D02*
D03*
X11353800Y3352800D02*
D03*
X10591800Y3429000D02*
D03*
X11176000Y4216400D02*
D03*
X11214100Y4648200D02*
D03*
X10210800Y4965700D02*
D03*
X10109200Y5702300D02*
D03*
X11087100Y5232400D02*
D03*
X11684000Y5867400D02*
D03*
X10947400Y6045200D02*
D03*
X10718800Y7315200D02*
D03*
X10388600Y7861300D02*
D03*
X10045700Y6845300D02*
D03*
X9550400Y6731000D02*
D03*
X8890000Y6210300D02*
D03*
X8331200Y6413500D02*
D03*
X8407400Y6819900D02*
D03*
X9194800Y7353300D02*
D03*
X9652000Y7861300D02*
D03*
X9258300Y8242300D02*
D03*
X8077200Y7327900D02*
D03*
X8026400Y8229600D02*
D03*
X9994900Y9055100D02*
D03*
X10528300Y8293100D02*
D03*
X10680700D02*
D03*
X10668000Y8407400D02*
D03*
X10528300D02*
D03*
X10312400Y8420100D02*
D03*
Y8293100D02*
D03*
X10160000Y8420100D02*
D03*
X10083800Y8293100D02*
D03*
X9867900Y8305800D02*
D03*
X9715500Y8458200D02*
D03*
X10020300Y8420100D02*
D03*
X9880600Y8470900D02*
D03*
X9753600Y8597900D02*
D03*
X9613900Y8724900D02*
D03*
X9588500Y8585200D02*
D03*
X9423400Y8610600D02*
D03*
X9398000Y8737600D02*
D03*
X9131300D02*
D03*
X9271000Y8610600D02*
D03*
X9029700D02*
D03*
X8826500D02*
D03*
X8940800Y8737600D02*
D03*
X8597900D02*
D03*
X8509000Y8610600D02*
D03*
X8382000D02*
D03*
X8178800D02*
D03*
X8369300Y8737600D02*
D03*
X8178800D02*
D03*
X7962900D02*
D03*
Y8610600D02*
D03*
X7747000Y8623300D02*
D03*
X7620000Y8686800D02*
D03*
X7658100Y8788400D02*
D03*
X7696200Y9029700D02*
D03*
X7912100D02*
D03*
X8001000Y8953500D02*
D03*
X8191500Y8940800D02*
D03*
X8331200Y8890000D02*
D03*
X8559800Y8877300D02*
D03*
X8763000D02*
D03*
X8991600D02*
D03*
X9220200D02*
D03*
X9423400D02*
D03*
X9575800D02*
D03*
X9728200D02*
D03*
X9918700D02*
D03*
X10121900Y8953500D02*
D03*
X10325100Y8978900D02*
D03*
X10490200Y9144000D02*
D03*
X10680700Y9296400D02*
D03*
Y9410700D02*
D03*
X10528300Y9347200D02*
D03*
X10426700Y9232900D02*
D03*
X10287000Y9093200D02*
D03*
X9753600Y9067800D02*
D03*
X9588500D02*
D03*
X9436100D02*
D03*
X9245600D02*
D03*
X9093200D02*
D03*
X8915400D02*
D03*
X8763000D02*
D03*
X8610600D02*
D03*
X8432800D02*
D03*
X8255000D02*
D03*
X8013700Y9093200D02*
D03*
X7924800Y9182100D02*
D03*
X7734300Y9283700D02*
D03*
X7594600Y9220200D02*
D03*
X7454900Y9245600D02*
D03*
X7264400D02*
D03*
X7023100D02*
D03*
X7581900Y9372600D02*
D03*
X7404100D02*
D03*
X7226300D02*
D03*
X7023100D02*
D03*
X6934200D02*
D03*
X4889500Y3124200D02*
D03*
X5829300D02*
D03*
X7848600Y2933700D02*
D03*
X8991600Y3213100D02*
D03*
X7670800Y3390900D02*
D03*
X8775700Y3530600D02*
D03*
X8763000Y3733800D02*
D03*
X7188200Y4965700D02*
D03*
X6769100Y4597400D02*
D03*
X9309100Y4762500D02*
D03*
X7124700Y4114800D02*
D03*
X7226300D02*
D03*
X7493000D02*
D03*
X7404100D02*
D03*
X7315200D02*
D03*
X7124700Y4381500D02*
D03*
X7480300D02*
D03*
X7391400D02*
D03*
X7213600D02*
D03*
X7302500D02*
D03*
X7480300Y5727700D02*
D03*
X7353300Y5829300D02*
D03*
X6731000Y5359400D02*
D03*
X6680200Y5562600D02*
D03*
X5003800Y5524500D02*
D03*
X4965700Y5219700D02*
D03*
X4241800Y5549900D02*
D03*
X4318000Y5308600D02*
D03*
X9575800Y4775200D02*
D03*
X3962400Y7048500D02*
D03*
X4127500Y7200900D02*
D03*
X3378200Y8572500D02*
D03*
X3771900Y8394700D02*
D03*
X3378200Y8483600D02*
D03*
X3746500D02*
D03*
X5473700Y5118100D02*
D03*
X5549900D02*
D03*
Y5194300D02*
D03*
X5473700D02*
D03*
X5397500D02*
D03*
Y5118100D02*
D03*
X5321300D02*
D03*
Y5194300D02*
D03*
X5245100Y5118100D02*
D03*
Y5194300D02*
D03*
X5321300Y5346700D02*
D03*
X5397500D02*
D03*
X5473700D02*
D03*
X5549900D02*
D03*
Y5422900D02*
D03*
X5473700D02*
D03*
X5397500D02*
D03*
X5321300D02*
D03*
X5245100D02*
D03*
Y5346700D02*
D03*
Y5270500D02*
D03*
X5321300D02*
D03*
X5549900D02*
D03*
X5473700D02*
D03*
X4191000Y7747000D02*
D03*
Y7823200D02*
D03*
X4114800D02*
D03*
Y7747000D02*
D03*
X4191000Y7518400D02*
D03*
Y7594600D02*
D03*
X4114800Y7518400D02*
D03*
Y7594600D02*
D03*
X3886200Y7518400D02*
D03*
X3962400D02*
D03*
Y7594600D02*
D03*
X3886200D02*
D03*
Y7823200D02*
D03*
Y7747000D02*
D03*
Y7670800D02*
D03*
X3962400Y7747000D02*
D03*
Y7823200D02*
D03*
X4038600D02*
D03*
Y7747000D02*
D03*
Y7518400D02*
D03*
Y7594600D02*
D03*
X3962400Y7670800D02*
D03*
X4191000D02*
D03*
X4114800D02*
D03*
X6604000Y4038600D02*
D03*
X5422900Y5753100D02*
D03*
X6261100Y4127500D02*
D03*
X7150100Y7785100D02*
D03*
Y8039100D02*
D03*
X9309100Y3213100D02*
D03*
X8623300Y4127500D02*
D03*
X8140700Y4711700D02*
D03*
X7353300D02*
D03*
X7416800Y4787900D02*
D03*
X4508500Y8026400D02*
D03*
X3822700Y8089900D02*
D03*
X5257800Y4546600D02*
D03*
X5398100Y5267300D02*
D03*
X4039200Y7671600D02*
D03*
X9639300Y3238500D02*
D03*
X9664700Y3136900D02*
D03*
X10325100Y3429000D02*
D03*
X9880600Y3225800D02*
D03*
Y3365500D02*
D03*
Y3492500D02*
D03*
X10210800Y4787900D02*
D03*
X9842500Y3759200D02*
D03*
X9880600Y3886200D02*
D03*
X5854700Y5664200D02*
D03*
X4940300Y5486400D02*
D03*
X4953000Y5359400D02*
D03*
X6438900Y4737100D02*
D03*
X5397500Y4546600D02*
D03*
X6197600Y4749800D02*
D03*
X6083300Y4660900D02*
D03*
X6731000Y4965700D02*
D03*
X6553200Y4826000D02*
D03*
X7073900Y5029200D02*
D03*
X6985000Y5156200D02*
D03*
X8699500Y7175500D02*
D03*
X8547100Y8077200D02*
D03*
X8910300Y7945100D02*
D03*
X8966200Y7721600D02*
D03*
X9004300Y8013700D02*
D03*
X11658600Y6019800D02*
D03*
X11518900D02*
D03*
X10033000Y7797800D02*
D03*
Y7988300D02*
D03*
X11366500Y5003800D02*
D03*
X10680700Y4902200D02*
D03*
X10693400Y5016500D02*
D03*
X10134600Y4699000D02*
D03*
X8613908Y4346708D02*
D03*
X9004300Y4483100D02*
D03*
X9118600Y4546600D02*
D03*
X9156700Y4229100D02*
D03*
X10109200Y5943600D02*
D03*
X10121900Y5816600D02*
D03*
X10083800Y6273800D02*
D03*
X10045700Y6159500D02*
D03*
X9728200Y6210300D02*
D03*
X9740900Y6375400D02*
D03*
X9626600Y6273800D02*
D03*
X9728200Y6108700D02*
D03*
X9080500Y5676900D02*
D03*
X9131300Y5600700D02*
D03*
X9182100Y5537200D02*
D03*
X9232900Y5461000D02*
D03*
X10045700Y5143500D02*
D03*
X9956800Y5080000D02*
D03*
X9664700Y5270500D02*
D03*
X9677400Y5372100D02*
D03*
X8229600Y4927600D02*
D03*
X7175500Y6705600D02*
D03*
X8382000Y4152900D02*
D03*
X6070600Y6515100D02*
D03*
X6096000Y5118100D02*
D03*
X6210300D02*
D03*
X5295900Y6235700D02*
D03*
X5130800Y6172200D02*
D03*
X6680200Y5410200D02*
D03*
Y5486400D02*
D03*
X10566400Y3848100D02*
D03*
X9283700Y4318000D02*
D03*
X9359900Y4394200D02*
D03*
Y5372100D02*
D03*
X9347200Y5270500D02*
D03*
X4928600Y4851400D02*
D03*
X9410700Y4762500D02*
D03*
X9499600D02*
D03*
X4000500Y7112000D02*
D03*
X4064000Y7162800D02*
D03*
X6705600Y4267200D02*
D03*
X3822700Y9144000D02*
D03*
X4356100Y7302500D02*
D03*
X4533900Y7861300D02*
D03*
X4089400Y8166100D02*
D03*
X3632200Y7416800D02*
D03*
X3657600Y7924800D02*
D03*
X5156200Y5867400D02*
D03*
X5321300Y5753100D02*
D03*
X3416300Y7683500D02*
D03*
X3733800Y8064500D02*
D03*
X7493000Y5803900D02*
D03*
X7429500Y5854700D02*
D03*
X7315200Y5067300D02*
D03*
X5803900Y4864100D02*
D03*
X5943600Y5181600D02*
D03*
X5880100Y5549900D02*
D03*
X4381500Y5384800D02*
D03*
X4267200Y5473700D02*
D03*
X6731000Y4673600D02*
D03*
X8128000Y4622800D02*
D03*
X7226300Y4876800D02*
D03*
X7289800Y3530600D02*
D03*
X6819900Y4356100D02*
D03*
X7874000Y4254500D02*
D03*
X7797800Y4406900D02*
D03*
X6705600Y6692900D02*
D03*
X6578600D02*
D03*
X6794500Y4000500D02*
D03*
X7886700Y3962400D02*
D03*
X8229600Y4140200D02*
D03*
X8115300D02*
D03*
X7442200Y4914900D02*
D03*
X7632700Y4838700D02*
D03*
X7696200Y8686800D02*
D03*
X6972300Y9309100D02*
D03*
X7721600Y3822700D02*
D03*
X7429500Y3632200D02*
D03*
X6934200Y3505200D02*
D03*
X6908800Y3822700D02*
D03*
X6769100Y4508500D02*
D03*
X6883400Y4597400D02*
D03*
X7213600Y6108700D02*
D03*
D135*
X3505200Y8750300D02*
D03*
X7048500Y7493000D02*
D03*
X6445250Y6851650D02*
D03*
X9791700Y4813300D02*
D03*
X4838700Y5842000D02*
D03*
X5156200Y6858000D02*
D03*
X9372600Y4508500D02*
D03*
X4610100Y7340600D02*
D03*
X2921000Y8801100D02*
D03*
D136*
X10096500Y3873500D02*
D03*
X10033000Y2984500D02*
D03*
X9029700Y7607300D02*
D03*
X9118600Y8026400D02*
D03*
D137*
X6578600Y5613400D02*
D03*
X7289800Y5981700D02*
D03*
D138*
X9726000Y7049700D02*
D03*
Y7099700D02*
D03*
Y7149700D02*
D03*
Y7199700D02*
D03*
X9578000D02*
D03*
Y7149700D02*
D03*
Y7099700D02*
D03*
Y7049700D02*
D03*
D139*
X10251300Y2997200D02*
D03*
Y3392200D02*
D03*
X10401300D02*
D03*
Y2997200D02*
D03*
D140*
X10153800Y3069700D02*
D03*
Y3119700D02*
D03*
Y3169700D02*
D03*
Y3219700D02*
D03*
Y3269700D02*
D03*
Y3319700D02*
D03*
X10498800D02*
D03*
Y3269700D02*
D03*
Y3219700D02*
D03*
Y3169700D02*
D03*
Y3119700D02*
D03*
Y3069700D02*
D03*
D141*
X10326300Y3194700D02*
D03*
D142*
X5498000Y4431100D02*
D03*
Y4281100D02*
D03*
X5678000D02*
D03*
Y4431100D02*
D03*
D143*
X5498000Y4356100D02*
D03*
X5678000D02*
D03*
X8826400Y7945100D02*
D03*
X8496400D02*
D03*
D144*
X6667500Y4776800D02*
D03*
X6717500D02*
D03*
X6667500Y4826800D02*
D03*
X6717500D02*
D03*
X6667500Y4876800D02*
D03*
X6717500D02*
D03*
D145*
X6896100Y4715600D02*
D03*
Y4885600D02*
D03*
D146*
X9455700Y7607300D02*
D03*
X9619700D02*
D03*
X4998000Y6705600D02*
D03*
X5162000D02*
D03*
D147*
X8840700Y8216900D02*
D03*
X8710700D02*
D03*
D148*
X8496400Y7617600D02*
D03*
X8826400D02*
D03*
D149*
X8821400Y7672600D02*
D03*
Y7722600D02*
D03*
X8501400D02*
D03*
Y7672600D02*
D03*
D150*
X8806400Y7830100D02*
D03*
X8516400D02*
D03*
X4546300Y5454400D02*
D03*
Y5359400D02*
D03*
Y5264400D02*
D03*
X4826300D02*
D03*
Y5359400D02*
D03*
Y5454400D02*
D03*
D151*
X8776400Y7965100D02*
D03*
X8546400D02*
D03*
D152*
X8661400Y7885100D02*
D03*
D153*
X8546400Y7600100D02*
D03*
X8776400D02*
D03*
D154*
X8608900D02*
D03*
X8713900D02*
D03*
D155*
X8661400D02*
D03*
D156*
X3546764Y8473237D02*
D03*
D157*
X3451764Y8333237D02*
D03*
X3546764D02*
D03*
X3641764D02*
D03*
Y8613237D02*
D03*
X3546764D02*
D03*
X3451764D02*
D03*
D158*
X8001000Y4347200D02*
D03*
Y4187200D02*
D03*
X7251700Y3247400D02*
D03*
Y3407400D02*
D03*
D159*
X5308100Y5954500D02*
D03*
X5436100D02*
D03*
Y5856500D02*
D03*
X5308100D02*
D03*
D160*
X4686300Y5359400D02*
D03*
D161*
X7843500Y8928100D02*
D03*
X7777500D02*
D03*
D162*
X7696200Y9149600D02*
D03*
Y9214600D02*
D03*
%TF.MD5,d9e716847fda7020ef66f1a0e4642b87*%
M02*
